<?xml version="1.0" encoding="UTF-8"?>
<!-- Generator: CustomSymbols v2.7.3.49 by @serious_bret https://bretlester.com/app_content/CustomSymbols/ -->
<!-- Guides: Left/Right 0.0/0.0 Cap/Base 0.23/0.23 -->
<!-- Settings: RefScale 1.0 Min/Max Stroke Scales 0.5/2.21 -->
<!DOCTYPE svg
PUBLIC "-//W3C//DTD SVG 1.1//EN"
       "http://www.w3.org/Graphics/SVG/1.1/DTD/svg11.dtd">
<svg version="1.1" xmlns="http://www.w3.org/2000/svg" xmlns:xlink="http://www.w3.org/1999/xlink" width="3300" height="2200">
<![CDATA[<svg width="30" height="30" viewBox="0 0 30 30" fill="none" xmlns="http://www.w3.org/2000/svg">
<path d="M14.25 3.75C14.25 3.3375 14.5875 3 15 3C15.4125 3 15.75 3.3375 15.75 3.75V4.5375C19.5422 4.9125 22.5 8.10938 22.5 12V13.3641C22.5 15.4125 23.3156 17.3766 24.7641 18.8297L24.8953 18.9609C25.2844 19.35 25.5047 19.8797 25.5047 20.4281C25.5047 21.5766 24.5766 22.5047 23.4281 22.5047L6.57656 22.5C5.42812 22.5 4.5 21.5719 4.5 20.4234C4.5 19.875 4.72031 19.3453 5.10938 18.9562L5.24063 18.825C6.68437 17.3766 7.5 15.4125 7.5 13.3641V12C7.5 8.10938 10.4578 4.9125 14.25 4.5375V3.75ZM15 6C11.6859 6 9 8.68594 9 12V13.3641C9 15.8109 8.02969 18.1594 6.29531 19.8891L6.16875 20.0156C6.06094 20.1234 6 20.2688 6 20.4234C6 20.7422 6.25781 21 6.57656 21H23.4234C23.7422 21 24 20.7422 24 20.4234C24 20.2688 23.9391 20.1234 23.8312 20.0156L23.7 19.8844C21.9703 18.1547 20.9953 15.8063 20.9953 13.3594V11.9953C20.9953 8.68125 18.3094 5.99531 14.9953 5.99531L15 6ZM13.5844 24.5016C13.7906 25.0828 14.3484 25.5 15 25.5C15.6516 25.5 16.2094 25.0828 16.4156 24.5016C16.5516 24.1125 16.9828 23.9062 17.3719 24.0422C17.7609 24.1781 17.9672 24.6094 17.8312 24.9984C17.4187 26.1656 16.3078 27 15 27C13.6922 27 12.5813 26.1656 12.1688 24.9984C12.0328 24.6094 12.2344 24.1781 12.6281 24.0422C13.0219 23.9062 13.4484 24.1078 13.5844 24.5016Z" fill="#5E6278"/>
</svg>
]]>
 <g id="Notes">
  <rect height="2200" id="artboard" style="fill:white;opacity:1" width="3300" x="0" y="0"/>
  <line id="" style="fill:none;stroke:black;opacity:1;stroke-width:0.5;" x1="263" x2="3036" y1="292" y2="292"/>
  <text id="reftext1" style="stroke:none;fill:black;font-family:-apple-system,&quot;SF Pro Display&quot;,&quot;SF Pro Text&quot;,Helvetica,sans-serif;font-weight:bold;" transform="matrix(1 0 0 1 263 322)">Weight/Scale Variations</text>
  <text id="reftext2" style="stroke:none;fill:black;font-family:-apple-system,&quot;SF Pro Display&quot;,&quot;SF Pro Text&quot;,Helvetica,sans-serif;text-anchor:middle;" transform="matrix(1 0 0 1 559.711 322)">Ultralight</text>
  <text style="stroke:none;fill:black;font-family:-apple-system,&quot;SF Pro Display&quot;,&quot;SF Pro Text&quot;,Helvetica,sans-serif;text-anchor:middle;" transform="matrix(1 0 0 1 856.422 322)">Thin</text>
  <text style="stroke:none;fill:black;font-family:-apple-system,&quot;SF Pro Display&quot;,&quot;SF Pro Text&quot;,Helvetica,sans-serif;text-anchor:middle;" transform="matrix(1 0 0 1 1153.13 322)">Light</text>
  <text style="stroke:none;fill:black;font-family:-apple-system,&quot;SF Pro Display&quot;,&quot;SF Pro Text&quot;,Helvetica,sans-serif;text-anchor:middle;" transform="matrix(1 0 0 1 1449.84 322)">Regular</text>
  <text style="stroke:none;fill:black;font-family:-apple-system,&quot;SF Pro Display&quot;,&quot;SF Pro Text&quot;,Helvetica,sans-serif;text-anchor:middle;" transform="matrix(1 0 0 1 1746.56 322)">Medium</text>
  <text style="stroke:none;fill:black;font-family:-apple-system,&quot;SF Pro Display&quot;,&quot;SF Pro Text&quot;,Helvetica,sans-serif;text-anchor:middle;" transform="matrix(1 0 0 1 2043.27 322)">Semibold</text>
  <text style="stroke:none;fill:black;font-family:-apple-system,&quot;SF Pro Display&quot;,&quot;SF Pro Text&quot;,Helvetica,sans-serif;text-anchor:middle;" transform="matrix(1 0 0 1 2339.98 322)">Bold</text>
  <text style="stroke:none;fill:black;font-family:-apple-system,&quot;SF Pro Display&quot;,&quot;SF Pro Text&quot;,Helvetica,sans-serif;text-anchor:middle;" transform="matrix(1 0 0 1 2636.69 322)">Heavy</text>
  <text style="stroke:none;fill:black;font-family:-apple-system,&quot;SF Pro Display&quot;,&quot;SF Pro Text&quot;,Helvetica,sans-serif;text-anchor:middle;" transform="matrix(1 0 0 1 2933.4 322)">Black</text>
  <line id="" style="fill:none;stroke:black;opacity:1;stroke-width:0.5;" x1="263" x2="3036" y1="1903" y2="1903"/>
  <g id="" transform="matrix(1 0 0 1 263 1933)">
   <path d="M9.24805 0.830078C13.5547 0.830078 17.1387-2.74414 17.1387-7.05078C17.1387-11.3574 13.5449-14.9316 9.23828-14.9316C4.94141-14.9316 1.36719-11.3574 1.36719-7.05078C1.36719-2.74414 4.95117 0.830078 9.24805 0.830078ZM9.24805-0.654297C5.70312-0.654297 2.87109-3.49609 2.87109-7.05078C2.87109-10.6055 5.69336-13.4473 9.23828-13.4473C12.793-13.4473 15.6348-10.6055 15.6445-7.05078C15.6543-3.49609 12.8027-0.654297 9.24805-0.654297ZM6.39648-6.31836L8.50586-6.31836L8.50586-4.19922C8.50586-3.75977 8.79883-3.45703 9.22852-3.45703C9.67773-3.45703 9.9707-3.75977 9.9707-4.19922L9.9707-6.31836L12.0996-6.31836C12.5391-6.31836 12.8418-6.61133 12.8418-7.04102C12.8418-7.48047 12.5391-7.7832 12.0996-7.7832L9.9707-7.7832L9.9707-9.89258C9.9707-10.3418 9.67773-10.6445 9.22852-10.6445C8.79883-10.6445 8.50586-10.3418 8.50586-9.89258L8.50586-7.7832L6.39648-7.7832C5.94727-7.7832 5.64453-7.48047 5.64453-7.04102C5.64453-6.61133 5.94727-6.31836 6.39648-6.31836Z"/>
  </g>
  <g id="" transform="matrix(1 0 0 1 281.506 1933)">
   <path d="M11.709 2.91016C17.1582 2.91016 21.6699-1.61133 21.6699-7.05078C21.6699-12.5 17.1484-17.0117 11.6992-17.0117C6.25977-17.0117 1.74805-12.5 1.74805-7.05078C1.74805-1.61133 6.26953 2.91016 11.709 2.91016ZM11.709 1.25C7.09961 1.25 3.41797-2.44141 3.41797-7.05078C3.41797-11.6602 7.08984-15.3516 11.6992-15.3516C16.3086-15.3516 20-11.6602 20.0098-7.05078C20.0195-2.44141 16.3184 1.25 11.709 1.25ZM7.98828-6.23047L10.8789-6.23047L10.8789-3.32031C10.8789-2.83203 11.2109-2.5 11.6895-2.5C12.1777-2.5 12.5195-2.83203 12.5195-3.32031L12.5195-6.23047L15.4297-6.23047C15.918-6.23047 16.25-6.5625 16.25-7.04102C16.25-7.5293 15.918-7.87109 15.4297-7.87109L12.5195-7.87109L12.5195-10.7617C12.5195-11.2695 12.1777-11.6016 11.6895-11.6016C11.2109-11.6016 10.8789-11.2598 10.8789-10.7617L10.8789-7.87109L7.98828-7.87109C7.48047-7.87109 7.14844-7.5293 7.14844-7.04102C7.14844-6.5625 7.49023-6.23047 7.98828-6.23047Z"/>
  </g>
  <g id="" transform="matrix(1 0 0 1 304.924 1933)">
   <path d="M14.9707 5.66406C21.9336 5.66406 27.6953-0.0976562 27.6953-7.05078C27.6953-14.0137 21.9238-19.7754 14.9609-19.7754C8.00781-19.7754 2.25586-14.0137 2.25586-7.05078C2.25586-0.0976562 8.01758 5.66406 14.9707 5.66406ZM14.9707 3.84766C8.93555 3.84766 4.08203-1.01562 4.08203-7.05078C4.08203-13.0957 8.92578-17.9492 14.9609-17.9492C21.0059-17.9492 25.8594-13.0957 25.8691-7.05078C25.8789-1.01562 21.0156 3.84766 14.9707 3.84766ZM10.0586-6.14258L14.0625-6.14258L14.0625-2.12891C14.0625-1.5918 14.4336-1.2207 14.9512-1.2207C15.4883-1.2207 15.8594-1.5918 15.8594-2.12891L15.8594-6.14258L19.8828-6.14258C20.4102-6.14258 20.791-6.51367 20.791-7.03125C20.791-7.56836 20.4199-7.94922 19.8828-7.94922L15.8594-7.94922L15.8594-11.9531C15.8594-12.5098 15.4883-12.8809 14.9512-12.8809C14.4336-12.8809 14.0625-12.5 14.0625-11.9531L14.0625-7.94922L10.0586-7.94922C9.50195-7.94922 9.13086-7.56836 9.13086-7.03125C9.13086-6.51367 9.51172-6.14258 10.0586-6.14258Z"/>
  </g>
  <text style="stroke:none;fill:black;font-family:-apple-system,&quot;SF Pro Display&quot;,&quot;SF Pro Text&quot;,Helvetica,sans-serif;font-weight:bold;" transform="matrix(1 0 0 1 263 1953)">Design Variations</text>
  <text style="stroke:none;fill:black;font-family:-apple-system,&quot;SF Pro Display&quot;,&quot;SF Pro Text&quot;,Helvetica,sans-serif;" transform="matrix(1 0 0 1 263 1971)">Symbols are supported in up to nine weights and three scales.</text>
  <text style="stroke:none;fill:black;font-family:-apple-system,&quot;SF Pro Display&quot;,&quot;SF Pro Text&quot;,Helvetica,sans-serif;" transform="matrix(1 0 0 1 263 1989)">For optimal layout with text and other symbols, vertically align</text>
  <text style="stroke:none;fill:black;font-family:-apple-system,&quot;SF Pro Display&quot;,&quot;SF Pro Text&quot;,Helvetica,sans-serif;" transform="matrix(1 0 0 1 263 2007)">symbols with the adjacent text.</text>
  <line id="" style="fill:none;stroke:#00AEEF;stroke-width:0.5;opacity:1.0;" x1="776" x2="776" y1="1919" y2="1933"/>
  <g id="" transform="matrix(1 0 0 1 776 1933)">
   <path d="M3.31055 0.126953C3.82812 0.126953 4.08203-0.0683594 4.26758-0.605469L5.52734-4.0625L11.2891-4.0625L12.5488-0.605469C12.7344-0.0683594 12.9883 0.126953 13.4961 0.126953C14.0137 0.126953 14.3457-0.185547 14.3457-0.673828C14.3457-0.839844 14.3164-0.986328 14.2383-1.20117L9.6582-13.3887C9.43359-13.9941 9.0332-14.2871 8.4082-14.2871C7.80273-14.2871 7.39258-13.9941 7.17773-13.3984L2.59766-1.19141C2.51953-0.976562 2.49023-0.830078 2.49023-0.664062C2.49023-0.175781 2.80273 0.126953 3.31055 0.126953ZM6.00586-5.53711L8.37891-12.1094L8.42773-12.1094L10.8008-5.53711Z"/>
  </g>
  <line id="" style="fill:none;stroke:#00AEEF;stroke-width:0.5;opacity:1.0;" x1="792.836" x2="792.836" y1="1919" y2="1933"/>
  <text style="stroke:none;fill:black;font-family:-apple-system,&quot;SF Pro Display&quot;,&quot;SF Pro Text&quot;,Helvetica,sans-serif;font-weight:bold;" transform="matrix(1 0 0 1 776 1953)">Margins</text>
  <text style="stroke:none;fill:black;font-family:-apple-system,&quot;SF Pro Display&quot;,&quot;SF Pro Text&quot;,Helvetica,sans-serif;" transform="matrix(1 0 0 1 776 1971)">Leading and trailing margins on the left and right side of each symbol</text>
  <text style="stroke:none;fill:black;font-family:-apple-system,&quot;SF Pro Display&quot;,&quot;SF Pro Text&quot;,Helvetica,sans-serif;" transform="matrix(1 0 0 1 776 1989)">can be adjusted by modifying the x-location of the margin guidelines.</text>
  <text style="stroke:none;fill:black;font-family:-apple-system,&quot;SF Pro Display&quot;,&quot;SF Pro Text&quot;,Helvetica,sans-serif;" transform="matrix(1 0 0 1 776 2007)">Modifications are automatically applied proportionally to all</text>
  <text style="stroke:none;fill:black;font-family:-apple-system,&quot;SF Pro Display&quot;,&quot;SF Pro Text&quot;,Helvetica,sans-serif;" transform="matrix(1 0 0 1 776 2025)">scales and weights.</text>
  <g id="" transform="matrix(1 0 0 1 1289 1933)">
   <path d="M2.8418 1.86523L4.54102 3.57422C5.40039 4.44336 6.38672 4.38477 7.31445 3.35938L17.4902-7.85156C17.7539-7.76367 18.0273-7.7832 18.3398-7.8418L19.4043-8.03711L20.0684-7.36328L20.0293-6.80664C19.9902-6.30859 20.1172-5.92773 20.6055-5.44922L21.3672-4.70703C21.8457-4.22852 22.4609-4.19922 22.9297-4.66797L25.8398-7.58789C26.3086-8.05664 26.2891-8.65234 25.8105-9.13086L25.0391-9.89258C24.5605-10.3711 24.1895-10.5273 23.7109-10.4883L23.1348-10.4395L22.4902-11.0742L22.7344-12.1973C22.8613-12.7637 22.7051-13.2031 22.1191-13.7891L19.9219-15.9766C16.582-19.2969 12.1484-19.2188 9.25781-16.3281C8.83789-15.918 8.80859-15.3418 9.04297-14.9512C9.27734-14.5898 9.73633-14.3555 10.3809-14.5215C11.8457-14.8633 13.3691-14.9219 14.7949-13.9844L14.209-12.5293C14.0137-12.0508 13.9844-11.6504 14.1113-11.2891L3.04688-0.898438C2.06055 0.0195312 1.98242 0.996094 2.8418 1.86523ZM10.752-15.957C13.1836-17.7344 16.4746-17.4316 18.7012-15.2051L21.1328-12.793C21.3672-12.5586 21.4062-12.373 21.3379-12.0312L21.0156-10.5469L22.5195-9.0625L23.5059-9.12109C23.7598-9.13086 23.8379-9.11133 24.0332-8.91602L24.6094-8.33984L22.168-5.89844L21.5918-6.47461C21.3965-6.66992 21.3672-6.74805 21.377-7.01172L21.4453-7.98828L19.9512-9.47266L18.4277-9.21875C18.1055-9.15039 17.959-9.17969 17.7148-9.41406L15.7129-11.416C15.459-11.6504 15.4297-11.8164 15.5859-12.1875L16.4648-14.2773C14.9023-15.7324 12.8711-16.3574 10.8398-15.7617C10.6836-15.7227 10.625-15.8496 10.752-15.957ZM5.27344 2.30469L4.10156 1.14258C3.63281 0.683594 3.74023 0.341797 4.14062-0.0195312L14.9512-10.1953L16.416-8.71094L6.42578 2.27539C6.07422 2.67578 5.74219 2.77344 5.27344 2.30469Z"/>
  </g>
  <text style="stroke:none;fill:black;font-family:-apple-system,&quot;SF Pro Display&quot;,&quot;SF Pro Text&quot;,Helvetica,sans-serif;font-weight:bold;" transform="matrix(1 0 0 1 1289 1953)">Exporting</text>
  <text style="stroke:none;fill:black;font-family:-apple-system,&quot;SF Pro Display&quot;,&quot;SF Pro Text&quot;,Helvetica,sans-serif;" transform="matrix(1 0 0 1 1289 1971)">Symbols should be outlined when exporting to ensure the</text>
  <text style="stroke:none;fill:black;font-family:-apple-system,&quot;SF Pro Display&quot;,&quot;SF Pro Text&quot;,Helvetica,sans-serif;" transform="matrix(1 0 0 1 1289 1989)">design is preserved when submitting to Xcode.</text>
  <text id="template-version" style="stroke:none;fill:black;font-family:-apple-system,&quot;SF Pro Display&quot;,&quot;SF Pro Text&quot;,Helvetica,sans-serif;text-anchor:end;" transform="matrix(1 0 0 1 3036 1933)">Template v.2.0</text>
  <text style="stroke:none;fill:black;font-family:-apple-system,&quot;SF Pro Display&quot;,&quot;SF Pro Text&quot;,Helvetica,sans-serif;text-anchor:end;" transform="matrix(1 0 0 1 3036 1951)">Requires Xcode 12 or greater</text>
  <text style="stroke:none;fill:black;font-family:-apple-system,&quot;SF Pro Display&quot;,&quot;SF Pro Text&quot;,Helvetica,sans-serif;" transform="matrix(1 0 0 1 263 726)">Small</text>
  <text style="stroke:none;fill:black;font-family:-apple-system,&quot;SF Pro Display&quot;,&quot;SF Pro Text&quot;,Helvetica,sans-serif;" transform="matrix(1 0 0 1 263 1156)">Medium</text>
  <text style="stroke:none;fill:black;font-family:-apple-system,&quot;SF Pro Display&quot;,&quot;SF Pro Text&quot;,Helvetica,sans-serif;" transform="matrix(1 0 0 1 263 1586)">Large</text>
 </g>
 <g id="Guides">
  <g id="H-reference" style="fill:#27AAE1;stroke:none;" transform="matrix(1 0 0 1 339 696)">
   <path d="M0.976562 0L3.66211 0L12.9883-24.4629L45.752-24.4629L55.127 0L57.7637 0L30.6152-70.459L28.125-70.459ZM29.3457-67.1387L29.4434-67.1387L44.873-26.709L13.8672-26.709Z"/>
  </g>
  <line id="Baseline-S" style="fill:none;stroke:#27AAE1;opacity:1;stroke-width:0.5;" x1="263" x2="3036" y1="696" y2="696"/>
  <line id="Capline-S" style="fill:none;stroke:#27AAE1;opacity:1;stroke-width:0.5;" x1="263" x2="3036" y1="625.541" y2="625.541"/>
  <g id="H-reference" style="fill:#27AAE1;stroke:none;" transform="matrix(1 0 0 1 339 1126)">
   <path d="M0.976562 0L3.66211 0L12.9883-24.4629L45.752-24.4629L55.127 0L57.7637 0L30.6152-70.459L28.125-70.459ZM29.3457-67.1387L29.4434-67.1387L44.873-26.709L13.8672-26.709Z"/>
  </g>
  <line id="Baseline-M" style="fill:none;stroke:#27AAE1;opacity:1;stroke-width:0.5;" x1="263" x2="3036" y1="1126" y2="1126"/>
  <line id="Capline-M" style="fill:none;stroke:#27AAE1;opacity:1;stroke-width:0.5;" x1="263" x2="3036" y1="1055.54" y2="1055.54"/>
  <g id="H-reference" style="fill:#27AAE1;stroke:none;" transform="matrix(1 0 0 1 339 1556)">
   <path d="M0.976562 0L3.66211 0L12.9883-24.4629L45.752-24.4629L55.127 0L57.7637 0L30.6152-70.459L28.125-70.459ZM29.3457-67.1387L29.4434-67.1387L44.873-26.709L13.8672-26.709Z"/>
  </g>
  <line id="Baseline-L" style="fill:none;stroke:#27AAE1;opacity:1;stroke-width:0.5;" x1="263" x2="3036" y1="1556" y2="1556"/>
  <line id="Capline-L" style="fill:none;stroke:#27AAE1;opacity:1;stroke-width:0.5;" x1="263" x2="3036" y1="1485.54" y2="1485.54"/>
  <line id="left-margin" x1="1385.8892954282405" x2="1385.8892954282405" y1="1030.79" y2="1150.12" style="fill:none;stroke:#00AEEF;stroke-width:0.5;opacity:1.0;"/>
  <line id="right-margin" x1="1516.3707045717592" x2="1516.3707045717592" y1="1030.79" y2="1150.12" style="fill:none;stroke:#00AEEF;stroke-width:0.5;opacity:1.0;"/>
 </g>
 <g id="Symbols">
  <g id="Black-L" transform="matrix(1.0,0.0,0.0,1.0,2850.5194911024305,1436.6095106336807)">  <path stroke-miterlimit="4" stroke-dasharray="none" fill-opacity="1" stroke-width="1px" stroke-opacity="1" fill="#000000" stroke="none" stroke-linejoin="miter" fill-rule="nonzero" stroke-linecap="butt" d="M79.952,21.04C79.952,18.726,81.846,16.832,84.161,16.832C86.475,16.832,88.369,18.726,88.369,21.04L88.369,25.459C109.645,27.563,126.241,45.499,126.241,67.328L126.241,74.982C126.241,86.475,130.817,97.495,138.944,105.648L139.68,106.384C141.863,108.567,143.099,111.539,143.099,114.616C143.099,121.06,137.892,126.267,131.448,126.267L36.899,126.241C30.456,126.241,25.248,121.033,25.248,114.59C25.248,111.513,26.484,108.541,28.667,106.358L29.404,105.621C37.504,97.495,42.08,86.475,42.08,74.982L42.08,67.328C42.08,45.499,58.676,27.563,79.952,25.459L79.952,21.04ZM84.161,33.664C65.566,33.664,50.496,48.734,50.496,67.328L50.496,74.982C50.496,88.71,45.052,101.887,35.321,111.592L34.611,112.302C34.006,112.906,33.664,113.722,33.664,114.59C33.664,116.378,35.111,117.825,36.899,117.825L131.422,117.825C133.21,117.825,134.657,116.378,134.657,114.59C134.657,113.722,134.315,112.906,133.71,112.302L132.974,111.565C123.269,101.861,117.798,88.684,117.798,74.956L117.798,67.302C117.798,48.708,102.729,33.638,84.134,33.638L84.161,33.664ZM76.218,137.471C77.375,140.732,80.505,143.073,84.161,143.073C87.816,143.073,90.946,140.732,92.103,137.471C92.866,135.288,95.285,134.131,97.469,134.894C99.651,135.656,100.809,138.076,100.046,140.259C97.731,146.807,91.498,151.489,84.161,151.489C76.823,151.489,70.59,146.807,68.275,140.259C67.512,138.076,68.644,135.656,70.852,134.894C73.062,134.131,75.455,135.262,76.218,137.471ZM76.218,137.471"/>
</g>
  <g id="Heavy-L" transform="matrix(1.0,0.0,0.0,1.0,2553.8094911024305,1436.6095106336807)">  <path stroke-linecap="butt" fill-opacity="1" fill-rule="nonzero" stroke-miterlimit="4" stroke-dasharray="none" stroke-opacity="1" fill="#000000" stroke-width="1px" stroke-linejoin="miter" stroke="none" d="M79.952,21.04C79.952,18.726,81.846,16.832,84.161,16.832C86.475,16.832,88.369,18.726,88.369,21.04L88.369,25.459C109.645,27.563,126.241,45.499,126.241,67.328L126.241,74.982C126.241,86.475,130.817,97.495,138.944,105.648L139.68,106.384C141.863,108.567,143.099,111.539,143.099,114.616C143.099,121.06,137.892,126.267,131.448,126.267L36.899,126.241C30.456,126.241,25.248,121.033,25.248,114.59C25.248,111.513,26.484,108.541,28.667,106.358L29.404,105.621C37.504,97.495,42.08,86.475,42.08,74.982L42.08,67.328C42.08,45.499,58.676,27.563,79.952,25.459L79.952,21.04ZM84.161,33.664C65.566,33.664,50.496,48.734,50.496,67.328L50.496,74.982C50.496,88.71,45.052,101.887,35.321,111.592L34.611,112.302C34.006,112.906,33.664,113.722,33.664,114.59C33.664,116.378,35.111,117.825,36.899,117.825L131.422,117.825C133.21,117.825,134.657,116.378,134.657,114.59C134.657,113.722,134.315,112.906,133.71,112.302L132.974,111.565C123.269,101.861,117.798,88.684,117.798,74.956L117.798,67.302C117.798,48.708,102.729,33.638,84.134,33.638L84.161,33.664ZM76.218,137.471C77.375,140.732,80.505,143.073,84.161,143.073C87.816,143.073,90.946,140.732,92.103,137.471C92.866,135.288,95.285,134.131,97.469,134.894C99.651,135.656,100.809,138.076,100.046,140.259C97.731,146.807,91.498,151.489,84.161,151.489C76.823,151.489,70.59,146.807,68.275,140.259C67.512,138.076,68.644,135.656,70.852,134.894C73.062,134.131,75.455,135.262,76.218,137.471ZM76.218,137.471"/>
</g>
  <g id="Bold-L" transform="matrix(1.0,0.0,0.0,1.0,2257.0994911024304,1436.6095106336807)">  <path stroke-opacity="1" stroke-linejoin="miter" stroke="none" stroke-linecap="butt" fill="#000000" fill-opacity="1" stroke-width="1px" stroke-miterlimit="4" fill-rule="nonzero" stroke-dasharray="none" d="M79.952,21.04C79.952,18.726,81.846,16.832,84.161,16.832C86.475,16.832,88.369,18.726,88.369,21.04L88.369,25.459C109.645,27.563,126.241,45.499,126.241,67.328L126.241,74.982C126.241,86.475,130.817,97.495,138.944,105.648L139.68,106.384C141.863,108.567,143.099,111.539,143.099,114.616C143.099,121.06,137.892,126.267,131.448,126.267L36.899,126.241C30.456,126.241,25.248,121.033,25.248,114.59C25.248,111.513,26.484,108.541,28.667,106.358L29.404,105.621C37.504,97.495,42.08,86.475,42.08,74.982L42.08,67.328C42.08,45.499,58.676,27.563,79.952,25.459L79.952,21.04ZM84.161,33.664C65.566,33.664,50.496,48.734,50.496,67.328L50.496,74.982C50.496,88.71,45.052,101.887,35.321,111.592L34.611,112.302C34.006,112.906,33.664,113.722,33.664,114.59C33.664,116.378,35.111,117.825,36.899,117.825L131.422,117.825C133.21,117.825,134.657,116.378,134.657,114.59C134.657,113.722,134.315,112.906,133.71,112.302L132.974,111.565C123.269,101.861,117.798,88.684,117.798,74.956L117.798,67.302C117.798,48.708,102.729,33.638,84.134,33.638L84.161,33.664ZM76.218,137.471C77.375,140.732,80.505,143.073,84.161,143.073C87.816,143.073,90.946,140.732,92.103,137.471C92.866,135.288,95.285,134.131,97.469,134.894C99.651,135.656,100.809,138.076,100.046,140.259C97.731,146.807,91.498,151.489,84.161,151.489C76.823,151.489,70.59,146.807,68.275,140.259C67.512,138.076,68.644,135.656,70.852,134.894C73.062,134.131,75.455,135.262,76.218,137.471ZM76.218,137.471"/>
</g>
  <g id="Semibold-L" transform="matrix(1.0,0.0,0.0,1.0,1960.3894911024306,1436.6095106336807)">  <path stroke-miterlimit="4" stroke-linecap="butt" stroke="none" stroke-width="1px" stroke-opacity="1" stroke-dasharray="none" fill-opacity="1" fill-rule="nonzero" fill="#000000" stroke-linejoin="miter" d="M79.952,21.04C79.952,18.726,81.846,16.832,84.161,16.832C86.475,16.832,88.369,18.726,88.369,21.04L88.369,25.459C109.645,27.563,126.241,45.499,126.241,67.328L126.241,74.982C126.241,86.475,130.817,97.495,138.944,105.648L139.68,106.384C141.863,108.567,143.099,111.539,143.099,114.616C143.099,121.06,137.892,126.267,131.448,126.267L36.899,126.241C30.456,126.241,25.248,121.033,25.248,114.59C25.248,111.513,26.484,108.541,28.667,106.358L29.404,105.621C37.504,97.495,42.08,86.475,42.08,74.982L42.08,67.328C42.08,45.499,58.676,27.563,79.952,25.459L79.952,21.04ZM84.161,33.664C65.566,33.664,50.496,48.734,50.496,67.328L50.496,74.982C50.496,88.71,45.052,101.887,35.321,111.592L34.611,112.302C34.006,112.906,33.664,113.722,33.664,114.59C33.664,116.378,35.111,117.825,36.899,117.825L131.422,117.825C133.21,117.825,134.657,116.378,134.657,114.59C134.657,113.722,134.315,112.906,133.71,112.302L132.974,111.565C123.269,101.861,117.798,88.684,117.798,74.956L117.798,67.302C117.798,48.708,102.729,33.638,84.134,33.638L84.161,33.664ZM76.218,137.471C77.375,140.732,80.505,143.073,84.161,143.073C87.816,143.073,90.946,140.732,92.103,137.471C92.866,135.288,95.285,134.131,97.469,134.894C99.651,135.656,100.809,138.076,100.046,140.259C97.731,146.807,91.498,151.489,84.161,151.489C76.823,151.489,70.59,146.807,68.275,140.259C67.512,138.076,68.644,135.656,70.852,134.894C73.062,134.131,75.455,135.262,76.218,137.471ZM76.218,137.471"/>
</g>
  <g id="Medium-L" transform="matrix(1.0,0.0,0.0,1.0,1663.6794911024306,1436.6095106336807)">  <path fill-opacity="1" fill="#000000" stroke-miterlimit="4" stroke-linecap="butt" stroke="none" stroke-linejoin="miter" fill-rule="nonzero" stroke-width="1px" stroke-opacity="1" stroke-dasharray="none" d="M79.952,21.04C79.952,18.726,81.846,16.832,84.161,16.832C86.475,16.832,88.369,18.726,88.369,21.04L88.369,25.459C109.645,27.563,126.241,45.499,126.241,67.328L126.241,74.982C126.241,86.475,130.817,97.495,138.944,105.648L139.68,106.384C141.863,108.567,143.099,111.539,143.099,114.616C143.099,121.06,137.892,126.267,131.448,126.267L36.899,126.241C30.456,126.241,25.248,121.033,25.248,114.59C25.248,111.513,26.484,108.541,28.667,106.358L29.404,105.621C37.504,97.495,42.08,86.475,42.08,74.982L42.08,67.328C42.08,45.499,58.676,27.563,79.952,25.459L79.952,21.04ZM84.161,33.664C65.566,33.664,50.496,48.734,50.496,67.328L50.496,74.982C50.496,88.71,45.052,101.887,35.321,111.592L34.611,112.302C34.006,112.906,33.664,113.722,33.664,114.59C33.664,116.378,35.111,117.825,36.899,117.825L131.422,117.825C133.21,117.825,134.657,116.378,134.657,114.59C134.657,113.722,134.315,112.906,133.71,112.302L132.974,111.565C123.269,101.861,117.798,88.684,117.798,74.956L117.798,67.302C117.798,48.708,102.729,33.638,84.134,33.638L84.161,33.664ZM76.218,137.471C77.375,140.732,80.505,143.073,84.161,143.073C87.816,143.073,90.946,140.732,92.103,137.471C92.866,135.288,95.285,134.131,97.469,134.894C99.651,135.656,100.809,138.076,100.046,140.259C97.731,146.807,91.498,151.489,84.161,151.489C76.823,151.489,70.59,146.807,68.275,140.259C67.512,138.076,68.644,135.656,70.852,134.894C73.062,134.131,75.455,135.262,76.218,137.471ZM76.218,137.471"/>
</g>
  <g id="Regular-L" transform="matrix(1.0,0.0,0.0,1.0,1366.9694911024305,1436.6095106336807)">  <path fill="#000000" stroke-width="1px" stroke="none" stroke-dasharray="none" fill-opacity="1" stroke-linejoin="miter" fill-rule="nonzero" stroke-miterlimit="4" stroke-linecap="butt" stroke-opacity="1" d="M79.952,21.04C79.952,18.726,81.846,16.832,84.161,16.832C86.475,16.832,88.369,18.726,88.369,21.04L88.369,25.459C109.645,27.563,126.241,45.499,126.241,67.328L126.241,74.982C126.241,86.475,130.817,97.495,138.944,105.648L139.68,106.384C141.863,108.567,143.099,111.539,143.099,114.616C143.099,121.06,137.892,126.267,131.448,126.267L36.899,126.241C30.456,126.241,25.248,121.033,25.248,114.59C25.248,111.513,26.484,108.541,28.667,106.358L29.404,105.621C37.504,97.495,42.08,86.475,42.08,74.982L42.08,67.328C42.08,45.499,58.676,27.563,79.952,25.459L79.952,21.04ZM84.161,33.664C65.566,33.664,50.496,48.734,50.496,67.328L50.496,74.982C50.496,88.71,45.052,101.887,35.321,111.592L34.611,112.302C34.006,112.906,33.664,113.722,33.664,114.59C33.664,116.378,35.111,117.825,36.899,117.825L131.422,117.825C133.21,117.825,134.657,116.378,134.657,114.59C134.657,113.722,134.315,112.906,133.71,112.302L132.974,111.565C123.269,101.861,117.798,88.684,117.798,74.956L117.798,67.302C117.798,48.708,102.729,33.638,84.134,33.638L84.161,33.664ZM76.218,137.471C77.375,140.732,80.505,143.073,84.161,143.073C87.816,143.073,90.946,140.732,92.103,137.471C92.866,135.288,95.285,134.131,97.469,134.894C99.651,135.656,100.809,138.076,100.046,140.259C97.731,146.807,91.498,151.489,84.161,151.489C76.823,151.489,70.59,146.807,68.275,140.259C67.512,138.076,68.644,135.656,70.852,134.894C73.062,134.131,75.455,135.262,76.218,137.471ZM76.218,137.471"/>
</g>
  <g id="Light-L" transform="matrix(1.0,0.0,0.0,1.0,1070.2594911024307,1436.6095106336807)">  <path stroke-linejoin="miter" stroke="none" stroke-width="1px" stroke-linecap="butt" fill-rule="nonzero" stroke-miterlimit="4" stroke-opacity="1" stroke-dasharray="none" fill-opacity="1" fill="#000000" d="M79.952,21.04C79.952,18.726,81.846,16.832,84.161,16.832C86.475,16.832,88.369,18.726,88.369,21.04L88.369,25.459C109.645,27.563,126.241,45.499,126.241,67.328L126.241,74.982C126.241,86.475,130.817,97.495,138.944,105.648L139.68,106.384C141.863,108.567,143.099,111.539,143.099,114.616C143.099,121.06,137.892,126.267,131.448,126.267L36.899,126.241C30.456,126.241,25.248,121.033,25.248,114.59C25.248,111.513,26.484,108.541,28.667,106.358L29.404,105.621C37.504,97.495,42.08,86.475,42.08,74.982L42.08,67.328C42.08,45.499,58.676,27.563,79.952,25.459L79.952,21.04ZM84.161,33.664C65.566,33.664,50.496,48.734,50.496,67.328L50.496,74.982C50.496,88.71,45.052,101.887,35.321,111.592L34.611,112.302C34.006,112.906,33.664,113.722,33.664,114.59C33.664,116.378,35.111,117.825,36.899,117.825L131.422,117.825C133.21,117.825,134.657,116.378,134.657,114.59C134.657,113.722,134.315,112.906,133.71,112.302L132.974,111.565C123.269,101.861,117.798,88.684,117.798,74.956L117.798,67.302C117.798,48.708,102.729,33.638,84.134,33.638L84.161,33.664ZM76.218,137.471C77.375,140.732,80.505,143.073,84.161,143.073C87.816,143.073,90.946,140.732,92.103,137.471C92.866,135.288,95.285,134.131,97.469,134.894C99.651,135.656,100.809,138.076,100.046,140.259C97.731,146.807,91.498,151.489,84.161,151.489C76.823,151.489,70.59,146.807,68.275,140.259C67.512,138.076,68.644,135.656,70.852,134.894C73.062,134.131,75.455,135.262,76.218,137.471ZM76.218,137.471"/>
</g>
  <g id="Thin-L" transform="matrix(1.0,0.0,0.0,1.0,773.5494911024306,1436.6095106336807)">  <path stroke-linejoin="miter" stroke-dasharray="none" stroke-width="1px" fill-opacity="1" stroke="none" fill="#000000" stroke-linecap="butt" stroke-miterlimit="4" stroke-opacity="1" fill-rule="nonzero" d="M79.952,21.04C79.952,18.726,81.846,16.832,84.161,16.832C86.475,16.832,88.369,18.726,88.369,21.04L88.369,25.459C109.645,27.563,126.241,45.499,126.241,67.328L126.241,74.982C126.241,86.475,130.817,97.495,138.944,105.648L139.68,106.384C141.863,108.567,143.099,111.539,143.099,114.616C143.099,121.06,137.892,126.267,131.448,126.267L36.899,126.241C30.456,126.241,25.248,121.033,25.248,114.59C25.248,111.513,26.484,108.541,28.667,106.358L29.404,105.621C37.504,97.495,42.08,86.475,42.08,74.982L42.08,67.328C42.08,45.499,58.676,27.563,79.952,25.459L79.952,21.04ZM84.161,33.664C65.566,33.664,50.496,48.734,50.496,67.328L50.496,74.982C50.496,88.71,45.052,101.887,35.321,111.592L34.611,112.302C34.006,112.906,33.664,113.722,33.664,114.59C33.664,116.378,35.111,117.825,36.899,117.825L131.422,117.825C133.21,117.825,134.657,116.378,134.657,114.59C134.657,113.722,134.315,112.906,133.71,112.302L132.974,111.565C123.269,101.861,117.798,88.684,117.798,74.956L117.798,67.302C117.798,48.708,102.729,33.638,84.134,33.638L84.161,33.664ZM76.218,137.471C77.375,140.732,80.505,143.073,84.161,143.073C87.816,143.073,90.946,140.732,92.103,137.471C92.866,135.288,95.285,134.131,97.469,134.894C99.651,135.656,100.809,138.076,100.046,140.259C97.731,146.807,91.498,151.489,84.161,151.489C76.823,151.489,70.59,146.807,68.275,140.259C67.512,138.076,68.644,135.656,70.852,134.894C73.062,134.131,75.455,135.262,76.218,137.471ZM76.218,137.471"/>
</g>
  <g id="Ultralight-L" transform="matrix(1.0,0.0,0.0,1.0,476.83949110243054,1436.6095106336807)">  <path fill-rule="nonzero" stroke-linecap="butt" stroke-opacity="1" fill-opacity="1" stroke-linejoin="miter" stroke-miterlimit="4" fill="#000000" stroke="none" stroke-dasharray="none" stroke-width="1px" d="M79.952,21.04C79.952,18.726,81.846,16.832,84.161,16.832C86.475,16.832,88.369,18.726,88.369,21.04L88.369,25.459C109.645,27.563,126.241,45.499,126.241,67.328L126.241,74.982C126.241,86.475,130.817,97.495,138.944,105.648L139.68,106.384C141.863,108.567,143.099,111.539,143.099,114.616C143.099,121.06,137.892,126.267,131.448,126.267L36.899,126.241C30.456,126.241,25.248,121.033,25.248,114.59C25.248,111.513,26.484,108.541,28.667,106.358L29.404,105.621C37.504,97.495,42.08,86.475,42.08,74.982L42.08,67.328C42.08,45.499,58.676,27.563,79.952,25.459L79.952,21.04ZM84.161,33.664C65.566,33.664,50.496,48.734,50.496,67.328L50.496,74.982C50.496,88.71,45.052,101.887,35.321,111.592L34.611,112.302C34.006,112.906,33.664,113.722,33.664,114.59C33.664,116.378,35.111,117.825,36.899,117.825L131.422,117.825C133.21,117.825,134.657,116.378,134.657,114.59C134.657,113.722,134.315,112.906,133.71,112.302L132.974,111.565C123.269,101.861,117.798,88.684,117.798,74.956L117.798,67.302C117.798,48.708,102.729,33.638,84.134,33.638L84.161,33.664ZM76.218,137.471C77.375,140.732,80.505,143.073,84.161,143.073C87.816,143.073,90.946,140.732,92.103,137.471C92.866,135.288,95.285,134.131,97.469,134.894C99.651,135.656,100.809,138.076,100.046,140.259C97.731,146.807,91.498,151.489,84.161,151.489C76.823,151.489,70.59,146.807,68.275,140.259C67.512,138.076,68.644,135.656,70.852,134.894C73.062,134.131,75.455,135.262,76.218,137.471ZM76.218,137.471"/>
</g>
  <g id="Black-M" transform="matrix(1.0,0.0,0.0,1.0,2869.4392954282407,1025.5293149594906)">  <path stroke-miterlimit="4" stroke-dasharray="none" fill-opacity="1" stroke-width="1px" stroke-opacity="1" fill="#000000" stroke="none" stroke-linejoin="miter" fill-rule="nonzero" stroke-linecap="butt" d="M61.979,16.31C61.979,14.516,63.447,13.048,65.241,13.048C67.035,13.048,68.503,14.516,68.503,16.31L68.503,19.735C84.996,21.366,97.861,35.271,97.861,52.193L97.861,58.126C97.861,67.035,101.408,75.577,107.708,81.898L108.279,82.468C109.971,84.161,110.93,86.464,110.93,88.85C110.93,93.845,106.893,97.881,101.898,97.881L28.604,97.861C23.609,97.861,19.572,93.824,19.572,88.829C19.572,86.444,20.53,84.14,22.223,82.448L22.793,81.877C29.073,75.577,32.62,67.035,32.62,58.126L32.62,52.193C32.62,35.271,45.485,21.366,61.979,19.735L61.979,16.31ZM65.241,26.096C50.826,26.096,39.144,37.778,39.144,52.193L39.144,58.126C39.144,68.768,34.924,78.982,27.381,86.505L26.83,87.055C26.361,87.524,26.096,88.157,26.096,88.829C26.096,90.216,27.218,91.337,28.604,91.337L101.877,91.337C103.264,91.337,104.385,90.216,104.385,88.829C104.385,88.157,104.12,87.524,103.651,87.055L103.08,86.485C95.557,78.962,91.317,68.748,91.317,58.105L91.317,52.172C91.317,37.758,79.635,26.076,65.22,26.076L65.241,26.096ZM59.084,106.567C59.981,109.095,62.407,110.909,65.241,110.909C68.075,110.909,70.501,109.095,71.398,106.567C71.989,104.874,73.865,103.977,75.557,104.569C77.249,105.16,78.146,107.036,77.555,108.728C75.761,113.804,70.929,117.433,65.241,117.433C59.553,117.433,54.721,113.804,52.927,108.728C52.335,107.036,53.212,105.16,54.924,104.569C56.637,103.977,58.492,104.854,59.084,106.567ZM59.084,106.567"/>
</g>
  <g id="Heavy-M" transform="matrix(1.0,0.0,0.0,1.0,2572.7292954282407,1025.5293149594906)">  <path stroke-linecap="butt" fill-opacity="1" fill-rule="nonzero" stroke-miterlimit="4" stroke-dasharray="none" stroke-opacity="1" fill="#000000" stroke-width="1px" stroke-linejoin="miter" stroke="none" d="M61.979,16.31C61.979,14.516,63.447,13.048,65.241,13.048C67.035,13.048,68.503,14.516,68.503,16.31L68.503,19.735C84.996,21.366,97.861,35.271,97.861,52.193L97.861,58.126C97.861,67.035,101.408,75.577,107.708,81.898L108.279,82.468C109.971,84.161,110.93,86.464,110.93,88.85C110.93,93.845,106.893,97.881,101.898,97.881L28.604,97.861C23.609,97.861,19.572,93.824,19.572,88.829C19.572,86.444,20.53,84.14,22.223,82.448L22.793,81.877C29.073,75.577,32.62,67.035,32.62,58.126L32.62,52.193C32.62,35.271,45.485,21.366,61.979,19.735L61.979,16.31ZM65.241,26.096C50.826,26.096,39.144,37.778,39.144,52.193L39.144,58.126C39.144,68.768,34.924,78.982,27.381,86.505L26.83,87.055C26.361,87.524,26.096,88.157,26.096,88.829C26.096,90.216,27.218,91.337,28.604,91.337L101.877,91.337C103.264,91.337,104.385,90.216,104.385,88.829C104.385,88.157,104.12,87.524,103.651,87.055L103.08,86.485C95.557,78.962,91.317,68.748,91.317,58.105L91.317,52.172C91.317,37.758,79.635,26.076,65.22,26.076L65.241,26.096ZM59.084,106.567C59.981,109.095,62.407,110.909,65.241,110.909C68.075,110.909,70.501,109.095,71.398,106.567C71.989,104.874,73.865,103.977,75.557,104.569C77.249,105.16,78.146,107.036,77.555,108.728C75.761,113.804,70.929,117.433,65.241,117.433C59.553,117.433,54.721,113.804,52.927,108.728C52.335,107.036,53.212,105.16,54.924,104.569C56.637,103.977,58.492,104.854,59.084,106.567ZM59.084,106.567"/>
</g>
  <g id="Bold-M" transform="matrix(1.0,0.0,0.0,1.0,2276.0192954282406,1025.5293149594906)">  <path stroke-opacity="1" stroke-linejoin="miter" stroke="none" stroke-linecap="butt" fill="#000000" fill-opacity="1" stroke-width="1px" stroke-miterlimit="4" fill-rule="nonzero" stroke-dasharray="none" d="M61.979,16.31C61.979,14.516,63.447,13.048,65.241,13.048C67.035,13.048,68.503,14.516,68.503,16.31L68.503,19.735C84.996,21.366,97.861,35.271,97.861,52.193L97.861,58.126C97.861,67.035,101.408,75.577,107.708,81.898L108.279,82.468C109.971,84.161,110.93,86.464,110.93,88.85C110.93,93.845,106.893,97.881,101.898,97.881L28.604,97.861C23.609,97.861,19.572,93.824,19.572,88.829C19.572,86.444,20.53,84.14,22.223,82.448L22.793,81.877C29.073,75.577,32.62,67.035,32.62,58.126L32.62,52.193C32.62,35.271,45.485,21.366,61.979,19.735L61.979,16.31ZM65.241,26.096C50.826,26.096,39.144,37.778,39.144,52.193L39.144,58.126C39.144,68.768,34.924,78.982,27.381,86.505L26.83,87.055C26.361,87.524,26.096,88.157,26.096,88.829C26.096,90.216,27.218,91.337,28.604,91.337L101.877,91.337C103.264,91.337,104.385,90.216,104.385,88.829C104.385,88.157,104.12,87.524,103.651,87.055L103.08,86.485C95.557,78.962,91.317,68.748,91.317,58.105L91.317,52.172C91.317,37.758,79.635,26.076,65.22,26.076L65.241,26.096ZM59.084,106.567C59.981,109.095,62.407,110.909,65.241,110.909C68.075,110.909,70.501,109.095,71.398,106.567C71.989,104.874,73.865,103.977,75.557,104.569C77.249,105.16,78.146,107.036,77.555,108.728C75.761,113.804,70.929,117.433,65.241,117.433C59.553,117.433,54.721,113.804,52.927,108.728C52.335,107.036,53.212,105.16,54.924,104.569C56.637,103.977,58.492,104.854,59.084,106.567ZM59.084,106.567"/>
</g>
  <g id="Semibold-M" transform="matrix(1.0,0.0,0.0,1.0,1979.3092954282406,1025.5293149594906)">  <path stroke-miterlimit="4" stroke-linecap="butt" stroke="none" stroke-width="1px" stroke-opacity="1" stroke-dasharray="none" fill-opacity="1" fill-rule="nonzero" fill="#000000" stroke-linejoin="miter" d="M61.979,16.31C61.979,14.516,63.447,13.048,65.241,13.048C67.035,13.048,68.503,14.516,68.503,16.31L68.503,19.735C84.996,21.366,97.861,35.271,97.861,52.193L97.861,58.126C97.861,67.035,101.408,75.577,107.708,81.898L108.279,82.468C109.971,84.161,110.93,86.464,110.93,88.85C110.93,93.845,106.893,97.881,101.898,97.881L28.604,97.861C23.609,97.861,19.572,93.824,19.572,88.829C19.572,86.444,20.53,84.14,22.223,82.448L22.793,81.877C29.073,75.577,32.62,67.035,32.62,58.126L32.62,52.193C32.62,35.271,45.485,21.366,61.979,19.735L61.979,16.31ZM65.241,26.096C50.826,26.096,39.144,37.778,39.144,52.193L39.144,58.126C39.144,68.768,34.924,78.982,27.381,86.505L26.83,87.055C26.361,87.524,26.096,88.157,26.096,88.829C26.096,90.216,27.218,91.337,28.604,91.337L101.877,91.337C103.264,91.337,104.385,90.216,104.385,88.829C104.385,88.157,104.12,87.524,103.651,87.055L103.08,86.485C95.557,78.962,91.317,68.748,91.317,58.105L91.317,52.172C91.317,37.758,79.635,26.076,65.22,26.076L65.241,26.096ZM59.084,106.567C59.981,109.095,62.407,110.909,65.241,110.909C68.075,110.909,70.501,109.095,71.398,106.567C71.989,104.874,73.865,103.977,75.557,104.569C77.249,105.16,78.146,107.036,77.555,108.728C75.761,113.804,70.929,117.433,65.241,117.433C59.553,117.433,54.721,113.804,52.927,108.728C52.335,107.036,53.212,105.16,54.924,104.569C56.637,103.977,58.492,104.854,59.084,106.567ZM59.084,106.567"/>
</g>
  <g id="Medium-M" transform="matrix(1.0,0.0,0.0,1.0,1682.5992954282406,1025.5293149594906)">  <path fill-opacity="1" fill="#000000" stroke-miterlimit="4" stroke-linecap="butt" stroke="none" stroke-linejoin="miter" fill-rule="nonzero" stroke-width="1px" stroke-opacity="1" stroke-dasharray="none" d="M61.979,16.31C61.979,14.516,63.447,13.048,65.241,13.048C67.035,13.048,68.503,14.516,68.503,16.31L68.503,19.735C84.996,21.366,97.861,35.271,97.861,52.193L97.861,58.126C97.861,67.035,101.408,75.577,107.708,81.898L108.279,82.468C109.971,84.161,110.93,86.464,110.93,88.85C110.93,93.845,106.893,97.881,101.898,97.881L28.604,97.861C23.609,97.861,19.572,93.824,19.572,88.829C19.572,86.444,20.53,84.14,22.223,82.448L22.793,81.877C29.073,75.577,32.62,67.035,32.62,58.126L32.62,52.193C32.62,35.271,45.485,21.366,61.979,19.735L61.979,16.31ZM65.241,26.096C50.826,26.096,39.144,37.778,39.144,52.193L39.144,58.126C39.144,68.768,34.924,78.982,27.381,86.505L26.83,87.055C26.361,87.524,26.096,88.157,26.096,88.829C26.096,90.216,27.218,91.337,28.604,91.337L101.877,91.337C103.264,91.337,104.385,90.216,104.385,88.829C104.385,88.157,104.12,87.524,103.651,87.055L103.08,86.485C95.557,78.962,91.317,68.748,91.317,58.105L91.317,52.172C91.317,37.758,79.635,26.076,65.22,26.076L65.241,26.096ZM59.084,106.567C59.981,109.095,62.407,110.909,65.241,110.909C68.075,110.909,70.501,109.095,71.398,106.567C71.989,104.874,73.865,103.977,75.557,104.569C77.249,105.16,78.146,107.036,77.555,108.728C75.761,113.804,70.929,117.433,65.241,117.433C59.553,117.433,54.721,113.804,52.927,108.728C52.335,107.036,53.212,105.16,54.924,104.569C56.637,103.977,58.492,104.854,59.084,106.567ZM59.084,106.567"/>
</g>
  <g id="Regular-M" transform="matrix(1.0,0.0,0.0,1.0,1385.8892954282405,1025.5293149594906)">  <path fill="#000000" stroke-width="1px" stroke="none" stroke-dasharray="none" fill-opacity="1" stroke-linejoin="miter" fill-rule="nonzero" stroke-miterlimit="4" stroke-linecap="butt" stroke-opacity="1" d="M61.979,16.31C61.979,14.516,63.447,13.048,65.241,13.048C67.035,13.048,68.503,14.516,68.503,16.31L68.503,19.735C84.996,21.366,97.861,35.271,97.861,52.193L97.861,58.126C97.861,67.035,101.408,75.577,107.708,81.898L108.279,82.468C109.971,84.161,110.93,86.464,110.93,88.85C110.93,93.845,106.893,97.881,101.898,97.881L28.604,97.861C23.609,97.861,19.572,93.824,19.572,88.829C19.572,86.444,20.53,84.14,22.223,82.448L22.793,81.877C29.073,75.577,32.62,67.035,32.62,58.126L32.62,52.193C32.62,35.271,45.485,21.366,61.979,19.735L61.979,16.31ZM65.241,26.096C50.826,26.096,39.144,37.778,39.144,52.193L39.144,58.126C39.144,68.768,34.924,78.982,27.381,86.505L26.83,87.055C26.361,87.524,26.096,88.157,26.096,88.829C26.096,90.216,27.218,91.337,28.604,91.337L101.877,91.337C103.264,91.337,104.385,90.216,104.385,88.829C104.385,88.157,104.12,87.524,103.651,87.055L103.08,86.485C95.557,78.962,91.317,68.748,91.317,58.105L91.317,52.172C91.317,37.758,79.635,26.076,65.22,26.076L65.241,26.096ZM59.084,106.567C59.981,109.095,62.407,110.909,65.241,110.909C68.075,110.909,70.501,109.095,71.398,106.567C71.989,104.874,73.865,103.977,75.557,104.569C77.249,105.16,78.146,107.036,77.555,108.728C75.761,113.804,70.929,117.433,65.241,117.433C59.553,117.433,54.721,113.804,52.927,108.728C52.335,107.036,53.212,105.16,54.924,104.569C56.637,103.977,58.492,104.854,59.084,106.567ZM59.084,106.567"/>
</g>
  <g id="Light-M" transform="matrix(1.0,0.0,0.0,1.0,1089.1792954282407,1025.5293149594906)">  <path stroke-linejoin="miter" stroke="none" stroke-width="1px" stroke-linecap="butt" fill-rule="nonzero" stroke-miterlimit="4" stroke-opacity="1" stroke-dasharray="none" fill-opacity="1" fill="#000000" d="M61.979,16.31C61.979,14.516,63.447,13.048,65.241,13.048C67.035,13.048,68.503,14.516,68.503,16.31L68.503,19.735C84.996,21.366,97.861,35.271,97.861,52.193L97.861,58.126C97.861,67.035,101.408,75.577,107.708,81.898L108.279,82.468C109.971,84.161,110.93,86.464,110.93,88.85C110.93,93.845,106.893,97.881,101.898,97.881L28.604,97.861C23.609,97.861,19.572,93.824,19.572,88.829C19.572,86.444,20.53,84.14,22.223,82.448L22.793,81.877C29.073,75.577,32.62,67.035,32.62,58.126L32.62,52.193C32.62,35.271,45.485,21.366,61.979,19.735L61.979,16.31ZM65.241,26.096C50.826,26.096,39.144,37.778,39.144,52.193L39.144,58.126C39.144,68.768,34.924,78.982,27.381,86.505L26.83,87.055C26.361,87.524,26.096,88.157,26.096,88.829C26.096,90.216,27.218,91.337,28.604,91.337L101.877,91.337C103.264,91.337,104.385,90.216,104.385,88.829C104.385,88.157,104.12,87.524,103.651,87.055L103.08,86.485C95.557,78.962,91.317,68.748,91.317,58.105L91.317,52.172C91.317,37.758,79.635,26.076,65.22,26.076L65.241,26.096ZM59.084,106.567C59.981,109.095,62.407,110.909,65.241,110.909C68.075,110.909,70.501,109.095,71.398,106.567C71.989,104.874,73.865,103.977,75.557,104.569C77.249,105.16,78.146,107.036,77.555,108.728C75.761,113.804,70.929,117.433,65.241,117.433C59.553,117.433,54.721,113.804,52.927,108.728C52.335,107.036,53.212,105.16,54.924,104.569C56.637,103.977,58.492,104.854,59.084,106.567ZM59.084,106.567"/>
</g>
  <g id="Thin-M" transform="matrix(1.0,0.0,0.0,1.0,792.4692954282408,1025.5293149594906)">  <path stroke-linejoin="miter" stroke-dasharray="none" stroke-width="1px" fill-opacity="1" stroke="none" fill="#000000" stroke-linecap="butt" stroke-miterlimit="4" stroke-opacity="1" fill-rule="nonzero" d="M61.979,16.31C61.979,14.516,63.447,13.048,65.241,13.048C67.035,13.048,68.503,14.516,68.503,16.31L68.503,19.735C84.996,21.366,97.861,35.271,97.861,52.193L97.861,58.126C97.861,67.035,101.408,75.577,107.708,81.898L108.279,82.468C109.971,84.161,110.93,86.464,110.93,88.85C110.93,93.845,106.893,97.881,101.898,97.881L28.604,97.861C23.609,97.861,19.572,93.824,19.572,88.829C19.572,86.444,20.53,84.14,22.223,82.448L22.793,81.877C29.073,75.577,32.62,67.035,32.62,58.126L32.62,52.193C32.62,35.271,45.485,21.366,61.979,19.735L61.979,16.31ZM65.241,26.096C50.826,26.096,39.144,37.778,39.144,52.193L39.144,58.126C39.144,68.768,34.924,78.982,27.381,86.505L26.83,87.055C26.361,87.524,26.096,88.157,26.096,88.829C26.096,90.216,27.218,91.337,28.604,91.337L101.877,91.337C103.264,91.337,104.385,90.216,104.385,88.829C104.385,88.157,104.12,87.524,103.651,87.055L103.08,86.485C95.557,78.962,91.317,68.748,91.317,58.105L91.317,52.172C91.317,37.758,79.635,26.076,65.22,26.076L65.241,26.096ZM59.084,106.567C59.981,109.095,62.407,110.909,65.241,110.909C68.075,110.909,70.501,109.095,71.398,106.567C71.989,104.874,73.865,103.977,75.557,104.569C77.249,105.16,78.146,107.036,77.555,108.728C75.761,113.804,70.929,117.433,65.241,117.433C59.553,117.433,54.721,113.804,52.927,108.728C52.335,107.036,53.212,105.16,54.924,104.569C56.637,103.977,58.492,104.854,59.084,106.567ZM59.084,106.567"/>
</g>
  <g id="Ultralight-M" transform="matrix(1.0,0.0,0.0,1.0,495.75929542824076,1025.5293149594906)">  <path fill-rule="nonzero" stroke-linecap="butt" stroke-opacity="1" fill-opacity="1" stroke-linejoin="miter" stroke-miterlimit="4" fill="#000000" stroke="none" stroke-dasharray="none" stroke-width="1px" d="M61.979,16.31C61.979,14.516,63.447,13.048,65.241,13.048C67.035,13.048,68.503,14.516,68.503,16.31L68.503,19.735C84.996,21.366,97.861,35.271,97.861,52.193L97.861,58.126C97.861,67.035,101.408,75.577,107.708,81.898L108.279,82.468C109.971,84.161,110.93,86.464,110.93,88.85C110.93,93.845,106.893,97.881,101.898,97.881L28.604,97.861C23.609,97.861,19.572,93.824,19.572,88.829C19.572,86.444,20.53,84.14,22.223,82.448L22.793,81.877C29.073,75.577,32.62,67.035,32.62,58.126L32.62,52.193C32.62,35.271,45.485,21.366,61.979,19.735L61.979,16.31ZM65.241,26.096C50.826,26.096,39.144,37.778,39.144,52.193L39.144,58.126C39.144,68.768,34.924,78.982,27.381,86.505L26.83,87.055C26.361,87.524,26.096,88.157,26.096,88.829C26.096,90.216,27.218,91.337,28.604,91.337L101.877,91.337C103.264,91.337,104.385,90.216,104.385,88.829C104.385,88.157,104.12,87.524,103.651,87.055L103.08,86.485C95.557,78.962,91.317,68.748,91.317,58.105L91.317,52.172C91.317,37.758,79.635,26.076,65.22,26.076L65.241,26.096ZM59.084,106.567C59.981,109.095,62.407,110.909,65.241,110.909C68.075,110.909,70.501,109.095,71.398,106.567C71.989,104.874,73.865,103.977,75.557,104.569C77.249,105.16,78.146,107.036,77.555,108.728C75.761,113.804,70.929,117.433,65.241,117.433C59.553,117.433,54.721,113.804,52.927,108.728C52.335,107.036,53.212,105.16,54.924,104.569C56.637,103.977,58.492,104.854,59.084,106.567ZM59.084,106.567"/>
</g>
  <g id="Black-S" transform="matrix(1.0,0.0,0.0,1.0,2883.5965283203122,609.6865478515625)">  <path stroke-miterlimit="4" stroke-dasharray="none" fill-opacity="1" stroke-width="1px" stroke-opacity="1" fill="#000000" stroke="none" stroke-linejoin="miter" fill-rule="nonzero" stroke-linecap="butt" d="M48.529,12.771C48.529,11.366,49.679,10.217,51.083,10.217C52.488,10.217,53.638,11.366,53.638,12.771L53.638,15.453C66.552,16.73,76.625,27.617,76.625,40.867L76.625,45.512C76.625,52.488,79.403,59.177,84.336,64.126L84.783,64.573C86.108,65.898,86.858,67.702,86.858,69.569C86.858,73.481,83.697,76.641,79.786,76.641L22.397,76.625C18.486,76.625,15.325,73.465,15.325,69.553C15.325,67.686,16.075,65.882,17.4,64.557L17.847,64.11C22.764,59.177,25.542,52.488,25.542,45.512L25.542,40.867C25.542,27.617,35.615,16.73,48.529,15.453L48.529,12.771ZM51.083,20.433C39.797,20.433,30.65,29.581,30.65,40.867L30.65,45.512C30.65,53.845,27.346,61.843,21.439,67.734L21.008,68.164C20.641,68.532,20.433,69.027,20.433,69.553C20.433,70.639,21.311,71.517,22.397,71.517L79.77,71.517C80.856,71.517,81.734,70.639,81.734,69.553C81.734,69.027,81.526,68.532,81.159,68.164L80.712,67.718C74.821,61.827,71.501,53.829,71.501,45.496L71.501,40.851C71.501,29.565,62.354,20.417,51.067,20.417L51.083,20.433ZM46.263,83.442C46.965,85.421,48.864,86.842,51.083,86.842C53.303,86.842,55.202,85.421,55.904,83.442C56.368,82.117,57.836,81.414,59.161,81.877C60.486,82.34,61.188,83.809,60.725,85.134C59.321,89.109,55.537,91.95,51.083,91.95C46.63,91.95,42.846,89.109,41.442,85.134C40.978,83.809,41.665,82.34,43.006,81.877C44.347,81.414,45.799,82.101,46.263,83.442ZM46.263,83.442"/>
</g>
  <g id="Heavy-S" transform="matrix(1.0,0.0,0.0,1.0,2586.886528320312,609.6865478515625)">  <path stroke-linecap="butt" fill-opacity="1" fill-rule="nonzero" stroke-miterlimit="4" stroke-dasharray="none" stroke-opacity="1" fill="#000000" stroke-width="1px" stroke-linejoin="miter" stroke="none" d="M48.529,12.771C48.529,11.366,49.679,10.217,51.083,10.217C52.488,10.217,53.638,11.366,53.638,12.771L53.638,15.453C66.552,16.73,76.625,27.617,76.625,40.867L76.625,45.512C76.625,52.488,79.403,59.177,84.336,64.126L84.783,64.573C86.108,65.898,86.858,67.702,86.858,69.569C86.858,73.481,83.697,76.641,79.786,76.641L22.397,76.625C18.486,76.625,15.325,73.465,15.325,69.553C15.325,67.686,16.075,65.882,17.4,64.557L17.847,64.11C22.764,59.177,25.542,52.488,25.542,45.512L25.542,40.867C25.542,27.617,35.615,16.73,48.529,15.453L48.529,12.771ZM51.083,20.433C39.797,20.433,30.65,29.581,30.65,40.867L30.65,45.512C30.65,53.845,27.346,61.843,21.439,67.734L21.008,68.164C20.641,68.532,20.433,69.027,20.433,69.553C20.433,70.639,21.311,71.517,22.397,71.517L79.77,71.517C80.856,71.517,81.734,70.639,81.734,69.553C81.734,69.027,81.526,68.532,81.159,68.164L80.712,67.718C74.821,61.827,71.501,53.829,71.501,45.496L71.501,40.851C71.501,29.565,62.354,20.417,51.067,20.417L51.083,20.433ZM46.263,83.442C46.965,85.421,48.864,86.842,51.083,86.842C53.303,86.842,55.202,85.421,55.904,83.442C56.368,82.117,57.836,81.414,59.161,81.877C60.486,82.34,61.188,83.809,60.725,85.134C59.321,89.109,55.537,91.95,51.083,91.95C46.63,91.95,42.846,89.109,41.442,85.134C40.978,83.809,41.665,82.34,43.006,81.877C44.347,81.414,45.799,82.101,46.263,83.442ZM46.263,83.442"/>
</g>
  <g id="Bold-S" transform="matrix(1.0,0.0,0.0,1.0,2290.176528320312,609.6865478515625)">  <path stroke-opacity="1" stroke-linejoin="miter" stroke="none" stroke-linecap="butt" fill="#000000" fill-opacity="1" stroke-width="1px" stroke-miterlimit="4" fill-rule="nonzero" stroke-dasharray="none" d="M48.529,12.771C48.529,11.366,49.679,10.217,51.083,10.217C52.488,10.217,53.638,11.366,53.638,12.771L53.638,15.453C66.552,16.73,76.625,27.617,76.625,40.867L76.625,45.512C76.625,52.488,79.403,59.177,84.336,64.126L84.783,64.573C86.108,65.898,86.858,67.702,86.858,69.569C86.858,73.481,83.697,76.641,79.786,76.641L22.397,76.625C18.486,76.625,15.325,73.465,15.325,69.553C15.325,67.686,16.075,65.882,17.4,64.557L17.847,64.11C22.764,59.177,25.542,52.488,25.542,45.512L25.542,40.867C25.542,27.617,35.615,16.73,48.529,15.453L48.529,12.771ZM51.083,20.433C39.797,20.433,30.65,29.581,30.65,40.867L30.65,45.512C30.65,53.845,27.346,61.843,21.439,67.734L21.008,68.164C20.641,68.532,20.433,69.027,20.433,69.553C20.433,70.639,21.311,71.517,22.397,71.517L79.77,71.517C80.856,71.517,81.734,70.639,81.734,69.553C81.734,69.027,81.526,68.532,81.159,68.164L80.712,67.718C74.821,61.827,71.501,53.829,71.501,45.496L71.501,40.851C71.501,29.565,62.354,20.417,51.067,20.417L51.083,20.433ZM46.263,83.442C46.965,85.421,48.864,86.842,51.083,86.842C53.303,86.842,55.202,85.421,55.904,83.442C56.368,82.117,57.836,81.414,59.161,81.877C60.486,82.34,61.188,83.809,60.725,85.134C59.321,89.109,55.537,91.95,51.083,91.95C46.63,91.95,42.846,89.109,41.442,85.134C40.978,83.809,41.665,82.34,43.006,81.877C44.347,81.414,45.799,82.101,46.263,83.442ZM46.263,83.442"/>
</g>
  <g id="Semibold-S" transform="matrix(1.0,0.0,0.0,1.0,1993.4665283203124,609.6865478515625)">  <path stroke-miterlimit="4" stroke-linecap="butt" stroke="none" stroke-width="1px" stroke-opacity="1" stroke-dasharray="none" fill-opacity="1" fill-rule="nonzero" fill="#000000" stroke-linejoin="miter" d="M48.529,12.771C48.529,11.366,49.679,10.217,51.083,10.217C52.488,10.217,53.638,11.366,53.638,12.771L53.638,15.453C66.552,16.73,76.625,27.617,76.625,40.867L76.625,45.512C76.625,52.488,79.403,59.177,84.336,64.126L84.783,64.573C86.108,65.898,86.858,67.702,86.858,69.569C86.858,73.481,83.697,76.641,79.786,76.641L22.397,76.625C18.486,76.625,15.325,73.465,15.325,69.553C15.325,67.686,16.075,65.882,17.4,64.557L17.847,64.11C22.764,59.177,25.542,52.488,25.542,45.512L25.542,40.867C25.542,27.617,35.615,16.73,48.529,15.453L48.529,12.771ZM51.083,20.433C39.797,20.433,30.65,29.581,30.65,40.867L30.65,45.512C30.65,53.845,27.346,61.843,21.439,67.734L21.008,68.164C20.641,68.532,20.433,69.027,20.433,69.553C20.433,70.639,21.311,71.517,22.397,71.517L79.77,71.517C80.856,71.517,81.734,70.639,81.734,69.553C81.734,69.027,81.526,68.532,81.159,68.164L80.712,67.718C74.821,61.827,71.501,53.829,71.501,45.496L71.501,40.851C71.501,29.565,62.354,20.417,51.067,20.417L51.083,20.433ZM46.263,83.442C46.965,85.421,48.864,86.842,51.083,86.842C53.303,86.842,55.202,85.421,55.904,83.442C56.368,82.117,57.836,81.414,59.161,81.877C60.486,82.34,61.188,83.809,60.725,85.134C59.321,89.109,55.537,91.95,51.083,91.95C46.63,91.95,42.846,89.109,41.442,85.134C40.978,83.809,41.665,82.34,43.006,81.877C44.347,81.414,45.799,82.101,46.263,83.442ZM46.263,83.442"/>
</g>
  <g id="Medium-S" transform="matrix(1.0,0.0,0.0,1.0,1696.7565283203123,609.6865478515625)">  <path fill-opacity="1" fill="#000000" stroke-miterlimit="4" stroke-linecap="butt" stroke="none" stroke-linejoin="miter" fill-rule="nonzero" stroke-width="1px" stroke-opacity="1" stroke-dasharray="none" d="M48.529,12.771C48.529,11.366,49.679,10.217,51.083,10.217C52.488,10.217,53.638,11.366,53.638,12.771L53.638,15.453C66.552,16.73,76.625,27.617,76.625,40.867L76.625,45.512C76.625,52.488,79.403,59.177,84.336,64.126L84.783,64.573C86.108,65.898,86.858,67.702,86.858,69.569C86.858,73.481,83.697,76.641,79.786,76.641L22.397,76.625C18.486,76.625,15.325,73.465,15.325,69.553C15.325,67.686,16.075,65.882,17.4,64.557L17.847,64.11C22.764,59.177,25.542,52.488,25.542,45.512L25.542,40.867C25.542,27.617,35.615,16.73,48.529,15.453L48.529,12.771ZM51.083,20.433C39.797,20.433,30.65,29.581,30.65,40.867L30.65,45.512C30.65,53.845,27.346,61.843,21.439,67.734L21.008,68.164C20.641,68.532,20.433,69.027,20.433,69.553C20.433,70.639,21.311,71.517,22.397,71.517L79.77,71.517C80.856,71.517,81.734,70.639,81.734,69.553C81.734,69.027,81.526,68.532,81.159,68.164L80.712,67.718C74.821,61.827,71.501,53.829,71.501,45.496L71.501,40.851C71.501,29.565,62.354,20.417,51.067,20.417L51.083,20.433ZM46.263,83.442C46.965,85.421,48.864,86.842,51.083,86.842C53.303,86.842,55.202,85.421,55.904,83.442C56.368,82.117,57.836,81.414,59.161,81.877C60.486,82.34,61.188,83.809,60.725,85.134C59.321,89.109,55.537,91.95,51.083,91.95C46.63,91.95,42.846,89.109,41.442,85.134C40.978,83.809,41.665,82.34,43.006,81.877C44.347,81.414,45.799,82.101,46.263,83.442ZM46.263,83.442"/>
</g>
  <g id="Regular-S" transform="matrix(1.0,0.0,0.0,1.0,1400.0465283203123,609.6865478515625)">  <path fill="#000000" stroke-width="1px" stroke="none" stroke-dasharray="none" fill-opacity="1" stroke-linejoin="miter" fill-rule="nonzero" stroke-miterlimit="4" stroke-linecap="butt" stroke-opacity="1" d="M48.529,12.771C48.529,11.366,49.679,10.217,51.083,10.217C52.488,10.217,53.638,11.366,53.638,12.771L53.638,15.453C66.552,16.73,76.625,27.617,76.625,40.867L76.625,45.512C76.625,52.488,79.403,59.177,84.336,64.126L84.783,64.573C86.108,65.898,86.858,67.702,86.858,69.569C86.858,73.481,83.697,76.641,79.786,76.641L22.397,76.625C18.486,76.625,15.325,73.465,15.325,69.553C15.325,67.686,16.075,65.882,17.4,64.557L17.847,64.11C22.764,59.177,25.542,52.488,25.542,45.512L25.542,40.867C25.542,27.617,35.615,16.73,48.529,15.453L48.529,12.771ZM51.083,20.433C39.797,20.433,30.65,29.581,30.65,40.867L30.65,45.512C30.65,53.845,27.346,61.843,21.439,67.734L21.008,68.164C20.641,68.532,20.433,69.027,20.433,69.553C20.433,70.639,21.311,71.517,22.397,71.517L79.77,71.517C80.856,71.517,81.734,70.639,81.734,69.553C81.734,69.027,81.526,68.532,81.159,68.164L80.712,67.718C74.821,61.827,71.501,53.829,71.501,45.496L71.501,40.851C71.501,29.565,62.354,20.417,51.067,20.417L51.083,20.433ZM46.263,83.442C46.965,85.421,48.864,86.842,51.083,86.842C53.303,86.842,55.202,85.421,55.904,83.442C56.368,82.117,57.836,81.414,59.161,81.877C60.486,82.34,61.188,83.809,60.725,85.134C59.321,89.109,55.537,91.95,51.083,91.95C46.63,91.95,42.846,89.109,41.442,85.134C40.978,83.809,41.665,82.34,43.006,81.877C44.347,81.414,45.799,82.101,46.263,83.442ZM46.263,83.442"/>
</g>
  <g id="Light-S" transform="matrix(1.0,0.0,0.0,1.0,1103.3365283203125,609.6865478515625)">  <path stroke-linejoin="miter" stroke="none" stroke-width="1px" stroke-linecap="butt" fill-rule="nonzero" stroke-miterlimit="4" stroke-opacity="1" stroke-dasharray="none" fill-opacity="1" fill="#000000" d="M48.529,12.771C48.529,11.366,49.679,10.217,51.083,10.217C52.488,10.217,53.638,11.366,53.638,12.771L53.638,15.453C66.552,16.73,76.625,27.617,76.625,40.867L76.625,45.512C76.625,52.488,79.403,59.177,84.336,64.126L84.783,64.573C86.108,65.898,86.858,67.702,86.858,69.569C86.858,73.481,83.697,76.641,79.786,76.641L22.397,76.625C18.486,76.625,15.325,73.465,15.325,69.553C15.325,67.686,16.075,65.882,17.4,64.557L17.847,64.11C22.764,59.177,25.542,52.488,25.542,45.512L25.542,40.867C25.542,27.617,35.615,16.73,48.529,15.453L48.529,12.771ZM51.083,20.433C39.797,20.433,30.65,29.581,30.65,40.867L30.65,45.512C30.65,53.845,27.346,61.843,21.439,67.734L21.008,68.164C20.641,68.532,20.433,69.027,20.433,69.553C20.433,70.639,21.311,71.517,22.397,71.517L79.77,71.517C80.856,71.517,81.734,70.639,81.734,69.553C81.734,69.027,81.526,68.532,81.159,68.164L80.712,67.718C74.821,61.827,71.501,53.829,71.501,45.496L71.501,40.851C71.501,29.565,62.354,20.417,51.067,20.417L51.083,20.433ZM46.263,83.442C46.965,85.421,48.864,86.842,51.083,86.842C53.303,86.842,55.202,85.421,55.904,83.442C56.368,82.117,57.836,81.414,59.161,81.877C60.486,82.34,61.188,83.809,60.725,85.134C59.321,89.109,55.537,91.95,51.083,91.95C46.63,91.95,42.846,89.109,41.442,85.134C40.978,83.809,41.665,82.34,43.006,81.877C44.347,81.414,45.799,82.101,46.263,83.442ZM46.263,83.442"/>
</g>
  <g id="Thin-S" transform="matrix(1.0,0.0,0.0,1.0,806.6265283203126,609.6865478515625)">  <path stroke-linejoin="miter" stroke-dasharray="none" stroke-width="1px" fill-opacity="1" stroke="none" fill="#000000" stroke-linecap="butt" stroke-miterlimit="4" stroke-opacity="1" fill-rule="nonzero" d="M48.529,12.771C48.529,11.366,49.679,10.217,51.083,10.217C52.488,10.217,53.638,11.366,53.638,12.771L53.638,15.453C66.552,16.73,76.625,27.617,76.625,40.867L76.625,45.512C76.625,52.488,79.403,59.177,84.336,64.126L84.783,64.573C86.108,65.898,86.858,67.702,86.858,69.569C86.858,73.481,83.697,76.641,79.786,76.641L22.397,76.625C18.486,76.625,15.325,73.465,15.325,69.553C15.325,67.686,16.075,65.882,17.4,64.557L17.847,64.11C22.764,59.177,25.542,52.488,25.542,45.512L25.542,40.867C25.542,27.617,35.615,16.73,48.529,15.453L48.529,12.771ZM51.083,20.433C39.797,20.433,30.65,29.581,30.65,40.867L30.65,45.512C30.65,53.845,27.346,61.843,21.439,67.734L21.008,68.164C20.641,68.532,20.433,69.027,20.433,69.553C20.433,70.639,21.311,71.517,22.397,71.517L79.77,71.517C80.856,71.517,81.734,70.639,81.734,69.553C81.734,69.027,81.526,68.532,81.159,68.164L80.712,67.718C74.821,61.827,71.501,53.829,71.501,45.496L71.501,40.851C71.501,29.565,62.354,20.417,51.067,20.417L51.083,20.433ZM46.263,83.442C46.965,85.421,48.864,86.842,51.083,86.842C53.303,86.842,55.202,85.421,55.904,83.442C56.368,82.117,57.836,81.414,59.161,81.877C60.486,82.34,61.188,83.809,60.725,85.134C59.321,89.109,55.537,91.95,51.083,91.95C46.63,91.95,42.846,89.109,41.442,85.134C40.978,83.809,41.665,82.34,43.006,81.877C44.347,81.414,45.799,82.101,46.263,83.442ZM46.263,83.442"/>
</g>
  <g id="Ultralight-S" transform="matrix(1.0,0.0,0.0,1.0,509.9165283203125,609.6865478515625)">  <path fill-rule="nonzero" stroke-linecap="butt" stroke-opacity="1" fill-opacity="1" stroke-linejoin="miter" stroke-miterlimit="4" fill="#000000" stroke="none" stroke-dasharray="none" stroke-width="1px" d="M48.529,12.771C48.529,11.366,49.679,10.217,51.083,10.217C52.488,10.217,53.638,11.366,53.638,12.771L53.638,15.453C66.552,16.73,76.625,27.617,76.625,40.867L76.625,45.512C76.625,52.488,79.403,59.177,84.336,64.126L84.783,64.573C86.108,65.898,86.858,67.702,86.858,69.569C86.858,73.481,83.697,76.641,79.786,76.641L22.397,76.625C18.486,76.625,15.325,73.465,15.325,69.553C15.325,67.686,16.075,65.882,17.4,64.557L17.847,64.11C22.764,59.177,25.542,52.488,25.542,45.512L25.542,40.867C25.542,27.617,35.615,16.73,48.529,15.453L48.529,12.771ZM51.083,20.433C39.797,20.433,30.65,29.581,30.65,40.867L30.65,45.512C30.65,53.845,27.346,61.843,21.439,67.734L21.008,68.164C20.641,68.532,20.433,69.027,20.433,69.553C20.433,70.639,21.311,71.517,22.397,71.517L79.77,71.517C80.856,71.517,81.734,70.639,81.734,69.553C81.734,69.027,81.526,68.532,81.159,68.164L80.712,67.718C74.821,61.827,71.501,53.829,71.501,45.496L71.501,40.851C71.501,29.565,62.354,20.417,51.067,20.417L51.083,20.433ZM46.263,83.442C46.965,85.421,48.864,86.842,51.083,86.842C53.303,86.842,55.202,85.421,55.904,83.442C56.368,82.117,57.836,81.414,59.161,81.877C60.486,82.34,61.188,83.809,60.725,85.134C59.321,89.109,55.537,91.95,51.083,91.95C46.63,91.95,42.846,89.109,41.442,85.134C40.978,83.809,41.665,82.34,43.006,81.877C44.347,81.414,45.799,82.101,46.263,83.442ZM46.263,83.442"/>
</g>
 </g>
</svg>
