<?xml version="1.0" encoding="UTF-8"?>
<!-- Generator: CustomSymbols v2.7.3.49 by @serious_bret https://bretlester.com/app_content/CustomSymbols/ -->
<!-- Guides: Left/Right 0.0/0.0 Cap/Base 0.231/0.231 -->
<!-- Settings: RefScale 1.0 Min/Max Stroke Scales 0.5/2.21 -->
<!DOCTYPE svg
PUBLIC "-//W3C//DTD SVG 1.1//EN"
       "http://www.w3.org/Graphics/SVG/1.1/DTD/svg11.dtd">
<svg version="1.1" xmlns="http://www.w3.org/2000/svg" xmlns:xlink="http://www.w3.org/1999/xlink" width="3300" height="2200">
<![CDATA[<svg width="30" height="30" viewBox="0 0 30 30" fill="none" xmlns="http://www.w3.org/2000/svg">
<path d="M21 12.75C21 11.6666 20.7866 10.5938 20.372 9.59286C19.9574 8.59193 19.3497 7.68245 18.5836 6.91637C17.8175 6.15029 16.9081 5.5426 15.9071 5.12799C14.9062 4.71339 13.8334 4.5 12.75 4.5C11.6666 4.5 10.5938 4.71339 9.59286 5.12799C8.59193 5.5426 7.68245 6.15029 6.91637 6.91637C6.15029 7.68245 5.5426 8.59193 5.12799 9.59286C4.71339 10.5938 4.5 11.6666 4.5 12.75C4.5 13.8334 4.71339 14.9062 5.12799 15.9071C5.5426 16.9081 6.15029 17.8175 6.91637 18.5836C7.68245 19.3497 8.59193 19.9574 9.59286 20.372C10.5938 20.7866 11.6666 21 12.75 21C13.8334 21 14.9062 20.7866 15.9071 20.372C16.9081 19.9574 17.8175 19.3497 18.5836 18.5836C19.3497 17.8175 19.9574 16.9081 20.372 15.9071C20.7866 14.9062 21 13.8334 21 12.75ZM19.0922 20.1562C17.3906 21.6188 15.1734 22.5 12.75 22.5C7.36406 22.5 3 18.1359 3 12.75C3 7.36406 7.36406 3 12.75 3C18.1359 3 22.5 7.36406 22.5 12.75C22.5 15.1734 21.6188 17.3906 20.1562 19.0922L26.7797 25.7203C27.0703 26.0109 27.0703 26.4891 26.7797 26.7797C26.4891 27.0703 26.0109 27.0703 25.7203 26.7797L19.0922 20.1562Z" fill="#5E6278"/>
</svg>
]]>
 <g id="Notes">
  <rect height="2200" id="artboard" style="fill:white;opacity:1" width="3300" x="0" y="0"/>
  <line id="" style="fill:none;stroke:black;opacity:1;stroke-width:0.5;" x1="263" x2="3036" y1="292" y2="292"/>
  <text id="reftext1" style="stroke:none;fill:black;font-family:-apple-system,&quot;SF Pro Display&quot;,&quot;SF Pro Text&quot;,Helvetica,sans-serif;font-weight:bold;" transform="matrix(1 0 0 1 263 322)">Weight/Scale Variations</text>
  <text id="reftext2" style="stroke:none;fill:black;font-family:-apple-system,&quot;SF Pro Display&quot;,&quot;SF Pro Text&quot;,Helvetica,sans-serif;text-anchor:middle;" transform="matrix(1 0 0 1 559.711 322)">Ultralight</text>
  <text style="stroke:none;fill:black;font-family:-apple-system,&quot;SF Pro Display&quot;,&quot;SF Pro Text&quot;,Helvetica,sans-serif;text-anchor:middle;" transform="matrix(1 0 0 1 856.422 322)">Thin</text>
  <text style="stroke:none;fill:black;font-family:-apple-system,&quot;SF Pro Display&quot;,&quot;SF Pro Text&quot;,Helvetica,sans-serif;text-anchor:middle;" transform="matrix(1 0 0 1 1153.13 322)">Light</text>
  <text style="stroke:none;fill:black;font-family:-apple-system,&quot;SF Pro Display&quot;,&quot;SF Pro Text&quot;,Helvetica,sans-serif;text-anchor:middle;" transform="matrix(1 0 0 1 1449.84 322)">Regular</text>
  <text style="stroke:none;fill:black;font-family:-apple-system,&quot;SF Pro Display&quot;,&quot;SF Pro Text&quot;,Helvetica,sans-serif;text-anchor:middle;" transform="matrix(1 0 0 1 1746.56 322)">Medium</text>
  <text style="stroke:none;fill:black;font-family:-apple-system,&quot;SF Pro Display&quot;,&quot;SF Pro Text&quot;,Helvetica,sans-serif;text-anchor:middle;" transform="matrix(1 0 0 1 2043.27 322)">Semibold</text>
  <text style="stroke:none;fill:black;font-family:-apple-system,&quot;SF Pro Display&quot;,&quot;SF Pro Text&quot;,Helvetica,sans-serif;text-anchor:middle;" transform="matrix(1 0 0 1 2339.98 322)">Bold</text>
  <text style="stroke:none;fill:black;font-family:-apple-system,&quot;SF Pro Display&quot;,&quot;SF Pro Text&quot;,Helvetica,sans-serif;text-anchor:middle;" transform="matrix(1 0 0 1 2636.69 322)">Heavy</text>
  <text style="stroke:none;fill:black;font-family:-apple-system,&quot;SF Pro Display&quot;,&quot;SF Pro Text&quot;,Helvetica,sans-serif;text-anchor:middle;" transform="matrix(1 0 0 1 2933.4 322)">Black</text>
  <line id="" style="fill:none;stroke:black;opacity:1;stroke-width:0.5;" x1="263" x2="3036" y1="1903" y2="1903"/>
  <g id="" transform="matrix(1 0 0 1 263 1933)">
   <path d="M9.24805 0.830078C13.5547 0.830078 17.1387-2.74414 17.1387-7.05078C17.1387-11.3574 13.5449-14.9316 9.23828-14.9316C4.94141-14.9316 1.36719-11.3574 1.36719-7.05078C1.36719-2.74414 4.95117 0.830078 9.24805 0.830078ZM9.24805-0.654297C5.70312-0.654297 2.87109-3.49609 2.87109-7.05078C2.87109-10.6055 5.69336-13.4473 9.23828-13.4473C12.793-13.4473 15.6348-10.6055 15.6445-7.05078C15.6543-3.49609 12.8027-0.654297 9.24805-0.654297ZM6.39648-6.31836L8.50586-6.31836L8.50586-4.19922C8.50586-3.75977 8.79883-3.45703 9.22852-3.45703C9.67773-3.45703 9.9707-3.75977 9.9707-4.19922L9.9707-6.31836L12.0996-6.31836C12.5391-6.31836 12.8418-6.61133 12.8418-7.04102C12.8418-7.48047 12.5391-7.7832 12.0996-7.7832L9.9707-7.7832L9.9707-9.89258C9.9707-10.3418 9.67773-10.6445 9.22852-10.6445C8.79883-10.6445 8.50586-10.3418 8.50586-9.89258L8.50586-7.7832L6.39648-7.7832C5.94727-7.7832 5.64453-7.48047 5.64453-7.04102C5.64453-6.61133 5.94727-6.31836 6.39648-6.31836Z"/>
  </g>
  <g id="" transform="matrix(1 0 0 1 281.506 1933)">
   <path d="M11.709 2.91016C17.1582 2.91016 21.6699-1.61133 21.6699-7.05078C21.6699-12.5 17.1484-17.0117 11.6992-17.0117C6.25977-17.0117 1.74805-12.5 1.74805-7.05078C1.74805-1.61133 6.26953 2.91016 11.709 2.91016ZM11.709 1.25C7.09961 1.25 3.41797-2.44141 3.41797-7.05078C3.41797-11.6602 7.08984-15.3516 11.6992-15.3516C16.3086-15.3516 20-11.6602 20.0098-7.05078C20.0195-2.44141 16.3184 1.25 11.709 1.25ZM7.98828-6.23047L10.8789-6.23047L10.8789-3.32031C10.8789-2.83203 11.2109-2.5 11.6895-2.5C12.1777-2.5 12.5195-2.83203 12.5195-3.32031L12.5195-6.23047L15.4297-6.23047C15.918-6.23047 16.25-6.5625 16.25-7.04102C16.25-7.5293 15.918-7.87109 15.4297-7.87109L12.5195-7.87109L12.5195-10.7617C12.5195-11.2695 12.1777-11.6016 11.6895-11.6016C11.2109-11.6016 10.8789-11.2598 10.8789-10.7617L10.8789-7.87109L7.98828-7.87109C7.48047-7.87109 7.14844-7.5293 7.14844-7.04102C7.14844-6.5625 7.49023-6.23047 7.98828-6.23047Z"/>
  </g>
  <g id="" transform="matrix(1 0 0 1 304.924 1933)">
   <path d="M14.9707 5.66406C21.9336 5.66406 27.6953-0.0976562 27.6953-7.05078C27.6953-14.0137 21.9238-19.7754 14.9609-19.7754C8.00781-19.7754 2.25586-14.0137 2.25586-7.05078C2.25586-0.0976562 8.01758 5.66406 14.9707 5.66406ZM14.9707 3.84766C8.93555 3.84766 4.08203-1.01562 4.08203-7.05078C4.08203-13.0957 8.92578-17.9492 14.9609-17.9492C21.0059-17.9492 25.8594-13.0957 25.8691-7.05078C25.8789-1.01562 21.0156 3.84766 14.9707 3.84766ZM10.0586-6.14258L14.0625-6.14258L14.0625-2.12891C14.0625-1.5918 14.4336-1.2207 14.9512-1.2207C15.4883-1.2207 15.8594-1.5918 15.8594-2.12891L15.8594-6.14258L19.8828-6.14258C20.4102-6.14258 20.791-6.51367 20.791-7.03125C20.791-7.56836 20.4199-7.94922 19.8828-7.94922L15.8594-7.94922L15.8594-11.9531C15.8594-12.5098 15.4883-12.8809 14.9512-12.8809C14.4336-12.8809 14.0625-12.5 14.0625-11.9531L14.0625-7.94922L10.0586-7.94922C9.50195-7.94922 9.13086-7.56836 9.13086-7.03125C9.13086-6.51367 9.51172-6.14258 10.0586-6.14258Z"/>
  </g>
  <text style="stroke:none;fill:black;font-family:-apple-system,&quot;SF Pro Display&quot;,&quot;SF Pro Text&quot;,Helvetica,sans-serif;font-weight:bold;" transform="matrix(1 0 0 1 263 1953)">Design Variations</text>
  <text style="stroke:none;fill:black;font-family:-apple-system,&quot;SF Pro Display&quot;,&quot;SF Pro Text&quot;,Helvetica,sans-serif;" transform="matrix(1 0 0 1 263 1971)">Symbols are supported in up to nine weights and three scales.</text>
  <text style="stroke:none;fill:black;font-family:-apple-system,&quot;SF Pro Display&quot;,&quot;SF Pro Text&quot;,Helvetica,sans-serif;" transform="matrix(1 0 0 1 263 1989)">For optimal layout with text and other symbols, vertically align</text>
  <text style="stroke:none;fill:black;font-family:-apple-system,&quot;SF Pro Display&quot;,&quot;SF Pro Text&quot;,Helvetica,sans-serif;" transform="matrix(1 0 0 1 263 2007)">symbols with the adjacent text.</text>
  <line id="" style="fill:none;stroke:#00AEEF;stroke-width:0.5;opacity:1.0;" x1="776" x2="776" y1="1919" y2="1933"/>
  <g id="" transform="matrix(1 0 0 1 776 1933)">
   <path d="M3.31055 0.126953C3.82812 0.126953 4.08203-0.0683594 4.26758-0.605469L5.52734-4.0625L11.2891-4.0625L12.5488-0.605469C12.7344-0.0683594 12.9883 0.126953 13.4961 0.126953C14.0137 0.126953 14.3457-0.185547 14.3457-0.673828C14.3457-0.839844 14.3164-0.986328 14.2383-1.20117L9.6582-13.3887C9.43359-13.9941 9.0332-14.2871 8.4082-14.2871C7.80273-14.2871 7.39258-13.9941 7.17773-13.3984L2.59766-1.19141C2.51953-0.976562 2.49023-0.830078 2.49023-0.664062C2.49023-0.175781 2.80273 0.126953 3.31055 0.126953ZM6.00586-5.53711L8.37891-12.1094L8.42773-12.1094L10.8008-5.53711Z"/>
  </g>
  <line id="" style="fill:none;stroke:#00AEEF;stroke-width:0.5;opacity:1.0;" x1="792.836" x2="792.836" y1="1919" y2="1933"/>
  <text style="stroke:none;fill:black;font-family:-apple-system,&quot;SF Pro Display&quot;,&quot;SF Pro Text&quot;,Helvetica,sans-serif;font-weight:bold;" transform="matrix(1 0 0 1 776 1953)">Margins</text>
  <text style="stroke:none;fill:black;font-family:-apple-system,&quot;SF Pro Display&quot;,&quot;SF Pro Text&quot;,Helvetica,sans-serif;" transform="matrix(1 0 0 1 776 1971)">Leading and trailing margins on the left and right side of each symbol</text>
  <text style="stroke:none;fill:black;font-family:-apple-system,&quot;SF Pro Display&quot;,&quot;SF Pro Text&quot;,Helvetica,sans-serif;" transform="matrix(1 0 0 1 776 1989)">can be adjusted by modifying the x-location of the margin guidelines.</text>
  <text style="stroke:none;fill:black;font-family:-apple-system,&quot;SF Pro Display&quot;,&quot;SF Pro Text&quot;,Helvetica,sans-serif;" transform="matrix(1 0 0 1 776 2007)">Modifications are automatically applied proportionally to all</text>
  <text style="stroke:none;fill:black;font-family:-apple-system,&quot;SF Pro Display&quot;,&quot;SF Pro Text&quot;,Helvetica,sans-serif;" transform="matrix(1 0 0 1 776 2025)">scales and weights.</text>
  <g id="" transform="matrix(1 0 0 1 1289 1933)">
   <path d="M2.8418 1.86523L4.54102 3.57422C5.40039 4.44336 6.38672 4.38477 7.31445 3.35938L17.4902-7.85156C17.7539-7.76367 18.0273-7.7832 18.3398-7.8418L19.4043-8.03711L20.0684-7.36328L20.0293-6.80664C19.9902-6.30859 20.1172-5.92773 20.6055-5.44922L21.3672-4.70703C21.8457-4.22852 22.4609-4.19922 22.9297-4.66797L25.8398-7.58789C26.3086-8.05664 26.2891-8.65234 25.8105-9.13086L25.0391-9.89258C24.5605-10.3711 24.1895-10.5273 23.7109-10.4883L23.1348-10.4395L22.4902-11.0742L22.7344-12.1973C22.8613-12.7637 22.7051-13.2031 22.1191-13.7891L19.9219-15.9766C16.582-19.2969 12.1484-19.2188 9.25781-16.3281C8.83789-15.918 8.80859-15.3418 9.04297-14.9512C9.27734-14.5898 9.73633-14.3555 10.3809-14.5215C11.8457-14.8633 13.3691-14.9219 14.7949-13.9844L14.209-12.5293C14.0137-12.0508 13.9844-11.6504 14.1113-11.2891L3.04688-0.898438C2.06055 0.0195312 1.98242 0.996094 2.8418 1.86523ZM10.752-15.957C13.1836-17.7344 16.4746-17.4316 18.7012-15.2051L21.1328-12.793C21.3672-12.5586 21.4062-12.373 21.3379-12.0312L21.0156-10.5469L22.5195-9.0625L23.5059-9.12109C23.7598-9.13086 23.8379-9.11133 24.0332-8.91602L24.6094-8.33984L22.168-5.89844L21.5918-6.47461C21.3965-6.66992 21.3672-6.74805 21.377-7.01172L21.4453-7.98828L19.9512-9.47266L18.4277-9.21875C18.1055-9.15039 17.959-9.17969 17.7148-9.41406L15.7129-11.416C15.459-11.6504 15.4297-11.8164 15.5859-12.1875L16.4648-14.2773C14.9023-15.7324 12.8711-16.3574 10.8398-15.7617C10.6836-15.7227 10.625-15.8496 10.752-15.957ZM5.27344 2.30469L4.10156 1.14258C3.63281 0.683594 3.74023 0.341797 4.14062-0.0195312L14.9512-10.1953L16.416-8.71094L6.42578 2.27539C6.07422 2.67578 5.74219 2.77344 5.27344 2.30469Z"/>
  </g>
  <text style="stroke:none;fill:black;font-family:-apple-system,&quot;SF Pro Display&quot;,&quot;SF Pro Text&quot;,Helvetica,sans-serif;font-weight:bold;" transform="matrix(1 0 0 1 1289 1953)">Exporting</text>
  <text style="stroke:none;fill:black;font-family:-apple-system,&quot;SF Pro Display&quot;,&quot;SF Pro Text&quot;,Helvetica,sans-serif;" transform="matrix(1 0 0 1 1289 1971)">Symbols should be outlined when exporting to ensure the</text>
  <text style="stroke:none;fill:black;font-family:-apple-system,&quot;SF Pro Display&quot;,&quot;SF Pro Text&quot;,Helvetica,sans-serif;" transform="matrix(1 0 0 1 1289 1989)">design is preserved when submitting to Xcode.</text>
  <text id="template-version" style="stroke:none;fill:black;font-family:-apple-system,&quot;SF Pro Display&quot;,&quot;SF Pro Text&quot;,Helvetica,sans-serif;text-anchor:end;" transform="matrix(1 0 0 1 3036 1933)">Template v.2.0</text>
  <text style="stroke:none;fill:black;font-family:-apple-system,&quot;SF Pro Display&quot;,&quot;SF Pro Text&quot;,Helvetica,sans-serif;text-anchor:end;" transform="matrix(1 0 0 1 3036 1951)">Requires Xcode 12 or greater</text>
  <text style="stroke:none;fill:black;font-family:-apple-system,&quot;SF Pro Display&quot;,&quot;SF Pro Text&quot;,Helvetica,sans-serif;" transform="matrix(1 0 0 1 263 726)">Small</text>
  <text style="stroke:none;fill:black;font-family:-apple-system,&quot;SF Pro Display&quot;,&quot;SF Pro Text&quot;,Helvetica,sans-serif;" transform="matrix(1 0 0 1 263 1156)">Medium</text>
  <text style="stroke:none;fill:black;font-family:-apple-system,&quot;SF Pro Display&quot;,&quot;SF Pro Text&quot;,Helvetica,sans-serif;" transform="matrix(1 0 0 1 263 1586)">Large</text>
 </g>
 <g id="Guides">
  <g id="H-reference" style="fill:#27AAE1;stroke:none;" transform="matrix(1 0 0 1 339 696)">
   <path d="M0.976562 0L3.66211 0L12.9883-24.4629L45.752-24.4629L55.127 0L57.7637 0L30.6152-70.459L28.125-70.459ZM29.3457-67.1387L29.4434-67.1387L44.873-26.709L13.8672-26.709Z"/>
  </g>
  <line id="Baseline-S" style="fill:none;stroke:#27AAE1;opacity:1;stroke-width:0.5;" x1="263" x2="3036" y1="696" y2="696"/>
  <line id="Capline-S" style="fill:none;stroke:#27AAE1;opacity:1;stroke-width:0.5;" x1="263" x2="3036" y1="625.541" y2="625.541"/>
  <g id="H-reference" style="fill:#27AAE1;stroke:none;" transform="matrix(1 0 0 1 339 1126)">
   <path d="M0.976562 0L3.66211 0L12.9883-24.4629L45.752-24.4629L55.127 0L57.7637 0L30.6152-70.459L28.125-70.459ZM29.3457-67.1387L29.4434-67.1387L44.873-26.709L13.8672-26.709Z"/>
  </g>
  <line id="Baseline-M" style="fill:none;stroke:#27AAE1;opacity:1;stroke-width:0.5;" x1="263" x2="3036" y1="1126" y2="1126"/>
  <line id="Capline-M" style="fill:none;stroke:#27AAE1;opacity:1;stroke-width:0.5;" x1="263" x2="3036" y1="1055.54" y2="1055.54"/>
  <g id="H-reference" style="fill:#27AAE1;stroke:none;" transform="matrix(1 0 0 1 339 1556)">
   <path d="M0.976562 0L3.66211 0L12.9883-24.4629L45.752-24.4629L55.127 0L57.7637 0L30.6152-70.459L28.125-70.459ZM29.3457-67.1387L29.4434-67.1387L44.873-26.709L13.8672-26.709Z"/>
  </g>
  <line id="Baseline-L" style="fill:none;stroke:#27AAE1;opacity:1;stroke-width:0.5;" x1="263" x2="3036" y1="1556" y2="1556"/>
  <line id="Capline-L" style="fill:none;stroke:#27AAE1;opacity:1;stroke-width:0.5;" x1="263" x2="3036" y1="1485.54" y2="1485.54"/>
  <line id="left-margin" x1="1385.646764927974" x2="1385.646764927974" y1="1030.79" y2="1150.12" style="fill:none;stroke:#00AEEF;stroke-width:0.5;opacity:1.0;"/>
  <line id="right-margin" x1="1516.6132350720259" x2="1516.6132350720259" y1="1030.79" y2="1150.12" style="fill:none;stroke:#00AEEF;stroke-width:0.5;opacity:1.0;"/>
 </g>
 <g id="Symbols">
  <g id="Black-L" transform="matrix(1.0,0.0,0.0,1.0,2850.2066267570863,1436.2966462883364)">  <path stroke-miterlimit="4" fill="#000000" stroke-linejoin="miter" stroke-opacity="1" fill-opacity="1" stroke-dasharray="none" fill-rule="nonzero" stroke-width="1px" stroke-linecap="butt" stroke="none" d="M118.263,71.802C118.263,65.701,117.061,59.66,114.726,54.023C112.391,48.386,108.969,43.264,104.655,38.95C100.34,34.636,95.219,31.213,89.582,28.879C83.945,26.544,77.904,25.342,71.802,25.342C65.701,25.342,59.66,26.544,54.023,28.879C48.386,31.213,43.264,34.636,38.95,38.95C34.636,43.264,31.213,48.386,28.879,54.023C26.544,59.66,25.342,65.701,25.342,71.802C25.342,77.904,26.544,83.945,28.879,89.582C31.213,95.219,34.636,100.34,38.95,104.655C43.264,108.969,48.386,112.391,54.023,114.726C59.66,117.061,65.701,118.263,71.802,118.263C77.904,118.263,83.945,117.061,89.582,114.726C95.219,112.391,100.34,108.969,104.655,104.655C108.969,100.34,112.391,95.219,114.726,89.582C117.061,83.945,118.263,77.904,118.263,71.802ZM107.519,113.511C97.936,121.748,85.45,126.71,71.802,126.71C41.471,126.71,16.895,102.133,16.895,71.802C16.895,41.471,41.471,16.895,71.802,16.895C102.133,16.895,126.71,41.471,126.71,71.802C126.71,85.45,121.748,97.936,113.511,107.519L150.811,144.845C152.448,146.482,152.448,149.175,150.811,150.811C149.175,152.448,146.482,152.448,144.845,150.811L107.519,113.511ZM107.519,113.511"/>
</g>
  <g id="Heavy-L" transform="matrix(1.0,0.0,0.0,1.0,2553.4966267570862,1436.2966462883364)">  <path stroke-linejoin="miter" fill-rule="nonzero" stroke-width="1px" stroke="none" stroke-dasharray="none" stroke-miterlimit="4" stroke-linecap="butt" fill="#000000" fill-opacity="1" stroke-opacity="1" d="M118.263,71.802C118.263,65.701,117.061,59.66,114.726,54.023C112.391,48.386,108.969,43.264,104.655,38.95C100.34,34.636,95.219,31.213,89.582,28.879C83.945,26.544,77.904,25.342,71.802,25.342C65.701,25.342,59.66,26.544,54.023,28.879C48.386,31.213,43.264,34.636,38.95,38.95C34.636,43.264,31.213,48.386,28.879,54.023C26.544,59.66,25.342,65.701,25.342,71.802C25.342,77.904,26.544,83.945,28.879,89.582C31.213,95.219,34.636,100.34,38.95,104.655C43.264,108.969,48.386,112.391,54.023,114.726C59.66,117.061,65.701,118.263,71.802,118.263C77.904,118.263,83.945,117.061,89.582,114.726C95.219,112.391,100.34,108.969,104.655,104.655C108.969,100.34,112.391,95.219,114.726,89.582C117.061,83.945,118.263,77.904,118.263,71.802ZM107.519,113.511C97.936,121.748,85.45,126.71,71.802,126.71C41.471,126.71,16.895,102.133,16.895,71.802C16.895,41.471,41.471,16.895,71.802,16.895C102.133,16.895,126.71,41.471,126.71,71.802C126.71,85.45,121.748,97.936,113.511,107.519L150.811,144.845C152.448,146.482,152.448,149.175,150.811,150.811C149.175,152.448,146.482,152.448,144.845,150.811L107.519,113.511ZM107.519,113.511"/>
</g>
  <g id="Bold-L" transform="matrix(1.0,0.0,0.0,1.0,2256.786626757086,1436.2966462883364)">  <path stroke="none" fill="#000000" stroke-width="1px" stroke-opacity="1" stroke-linecap="butt" fill-rule="nonzero" stroke-dasharray="none" fill-opacity="1" stroke-miterlimit="4" stroke-linejoin="miter" d="M118.263,71.802C118.263,65.701,117.061,59.66,114.726,54.023C112.391,48.386,108.969,43.264,104.655,38.95C100.34,34.636,95.219,31.213,89.582,28.879C83.945,26.544,77.904,25.342,71.802,25.342C65.701,25.342,59.66,26.544,54.023,28.879C48.386,31.213,43.264,34.636,38.95,38.95C34.636,43.264,31.213,48.386,28.879,54.023C26.544,59.66,25.342,65.701,25.342,71.802C25.342,77.904,26.544,83.945,28.879,89.582C31.213,95.219,34.636,100.34,38.95,104.655C43.264,108.969,48.386,112.391,54.023,114.726C59.66,117.061,65.701,118.263,71.802,118.263C77.904,118.263,83.945,117.061,89.582,114.726C95.219,112.391,100.34,108.969,104.655,104.655C108.969,100.34,112.391,95.219,114.726,89.582C117.061,83.945,118.263,77.904,118.263,71.802ZM107.519,113.511C97.936,121.748,85.45,126.71,71.802,126.71C41.471,126.71,16.895,102.133,16.895,71.802C16.895,41.471,41.471,16.895,71.802,16.895C102.133,16.895,126.71,41.471,126.71,71.802C126.71,85.45,121.748,97.936,113.511,107.519L150.811,144.845C152.448,146.482,152.448,149.175,150.811,150.811C149.175,152.448,146.482,152.448,144.845,150.811L107.519,113.511ZM107.519,113.511"/>
</g>
  <g id="Semibold-L" transform="matrix(1.0,0.0,0.0,1.0,1960.0766267570864,1436.2966462883364)">  <path stroke-linecap="butt" fill-rule="nonzero" stroke="none" stroke-opacity="1" stroke-miterlimit="4" stroke-dasharray="none" fill="#000000" stroke-width="1px" stroke-linejoin="miter" fill-opacity="1" d="M118.263,71.802C118.263,65.701,117.061,59.66,114.726,54.023C112.391,48.386,108.969,43.264,104.655,38.95C100.34,34.636,95.219,31.213,89.582,28.879C83.945,26.544,77.904,25.342,71.802,25.342C65.701,25.342,59.66,26.544,54.023,28.879C48.386,31.213,43.264,34.636,38.95,38.95C34.636,43.264,31.213,48.386,28.879,54.023C26.544,59.66,25.342,65.701,25.342,71.802C25.342,77.904,26.544,83.945,28.879,89.582C31.213,95.219,34.636,100.34,38.95,104.655C43.264,108.969,48.386,112.391,54.023,114.726C59.66,117.061,65.701,118.263,71.802,118.263C77.904,118.263,83.945,117.061,89.582,114.726C95.219,112.391,100.34,108.969,104.655,104.655C108.969,100.34,112.391,95.219,114.726,89.582C117.061,83.945,118.263,77.904,118.263,71.802ZM107.519,113.511C97.936,121.748,85.45,126.71,71.802,126.71C41.471,126.71,16.895,102.133,16.895,71.802C16.895,41.471,41.471,16.895,71.802,16.895C102.133,16.895,126.71,41.471,126.71,71.802C126.71,85.45,121.748,97.936,113.511,107.519L150.811,144.845C152.448,146.482,152.448,149.175,150.811,150.811C149.175,152.448,146.482,152.448,144.845,150.811L107.519,113.511ZM107.519,113.511"/>
</g>
  <g id="Medium-L" transform="matrix(1.0,0.0,0.0,1.0,1663.3666267570864,1436.2966462883364)">  <path fill-rule="nonzero" stroke="none" stroke-width="1px" stroke-opacity="1" stroke-linecap="butt" stroke-linejoin="miter" fill-opacity="1" stroke-dasharray="none" fill="#000000" stroke-miterlimit="4" d="M118.263,71.802C118.263,65.701,117.061,59.66,114.726,54.023C112.391,48.386,108.969,43.264,104.655,38.95C100.34,34.636,95.219,31.213,89.582,28.879C83.945,26.544,77.904,25.342,71.802,25.342C65.701,25.342,59.66,26.544,54.023,28.879C48.386,31.213,43.264,34.636,38.95,38.95C34.636,43.264,31.213,48.386,28.879,54.023C26.544,59.66,25.342,65.701,25.342,71.802C25.342,77.904,26.544,83.945,28.879,89.582C31.213,95.219,34.636,100.34,38.95,104.655C43.264,108.969,48.386,112.391,54.023,114.726C59.66,117.061,65.701,118.263,71.802,118.263C77.904,118.263,83.945,117.061,89.582,114.726C95.219,112.391,100.34,108.969,104.655,104.655C108.969,100.34,112.391,95.219,114.726,89.582C117.061,83.945,118.263,77.904,118.263,71.802ZM107.519,113.511C97.936,121.748,85.45,126.71,71.802,126.71C41.471,126.71,16.895,102.133,16.895,71.802C16.895,41.471,41.471,16.895,71.802,16.895C102.133,16.895,126.71,41.471,126.71,71.802C126.71,85.45,121.748,97.936,113.511,107.519L150.811,144.845C152.448,146.482,152.448,149.175,150.811,150.811C149.175,152.448,146.482,152.448,144.845,150.811L107.519,113.511ZM107.519,113.511"/>
</g>
  <g id="Regular-L" transform="matrix(1.0,0.0,0.0,1.0,1366.6566267570863,1436.2966462883364)">  <path stroke-linejoin="miter" fill-opacity="1" stroke-opacity="1" stroke-dasharray="none" fill="#000000" fill-rule="nonzero" stroke="none" stroke-miterlimit="4" stroke-linecap="butt" stroke-width="1px" d="M118.263,71.802C118.263,65.701,117.061,59.66,114.726,54.023C112.391,48.386,108.969,43.264,104.655,38.95C100.34,34.636,95.219,31.213,89.582,28.879C83.945,26.544,77.904,25.342,71.802,25.342C65.701,25.342,59.66,26.544,54.023,28.879C48.386,31.213,43.264,34.636,38.95,38.95C34.636,43.264,31.213,48.386,28.879,54.023C26.544,59.66,25.342,65.701,25.342,71.802C25.342,77.904,26.544,83.945,28.879,89.582C31.213,95.219,34.636,100.34,38.95,104.655C43.264,108.969,48.386,112.391,54.023,114.726C59.66,117.061,65.701,118.263,71.802,118.263C77.904,118.263,83.945,117.061,89.582,114.726C95.219,112.391,100.34,108.969,104.655,104.655C108.969,100.34,112.391,95.219,114.726,89.582C117.061,83.945,118.263,77.904,118.263,71.802ZM107.519,113.511C97.936,121.748,85.45,126.71,71.802,126.71C41.471,126.71,16.895,102.133,16.895,71.802C16.895,41.471,41.471,16.895,71.802,16.895C102.133,16.895,126.71,41.471,126.71,71.802C126.71,85.45,121.748,97.936,113.511,107.519L150.811,144.845C152.448,146.482,152.448,149.175,150.811,150.811C149.175,152.448,146.482,152.448,144.845,150.811L107.519,113.511ZM107.519,113.511"/>
</g>
  <g id="Light-L" transform="matrix(1.0,0.0,0.0,1.0,1069.9466267570865,1436.2966462883364)">  <path stroke-width="1px" stroke-opacity="1" stroke-linejoin="miter" fill-opacity="1" stroke-linecap="butt" stroke="none" stroke-miterlimit="4" fill="#000000" fill-rule="nonzero" stroke-dasharray="none" d="M118.263,71.802C118.263,65.701,117.061,59.66,114.726,54.023C112.391,48.386,108.969,43.264,104.655,38.95C100.34,34.636,95.219,31.213,89.582,28.879C83.945,26.544,77.904,25.342,71.802,25.342C65.701,25.342,59.66,26.544,54.023,28.879C48.386,31.213,43.264,34.636,38.95,38.95C34.636,43.264,31.213,48.386,28.879,54.023C26.544,59.66,25.342,65.701,25.342,71.802C25.342,77.904,26.544,83.945,28.879,89.582C31.213,95.219,34.636,100.34,38.95,104.655C43.264,108.969,48.386,112.391,54.023,114.726C59.66,117.061,65.701,118.263,71.802,118.263C77.904,118.263,83.945,117.061,89.582,114.726C95.219,112.391,100.34,108.969,104.655,104.655C108.969,100.34,112.391,95.219,114.726,89.582C117.061,83.945,118.263,77.904,118.263,71.802ZM107.519,113.511C97.936,121.748,85.45,126.71,71.802,126.71C41.471,126.71,16.895,102.133,16.895,71.802C16.895,41.471,41.471,16.895,71.802,16.895C102.133,16.895,126.71,41.471,126.71,71.802C126.71,85.45,121.748,97.936,113.511,107.519L150.811,144.845C152.448,146.482,152.448,149.175,150.811,150.811C149.175,152.448,146.482,152.448,144.845,150.811L107.519,113.511ZM107.519,113.511"/>
</g>
  <g id="Thin-L" transform="matrix(1.0,0.0,0.0,1.0,773.2366267570865,1436.2966462883364)">  <path stroke-width="1px" fill-rule="nonzero" stroke-opacity="1" stroke-dasharray="none" stroke="none" stroke-linejoin="miter" fill="#000000" fill-opacity="1" stroke-linecap="butt" stroke-miterlimit="4" d="M118.263,71.802C118.263,65.701,117.061,59.66,114.726,54.023C112.391,48.386,108.969,43.264,104.655,38.95C100.34,34.636,95.219,31.213,89.582,28.879C83.945,26.544,77.904,25.342,71.802,25.342C65.701,25.342,59.66,26.544,54.023,28.879C48.386,31.213,43.264,34.636,38.95,38.95C34.636,43.264,31.213,48.386,28.879,54.023C26.544,59.66,25.342,65.701,25.342,71.802C25.342,77.904,26.544,83.945,28.879,89.582C31.213,95.219,34.636,100.34,38.95,104.655C43.264,108.969,48.386,112.391,54.023,114.726C59.66,117.061,65.701,118.263,71.802,118.263C77.904,118.263,83.945,117.061,89.582,114.726C95.219,112.391,100.34,108.969,104.655,104.655C108.969,100.34,112.391,95.219,114.726,89.582C117.061,83.945,118.263,77.904,118.263,71.802ZM107.519,113.511C97.936,121.748,85.45,126.71,71.802,126.71C41.471,126.71,16.895,102.133,16.895,71.802C16.895,41.471,41.471,16.895,71.802,16.895C102.133,16.895,126.71,41.471,126.71,71.802C126.71,85.45,121.748,97.936,113.511,107.519L150.811,144.845C152.448,146.482,152.448,149.175,150.811,150.811C149.175,152.448,146.482,152.448,144.845,150.811L107.519,113.511ZM107.519,113.511"/>
</g>
  <g id="Ultralight-L" transform="matrix(1.0,0.0,0.0,1.0,476.52662675708643,1436.2966462883364)">  <path fill-opacity="1" stroke-opacity="1" stroke="none" stroke-width="1px" fill-rule="nonzero" stroke-dasharray="none" stroke-linejoin="miter" stroke-linecap="butt" stroke-miterlimit="4" fill="#000000" d="M118.263,71.802C118.263,65.701,117.061,59.66,114.726,54.023C112.391,48.386,108.969,43.264,104.655,38.95C100.34,34.636,95.219,31.213,89.582,28.879C83.945,26.544,77.904,25.342,71.802,25.342C65.701,25.342,59.66,26.544,54.023,28.879C48.386,31.213,43.264,34.636,38.95,38.95C34.636,43.264,31.213,48.386,28.879,54.023C26.544,59.66,25.342,65.701,25.342,71.802C25.342,77.904,26.544,83.945,28.879,89.582C31.213,95.219,34.636,100.34,38.95,104.655C43.264,108.969,48.386,112.391,54.023,114.726C59.66,117.061,65.701,118.263,71.802,118.263C77.904,118.263,83.945,117.061,89.582,114.726C95.219,112.391,100.34,108.969,104.655,104.655C108.969,100.34,112.391,95.219,114.726,89.582C117.061,83.945,118.263,77.904,118.263,71.802ZM107.519,113.511C97.936,121.748,85.45,126.71,71.802,126.71C41.471,126.71,16.895,102.133,16.895,71.802C16.895,41.471,41.471,16.895,71.802,16.895C102.133,16.895,126.71,41.471,126.71,71.802C126.71,85.45,121.748,97.936,113.511,107.519L150.811,144.845C152.448,146.482,152.448,149.175,150.811,150.811C149.175,152.448,146.482,152.448,144.845,150.811L107.519,113.511ZM107.519,113.511"/>
</g>
  <g id="Black-M" transform="matrix(1.0,0.0,0.0,1.0,2869.1967649279736,1025.286784459224)">  <path stroke-miterlimit="4" fill="#000000" stroke-linejoin="miter" stroke-opacity="1" fill-opacity="1" stroke-dasharray="none" fill-rule="nonzero" stroke-width="1px" stroke-linecap="butt" stroke="none" d="M91.677,55.661C91.677,50.931,90.745,46.248,88.935,41.878C87.125,37.508,84.472,33.538,81.128,30.194C77.783,26.849,73.813,24.196,69.443,22.386C65.074,20.577,60.39,19.645,55.661,19.645C50.931,19.645,46.248,20.577,41.878,22.386C37.508,24.196,33.538,26.849,30.194,30.194C26.849,33.538,24.196,37.508,22.386,41.878C20.577,46.248,19.645,50.931,19.645,55.661C19.645,60.39,20.577,65.074,22.386,69.443C24.196,73.813,26.849,77.783,30.194,81.128C33.538,84.472,37.508,87.125,41.878,88.935C46.248,90.745,50.931,91.677,55.661,91.677C60.39,91.677,65.074,90.745,69.443,88.935C73.813,87.125,77.783,84.472,81.128,81.128C84.472,77.783,87.125,73.813,88.935,69.443C90.745,65.074,91.677,60.39,91.677,55.661ZM83.348,87.993C75.92,94.378,66.24,98.225,55.661,98.225C32.148,98.225,13.097,79.173,13.097,55.661C13.097,32.148,32.148,13.097,55.661,13.097C79.173,13.097,98.225,32.148,98.225,55.661C98.225,66.24,94.378,75.92,87.993,83.348L116.908,112.283C118.177,113.552,118.177,115.639,116.908,116.908C115.639,118.177,113.552,118.177,112.283,116.908L83.348,87.993ZM83.348,87.993"/>
</g>
  <g id="Heavy-M" transform="matrix(1.0,0.0,0.0,1.0,2572.4867649279736,1025.286784459224)">  <path stroke-linejoin="miter" fill-rule="nonzero" stroke-width="1px" stroke="none" stroke-dasharray="none" stroke-miterlimit="4" stroke-linecap="butt" fill="#000000" fill-opacity="1" stroke-opacity="1" d="M91.677,55.661C91.677,50.931,90.745,46.248,88.935,41.878C87.125,37.508,84.472,33.538,81.128,30.194C77.783,26.849,73.813,24.196,69.443,22.386C65.074,20.577,60.39,19.645,55.661,19.645C50.931,19.645,46.248,20.577,41.878,22.386C37.508,24.196,33.538,26.849,30.194,30.194C26.849,33.538,24.196,37.508,22.386,41.878C20.577,46.248,19.645,50.931,19.645,55.661C19.645,60.39,20.577,65.074,22.386,69.443C24.196,73.813,26.849,77.783,30.194,81.128C33.538,84.472,37.508,87.125,41.878,88.935C46.248,90.745,50.931,91.677,55.661,91.677C60.39,91.677,65.074,90.745,69.443,88.935C73.813,87.125,77.783,84.472,81.128,81.128C84.472,77.783,87.125,73.813,88.935,69.443C90.745,65.074,91.677,60.39,91.677,55.661ZM83.348,87.993C75.92,94.378,66.24,98.225,55.661,98.225C32.148,98.225,13.097,79.173,13.097,55.661C13.097,32.148,32.148,13.097,55.661,13.097C79.173,13.097,98.225,32.148,98.225,55.661C98.225,66.24,94.378,75.92,87.993,83.348L116.908,112.283C118.177,113.552,118.177,115.639,116.908,116.908C115.639,118.177,113.552,118.177,112.283,116.908L83.348,87.993ZM83.348,87.993"/>
</g>
  <g id="Bold-M" transform="matrix(1.0,0.0,0.0,1.0,2275.7767649279735,1025.286784459224)">  <path stroke="none" fill="#000000" stroke-width="1px" stroke-opacity="1" stroke-linecap="butt" fill-rule="nonzero" stroke-dasharray="none" fill-opacity="1" stroke-miterlimit="4" stroke-linejoin="miter" d="M91.677,55.661C91.677,50.931,90.745,46.248,88.935,41.878C87.125,37.508,84.472,33.538,81.128,30.194C77.783,26.849,73.813,24.196,69.443,22.386C65.074,20.577,60.39,19.645,55.661,19.645C50.931,19.645,46.248,20.577,41.878,22.386C37.508,24.196,33.538,26.849,30.194,30.194C26.849,33.538,24.196,37.508,22.386,41.878C20.577,46.248,19.645,50.931,19.645,55.661C19.645,60.39,20.577,65.074,22.386,69.443C24.196,73.813,26.849,77.783,30.194,81.128C33.538,84.472,37.508,87.125,41.878,88.935C46.248,90.745,50.931,91.677,55.661,91.677C60.39,91.677,65.074,90.745,69.443,88.935C73.813,87.125,77.783,84.472,81.128,81.128C84.472,77.783,87.125,73.813,88.935,69.443C90.745,65.074,91.677,60.39,91.677,55.661ZM83.348,87.993C75.92,94.378,66.24,98.225,55.661,98.225C32.148,98.225,13.097,79.173,13.097,55.661C13.097,32.148,32.148,13.097,55.661,13.097C79.173,13.097,98.225,32.148,98.225,55.661C98.225,66.24,94.378,75.92,87.993,83.348L116.908,112.283C118.177,113.552,118.177,115.639,116.908,116.908C115.639,118.177,113.552,118.177,112.283,116.908L83.348,87.993ZM83.348,87.993"/>
</g>
  <g id="Semibold-M" transform="matrix(1.0,0.0,0.0,1.0,1979.066764927974,1025.286784459224)">  <path stroke-linecap="butt" fill-rule="nonzero" stroke="none" stroke-opacity="1" stroke-miterlimit="4" stroke-dasharray="none" fill="#000000" stroke-width="1px" stroke-linejoin="miter" fill-opacity="1" d="M91.677,55.661C91.677,50.931,90.745,46.248,88.935,41.878C87.125,37.508,84.472,33.538,81.128,30.194C77.783,26.849,73.813,24.196,69.443,22.386C65.074,20.577,60.39,19.645,55.661,19.645C50.931,19.645,46.248,20.577,41.878,22.386C37.508,24.196,33.538,26.849,30.194,30.194C26.849,33.538,24.196,37.508,22.386,41.878C20.577,46.248,19.645,50.931,19.645,55.661C19.645,60.39,20.577,65.074,22.386,69.443C24.196,73.813,26.849,77.783,30.194,81.128C33.538,84.472,37.508,87.125,41.878,88.935C46.248,90.745,50.931,91.677,55.661,91.677C60.39,91.677,65.074,90.745,69.443,88.935C73.813,87.125,77.783,84.472,81.128,81.128C84.472,77.783,87.125,73.813,88.935,69.443C90.745,65.074,91.677,60.39,91.677,55.661ZM83.348,87.993C75.92,94.378,66.24,98.225,55.661,98.225C32.148,98.225,13.097,79.173,13.097,55.661C13.097,32.148,32.148,13.097,55.661,13.097C79.173,13.097,98.225,32.148,98.225,55.661C98.225,66.24,94.378,75.92,87.993,83.348L116.908,112.283C118.177,113.552,118.177,115.639,116.908,116.908C115.639,118.177,113.552,118.177,112.283,116.908L83.348,87.993ZM83.348,87.993"/>
</g>
  <g id="Medium-M" transform="matrix(1.0,0.0,0.0,1.0,1682.356764927974,1025.286784459224)">  <path fill-rule="nonzero" stroke="none" stroke-width="1px" stroke-opacity="1" stroke-linecap="butt" stroke-linejoin="miter" fill-opacity="1" stroke-dasharray="none" fill="#000000" stroke-miterlimit="4" d="M91.677,55.661C91.677,50.931,90.745,46.248,88.935,41.878C87.125,37.508,84.472,33.538,81.128,30.194C77.783,26.849,73.813,24.196,69.443,22.386C65.074,20.577,60.39,19.645,55.661,19.645C50.931,19.645,46.248,20.577,41.878,22.386C37.508,24.196,33.538,26.849,30.194,30.194C26.849,33.538,24.196,37.508,22.386,41.878C20.577,46.248,19.645,50.931,19.645,55.661C19.645,60.39,20.577,65.074,22.386,69.443C24.196,73.813,26.849,77.783,30.194,81.128C33.538,84.472,37.508,87.125,41.878,88.935C46.248,90.745,50.931,91.677,55.661,91.677C60.39,91.677,65.074,90.745,69.443,88.935C73.813,87.125,77.783,84.472,81.128,81.128C84.472,77.783,87.125,73.813,88.935,69.443C90.745,65.074,91.677,60.39,91.677,55.661ZM83.348,87.993C75.92,94.378,66.24,98.225,55.661,98.225C32.148,98.225,13.097,79.173,13.097,55.661C13.097,32.148,32.148,13.097,55.661,13.097C79.173,13.097,98.225,32.148,98.225,55.661C98.225,66.24,94.378,75.92,87.993,83.348L116.908,112.283C118.177,113.552,118.177,115.639,116.908,116.908C115.639,118.177,113.552,118.177,112.283,116.908L83.348,87.993ZM83.348,87.993"/>
</g>
  <g id="Regular-M" transform="matrix(1.0,0.0,0.0,1.0,1385.646764927974,1025.286784459224)">  <path stroke-linejoin="miter" fill-opacity="1" stroke-opacity="1" stroke-dasharray="none" fill="#000000" fill-rule="nonzero" stroke="none" stroke-miterlimit="4" stroke-linecap="butt" stroke-width="1px" d="M91.677,55.661C91.677,50.931,90.745,46.248,88.935,41.878C87.125,37.508,84.472,33.538,81.128,30.194C77.783,26.849,73.813,24.196,69.443,22.386C65.074,20.577,60.39,19.645,55.661,19.645C50.931,19.645,46.248,20.577,41.878,22.386C37.508,24.196,33.538,26.849,30.194,30.194C26.849,33.538,24.196,37.508,22.386,41.878C20.577,46.248,19.645,50.931,19.645,55.661C19.645,60.39,20.577,65.074,22.386,69.443C24.196,73.813,26.849,77.783,30.194,81.128C33.538,84.472,37.508,87.125,41.878,88.935C46.248,90.745,50.931,91.677,55.661,91.677C60.39,91.677,65.074,90.745,69.443,88.935C73.813,87.125,77.783,84.472,81.128,81.128C84.472,77.783,87.125,73.813,88.935,69.443C90.745,65.074,91.677,60.39,91.677,55.661ZM83.348,87.993C75.92,94.378,66.24,98.225,55.661,98.225C32.148,98.225,13.097,79.173,13.097,55.661C13.097,32.148,32.148,13.097,55.661,13.097C79.173,13.097,98.225,32.148,98.225,55.661C98.225,66.24,94.378,75.92,87.993,83.348L116.908,112.283C118.177,113.552,118.177,115.639,116.908,116.908C115.639,118.177,113.552,118.177,112.283,116.908L83.348,87.993ZM83.348,87.993"/>
</g>
  <g id="Light-M" transform="matrix(1.0,0.0,0.0,1.0,1088.936764927974,1025.286784459224)">  <path stroke-width="1px" stroke-opacity="1" stroke-linejoin="miter" fill-opacity="1" stroke-linecap="butt" stroke="none" stroke-miterlimit="4" fill="#000000" fill-rule="nonzero" stroke-dasharray="none" d="M91.677,55.661C91.677,50.931,90.745,46.248,88.935,41.878C87.125,37.508,84.472,33.538,81.128,30.194C77.783,26.849,73.813,24.196,69.443,22.386C65.074,20.577,60.39,19.645,55.661,19.645C50.931,19.645,46.248,20.577,41.878,22.386C37.508,24.196,33.538,26.849,30.194,30.194C26.849,33.538,24.196,37.508,22.386,41.878C20.577,46.248,19.645,50.931,19.645,55.661C19.645,60.39,20.577,65.074,22.386,69.443C24.196,73.813,26.849,77.783,30.194,81.128C33.538,84.472,37.508,87.125,41.878,88.935C46.248,90.745,50.931,91.677,55.661,91.677C60.39,91.677,65.074,90.745,69.443,88.935C73.813,87.125,77.783,84.472,81.128,81.128C84.472,77.783,87.125,73.813,88.935,69.443C90.745,65.074,91.677,60.39,91.677,55.661ZM83.348,87.993C75.92,94.378,66.24,98.225,55.661,98.225C32.148,98.225,13.097,79.173,13.097,55.661C13.097,32.148,32.148,13.097,55.661,13.097C79.173,13.097,98.225,32.148,98.225,55.661C98.225,66.24,94.378,75.92,87.993,83.348L116.908,112.283C118.177,113.552,118.177,115.639,116.908,116.908C115.639,118.177,113.552,118.177,112.283,116.908L83.348,87.993ZM83.348,87.993"/>
</g>
  <g id="Thin-M" transform="matrix(1.0,0.0,0.0,1.0,792.226764927974,1025.286784459224)">  <path stroke-width="1px" fill-rule="nonzero" stroke-opacity="1" stroke-dasharray="none" stroke="none" stroke-linejoin="miter" fill="#000000" fill-opacity="1" stroke-linecap="butt" stroke-miterlimit="4" d="M91.677,55.661C91.677,50.931,90.745,46.248,88.935,41.878C87.125,37.508,84.472,33.538,81.128,30.194C77.783,26.849,73.813,24.196,69.443,22.386C65.074,20.577,60.39,19.645,55.661,19.645C50.931,19.645,46.248,20.577,41.878,22.386C37.508,24.196,33.538,26.849,30.194,30.194C26.849,33.538,24.196,37.508,22.386,41.878C20.577,46.248,19.645,50.931,19.645,55.661C19.645,60.39,20.577,65.074,22.386,69.443C24.196,73.813,26.849,77.783,30.194,81.128C33.538,84.472,37.508,87.125,41.878,88.935C46.248,90.745,50.931,91.677,55.661,91.677C60.39,91.677,65.074,90.745,69.443,88.935C73.813,87.125,77.783,84.472,81.128,81.128C84.472,77.783,87.125,73.813,88.935,69.443C90.745,65.074,91.677,60.39,91.677,55.661ZM83.348,87.993C75.92,94.378,66.24,98.225,55.661,98.225C32.148,98.225,13.097,79.173,13.097,55.661C13.097,32.148,32.148,13.097,55.661,13.097C79.173,13.097,98.225,32.148,98.225,55.661C98.225,66.24,94.378,75.92,87.993,83.348L116.908,112.283C118.177,113.552,118.177,115.639,116.908,116.908C115.639,118.177,113.552,118.177,112.283,116.908L83.348,87.993ZM83.348,87.993"/>
</g>
  <g id="Ultralight-M" transform="matrix(1.0,0.0,0.0,1.0,495.516764927974,1025.286784459224)">  <path fill-opacity="1" stroke-opacity="1" stroke="none" stroke-width="1px" fill-rule="nonzero" stroke-dasharray="none" stroke-linejoin="miter" stroke-linecap="butt" stroke-miterlimit="4" fill="#000000" d="M91.677,55.661C91.677,50.931,90.745,46.248,88.935,41.878C87.125,37.508,84.472,33.538,81.128,30.194C77.783,26.849,73.813,24.196,69.443,22.386C65.074,20.577,60.39,19.645,55.661,19.645C50.931,19.645,46.248,20.577,41.878,22.386C37.508,24.196,33.538,26.849,30.194,30.194C26.849,33.538,24.196,37.508,22.386,41.878C20.577,46.248,19.645,50.931,19.645,55.661C19.645,60.39,20.577,65.074,22.386,69.443C24.196,73.813,26.849,77.783,30.194,81.128C33.538,84.472,37.508,87.125,41.878,88.935C46.248,90.745,50.931,91.677,55.661,91.677C60.39,91.677,65.074,90.745,69.443,88.935C73.813,87.125,77.783,84.472,81.128,81.128C84.472,77.783,87.125,73.813,88.935,69.443C90.745,65.074,91.677,60.39,91.677,55.661ZM83.348,87.993C75.92,94.378,66.24,98.225,55.661,98.225C32.148,98.225,13.097,79.173,13.097,55.661C13.097,32.148,32.148,13.097,55.661,13.097C79.173,13.097,98.225,32.148,98.225,55.661C98.225,66.24,94.378,75.92,87.993,83.348L116.908,112.283C118.177,113.552,118.177,115.639,116.908,116.908C115.639,118.177,113.552,118.177,112.283,116.908L83.348,87.993ZM83.348,87.993"/>
</g>
  <g id="Black-S" transform="matrix(1.0,0.0,0.0,1.0,2883.4066269386035,609.4966464698537)">  <path stroke-miterlimit="4" fill="#000000" stroke-linejoin="miter" stroke-opacity="1" fill-opacity="1" stroke-dasharray="none" fill-rule="nonzero" stroke-width="1px" stroke-linecap="butt" stroke="none" d="M71.783,43.582C71.783,39.879,71.053,36.212,69.636,32.791C68.219,29.369,66.142,26.26,63.523,23.642C60.904,21.023,57.796,18.946,54.374,17.529C50.953,16.111,47.286,15.382,43.582,15.382C39.879,15.382,36.212,16.111,32.791,17.529C29.369,18.946,26.26,21.023,23.642,23.642C21.023,26.26,18.946,29.369,17.529,32.791C16.111,36.212,15.382,39.879,15.382,43.582C15.382,47.286,16.111,50.953,17.529,54.374C18.946,57.796,21.023,60.904,23.642,63.523C26.26,66.142,29.369,68.219,32.791,69.636C36.212,71.053,39.879,71.783,43.582,71.783C47.286,71.783,50.953,71.053,54.374,69.636C57.796,68.219,60.904,66.142,63.523,63.523C66.142,60.904,68.219,57.796,69.636,54.374C71.053,50.953,71.783,47.286,71.783,43.582ZM65.261,68.898C59.445,73.898,51.866,76.91,43.582,76.91C25.172,76.91,10.255,61.993,10.255,43.582C10.255,25.172,25.172,10.255,43.582,10.255C61.993,10.255,76.91,25.172,76.91,43.582C76.91,51.866,73.898,59.445,68.898,65.261L91.539,87.918C92.532,88.911,92.532,90.546,91.539,91.539C90.546,92.532,88.911,92.532,87.918,91.539L65.261,68.898ZM65.261,68.898"/>
</g>
  <g id="Heavy-S" transform="matrix(1.0,0.0,0.0,1.0,2586.6966269386035,609.4966464698537)">  <path stroke-linejoin="miter" fill-rule="nonzero" stroke-width="1px" stroke="none" stroke-dasharray="none" stroke-miterlimit="4" stroke-linecap="butt" fill="#000000" fill-opacity="1" stroke-opacity="1" d="M71.783,43.582C71.783,39.879,71.053,36.212,69.636,32.791C68.219,29.369,66.142,26.26,63.523,23.642C60.904,21.023,57.796,18.946,54.374,17.529C50.953,16.111,47.286,15.382,43.582,15.382C39.879,15.382,36.212,16.111,32.791,17.529C29.369,18.946,26.26,21.023,23.642,23.642C21.023,26.26,18.946,29.369,17.529,32.791C16.111,36.212,15.382,39.879,15.382,43.582C15.382,47.286,16.111,50.953,17.529,54.374C18.946,57.796,21.023,60.904,23.642,63.523C26.26,66.142,29.369,68.219,32.791,69.636C36.212,71.053,39.879,71.783,43.582,71.783C47.286,71.783,50.953,71.053,54.374,69.636C57.796,68.219,60.904,66.142,63.523,63.523C66.142,60.904,68.219,57.796,69.636,54.374C71.053,50.953,71.783,47.286,71.783,43.582ZM65.261,68.898C59.445,73.898,51.866,76.91,43.582,76.91C25.172,76.91,10.255,61.993,10.255,43.582C10.255,25.172,25.172,10.255,43.582,10.255C61.993,10.255,76.91,25.172,76.91,43.582C76.91,51.866,73.898,59.445,68.898,65.261L91.539,87.918C92.532,88.911,92.532,90.546,91.539,91.539C90.546,92.532,88.911,92.532,87.918,91.539L65.261,68.898ZM65.261,68.898"/>
</g>
  <g id="Bold-S" transform="matrix(1.0,0.0,0.0,1.0,2289.9866269386034,609.4966464698537)">  <path stroke="none" fill="#000000" stroke-width="1px" stroke-opacity="1" stroke-linecap="butt" fill-rule="nonzero" stroke-dasharray="none" fill-opacity="1" stroke-miterlimit="4" stroke-linejoin="miter" d="M71.783,43.582C71.783,39.879,71.053,36.212,69.636,32.791C68.219,29.369,66.142,26.26,63.523,23.642C60.904,21.023,57.796,18.946,54.374,17.529C50.953,16.111,47.286,15.382,43.582,15.382C39.879,15.382,36.212,16.111,32.791,17.529C29.369,18.946,26.26,21.023,23.642,23.642C21.023,26.26,18.946,29.369,17.529,32.791C16.111,36.212,15.382,39.879,15.382,43.582C15.382,47.286,16.111,50.953,17.529,54.374C18.946,57.796,21.023,60.904,23.642,63.523C26.26,66.142,29.369,68.219,32.791,69.636C36.212,71.053,39.879,71.783,43.582,71.783C47.286,71.783,50.953,71.053,54.374,69.636C57.796,68.219,60.904,66.142,63.523,63.523C66.142,60.904,68.219,57.796,69.636,54.374C71.053,50.953,71.783,47.286,71.783,43.582ZM65.261,68.898C59.445,73.898,51.866,76.91,43.582,76.91C25.172,76.91,10.255,61.993,10.255,43.582C10.255,25.172,25.172,10.255,43.582,10.255C61.993,10.255,76.91,25.172,76.91,43.582C76.91,51.866,73.898,59.445,68.898,65.261L91.539,87.918C92.532,88.911,92.532,90.546,91.539,91.539C90.546,92.532,88.911,92.532,87.918,91.539L65.261,68.898ZM65.261,68.898"/>
</g>
  <g id="Semibold-S" transform="matrix(1.0,0.0,0.0,1.0,1993.2766269386036,609.4966464698537)">  <path stroke-linecap="butt" fill-rule="nonzero" stroke="none" stroke-opacity="1" stroke-miterlimit="4" stroke-dasharray="none" fill="#000000" stroke-width="1px" stroke-linejoin="miter" fill-opacity="1" d="M71.783,43.582C71.783,39.879,71.053,36.212,69.636,32.791C68.219,29.369,66.142,26.26,63.523,23.642C60.904,21.023,57.796,18.946,54.374,17.529C50.953,16.111,47.286,15.382,43.582,15.382C39.879,15.382,36.212,16.111,32.791,17.529C29.369,18.946,26.26,21.023,23.642,23.642C21.023,26.26,18.946,29.369,17.529,32.791C16.111,36.212,15.382,39.879,15.382,43.582C15.382,47.286,16.111,50.953,17.529,54.374C18.946,57.796,21.023,60.904,23.642,63.523C26.26,66.142,29.369,68.219,32.791,69.636C36.212,71.053,39.879,71.783,43.582,71.783C47.286,71.783,50.953,71.053,54.374,69.636C57.796,68.219,60.904,66.142,63.523,63.523C66.142,60.904,68.219,57.796,69.636,54.374C71.053,50.953,71.783,47.286,71.783,43.582ZM65.261,68.898C59.445,73.898,51.866,76.91,43.582,76.91C25.172,76.91,10.255,61.993,10.255,43.582C10.255,25.172,25.172,10.255,43.582,10.255C61.993,10.255,76.91,25.172,76.91,43.582C76.91,51.866,73.898,59.445,68.898,65.261L91.539,87.918C92.532,88.911,92.532,90.546,91.539,91.539C90.546,92.532,88.911,92.532,87.918,91.539L65.261,68.898ZM65.261,68.898"/>
</g>
  <g id="Medium-S" transform="matrix(1.0,0.0,0.0,1.0,1696.5666269386036,609.4966464698537)">  <path fill-rule="nonzero" stroke="none" stroke-width="1px" stroke-opacity="1" stroke-linecap="butt" stroke-linejoin="miter" fill-opacity="1" stroke-dasharray="none" fill="#000000" stroke-miterlimit="4" d="M71.783,43.582C71.783,39.879,71.053,36.212,69.636,32.791C68.219,29.369,66.142,26.26,63.523,23.642C60.904,21.023,57.796,18.946,54.374,17.529C50.953,16.111,47.286,15.382,43.582,15.382C39.879,15.382,36.212,16.111,32.791,17.529C29.369,18.946,26.26,21.023,23.642,23.642C21.023,26.26,18.946,29.369,17.529,32.791C16.111,36.212,15.382,39.879,15.382,43.582C15.382,47.286,16.111,50.953,17.529,54.374C18.946,57.796,21.023,60.904,23.642,63.523C26.26,66.142,29.369,68.219,32.791,69.636C36.212,71.053,39.879,71.783,43.582,71.783C47.286,71.783,50.953,71.053,54.374,69.636C57.796,68.219,60.904,66.142,63.523,63.523C66.142,60.904,68.219,57.796,69.636,54.374C71.053,50.953,71.783,47.286,71.783,43.582ZM65.261,68.898C59.445,73.898,51.866,76.91,43.582,76.91C25.172,76.91,10.255,61.993,10.255,43.582C10.255,25.172,25.172,10.255,43.582,10.255C61.993,10.255,76.91,25.172,76.91,43.582C76.91,51.866,73.898,59.445,68.898,65.261L91.539,87.918C92.532,88.911,92.532,90.546,91.539,91.539C90.546,92.532,88.911,92.532,87.918,91.539L65.261,68.898ZM65.261,68.898"/>
</g>
  <g id="Regular-S" transform="matrix(1.0,0.0,0.0,1.0,1399.8566269386035,609.4966464698537)">  <path stroke-linejoin="miter" fill-opacity="1" stroke-opacity="1" stroke-dasharray="none" fill="#000000" fill-rule="nonzero" stroke="none" stroke-miterlimit="4" stroke-linecap="butt" stroke-width="1px" d="M71.783,43.582C71.783,39.879,71.053,36.212,69.636,32.791C68.219,29.369,66.142,26.26,63.523,23.642C60.904,21.023,57.796,18.946,54.374,17.529C50.953,16.111,47.286,15.382,43.582,15.382C39.879,15.382,36.212,16.111,32.791,17.529C29.369,18.946,26.26,21.023,23.642,23.642C21.023,26.26,18.946,29.369,17.529,32.791C16.111,36.212,15.382,39.879,15.382,43.582C15.382,47.286,16.111,50.953,17.529,54.374C18.946,57.796,21.023,60.904,23.642,63.523C26.26,66.142,29.369,68.219,32.791,69.636C36.212,71.053,39.879,71.783,43.582,71.783C47.286,71.783,50.953,71.053,54.374,69.636C57.796,68.219,60.904,66.142,63.523,63.523C66.142,60.904,68.219,57.796,69.636,54.374C71.053,50.953,71.783,47.286,71.783,43.582ZM65.261,68.898C59.445,73.898,51.866,76.91,43.582,76.91C25.172,76.91,10.255,61.993,10.255,43.582C10.255,25.172,25.172,10.255,43.582,10.255C61.993,10.255,76.91,25.172,76.91,43.582C76.91,51.866,73.898,59.445,68.898,65.261L91.539,87.918C92.532,88.911,92.532,90.546,91.539,91.539C90.546,92.532,88.911,92.532,87.918,91.539L65.261,68.898ZM65.261,68.898"/>
</g>
  <g id="Light-S" transform="matrix(1.0,0.0,0.0,1.0,1103.1466269386037,609.4966464698537)">  <path stroke-width="1px" stroke-opacity="1" stroke-linejoin="miter" fill-opacity="1" stroke-linecap="butt" stroke="none" stroke-miterlimit="4" fill="#000000" fill-rule="nonzero" stroke-dasharray="none" d="M71.783,43.582C71.783,39.879,71.053,36.212,69.636,32.791C68.219,29.369,66.142,26.26,63.523,23.642C60.904,21.023,57.796,18.946,54.374,17.529C50.953,16.111,47.286,15.382,43.582,15.382C39.879,15.382,36.212,16.111,32.791,17.529C29.369,18.946,26.26,21.023,23.642,23.642C21.023,26.26,18.946,29.369,17.529,32.791C16.111,36.212,15.382,39.879,15.382,43.582C15.382,47.286,16.111,50.953,17.529,54.374C18.946,57.796,21.023,60.904,23.642,63.523C26.26,66.142,29.369,68.219,32.791,69.636C36.212,71.053,39.879,71.783,43.582,71.783C47.286,71.783,50.953,71.053,54.374,69.636C57.796,68.219,60.904,66.142,63.523,63.523C66.142,60.904,68.219,57.796,69.636,54.374C71.053,50.953,71.783,47.286,71.783,43.582ZM65.261,68.898C59.445,73.898,51.866,76.91,43.582,76.91C25.172,76.91,10.255,61.993,10.255,43.582C10.255,25.172,25.172,10.255,43.582,10.255C61.993,10.255,76.91,25.172,76.91,43.582C76.91,51.866,73.898,59.445,68.898,65.261L91.539,87.918C92.532,88.911,92.532,90.546,91.539,91.539C90.546,92.532,88.911,92.532,87.918,91.539L65.261,68.898ZM65.261,68.898"/>
</g>
  <g id="Thin-S" transform="matrix(1.0,0.0,0.0,1.0,806.4366269386037,609.4966464698537)">  <path stroke-width="1px" fill-rule="nonzero" stroke-opacity="1" stroke-dasharray="none" stroke="none" stroke-linejoin="miter" fill="#000000" fill-opacity="1" stroke-linecap="butt" stroke-miterlimit="4" d="M71.783,43.582C71.783,39.879,71.053,36.212,69.636,32.791C68.219,29.369,66.142,26.26,63.523,23.642C60.904,21.023,57.796,18.946,54.374,17.529C50.953,16.111,47.286,15.382,43.582,15.382C39.879,15.382,36.212,16.111,32.791,17.529C29.369,18.946,26.26,21.023,23.642,23.642C21.023,26.26,18.946,29.369,17.529,32.791C16.111,36.212,15.382,39.879,15.382,43.582C15.382,47.286,16.111,50.953,17.529,54.374C18.946,57.796,21.023,60.904,23.642,63.523C26.26,66.142,29.369,68.219,32.791,69.636C36.212,71.053,39.879,71.783,43.582,71.783C47.286,71.783,50.953,71.053,54.374,69.636C57.796,68.219,60.904,66.142,63.523,63.523C66.142,60.904,68.219,57.796,69.636,54.374C71.053,50.953,71.783,47.286,71.783,43.582ZM65.261,68.898C59.445,73.898,51.866,76.91,43.582,76.91C25.172,76.91,10.255,61.993,10.255,43.582C10.255,25.172,25.172,10.255,43.582,10.255C61.993,10.255,76.91,25.172,76.91,43.582C76.91,51.866,73.898,59.445,68.898,65.261L91.539,87.918C92.532,88.911,92.532,90.546,91.539,91.539C90.546,92.532,88.911,92.532,87.918,91.539L65.261,68.898ZM65.261,68.898"/>
</g>
  <g id="Ultralight-S" transform="matrix(1.0,0.0,0.0,1.0,509.7266269386036,609.4966464698537)">  <path fill-opacity="1" stroke-opacity="1" stroke="none" stroke-width="1px" fill-rule="nonzero" stroke-dasharray="none" stroke-linejoin="miter" stroke-linecap="butt" stroke-miterlimit="4" fill="#000000" d="M71.783,43.582C71.783,39.879,71.053,36.212,69.636,32.791C68.219,29.369,66.142,26.26,63.523,23.642C60.904,21.023,57.796,18.946,54.374,17.529C50.953,16.111,47.286,15.382,43.582,15.382C39.879,15.382,36.212,16.111,32.791,17.529C29.369,18.946,26.26,21.023,23.642,23.642C21.023,26.26,18.946,29.369,17.529,32.791C16.111,36.212,15.382,39.879,15.382,43.582C15.382,47.286,16.111,50.953,17.529,54.374C18.946,57.796,21.023,60.904,23.642,63.523C26.26,66.142,29.369,68.219,32.791,69.636C36.212,71.053,39.879,71.783,43.582,71.783C47.286,71.783,50.953,71.053,54.374,69.636C57.796,68.219,60.904,66.142,63.523,63.523C66.142,60.904,68.219,57.796,69.636,54.374C71.053,50.953,71.783,47.286,71.783,43.582ZM65.261,68.898C59.445,73.898,51.866,76.91,43.582,76.91C25.172,76.91,10.255,61.993,10.255,43.582C10.255,25.172,25.172,10.255,43.582,10.255C61.993,10.255,76.91,25.172,76.91,43.582C76.91,51.866,73.898,59.445,68.898,65.261L91.539,87.918C92.532,88.911,92.532,90.546,91.539,91.539C90.546,92.532,88.911,92.532,87.918,91.539L65.261,68.898ZM65.261,68.898"/>
</g>
 </g>
</svg>
