<?xml version="1.0" encoding="UTF-8"?>
<!-- Generator: CustomSymbols v2.7.3.49 by @serious_bret https://bretlester.com/app_content/CustomSymbols/ -->
<!-- Guides: Left/Right 0.0/0.0 Cap/Base 0.212/0.212 -->
<!-- Settings: RefScale 1.0 Min/Max Stroke Scales 0.5/2.21 -->
<!DOCTYPE svg
PUBLIC "-//W3C//DTD SVG 1.1//EN"
       "http://www.w3.org/Graphics/SVG/1.1/DTD/svg11.dtd">
<svg version="1.1" xmlns="http://www.w3.org/2000/svg" xmlns:xlink="http://www.w3.org/1999/xlink" width="3300" height="2200">
<![CDATA[<svg width="30" height="30" viewBox="0 0 30 30" fill="none" xmlns="http://www.w3.org/2000/svg">
<path d="M19.5 9C19.5 8.40905 19.3836 7.82389 19.1575 7.27792C18.9313 6.73196 18.5998 6.23588 18.182 5.81802C17.7641 5.40016 17.268 5.06869 16.7221 4.84254C16.1761 4.6164 15.5909 4.5 15 4.5C14.4091 4.5 13.8239 4.6164 13.2779 4.84254C12.732 5.06869 12.2359 5.40016 11.818 5.81802C11.4002 6.23588 11.0687 6.73196 10.8425 7.27792C10.6164 7.82389 10.5 8.40905 10.5 9C10.5 9.59095 10.6164 10.1761 10.8425 10.7221C11.0687 11.268 11.4002 11.7641 11.818 12.182C12.2359 12.5998 12.732 12.9313 13.2779 13.1575C13.8239 13.3836 14.4091 13.5 15 13.5C15.5909 13.5 16.1761 13.3836 16.7221 13.1575C17.268 12.9313 17.7641 12.5998 18.182 12.182C18.5998 11.7641 18.9313 11.268 19.1575 10.7221C19.3836 10.1761 19.5 9.59095 19.5 9ZM9 9C9 7.4087 9.63214 5.88258 10.7574 4.75736C11.8826 3.63214 13.4087 3 15 3C16.5913 3 18.1174 3.63214 19.2426 4.75736C20.3679 5.88258 21 7.4087 21 9C21 10.5913 20.3679 12.1174 19.2426 13.2426C18.1174 14.3679 16.5913 15 15 15C13.4087 15 11.8826 14.3679 10.7574 13.2426C9.63214 12.1174 9 10.5913 9 9ZM6 25.5H24C23.9437 21.7641 20.8969 18.75 17.1422 18.75H12.8578C9.10781 18.75 6.06094 21.7641 6 25.5ZM4.5 25.6078C4.5 20.9906 8.24063 17.25 12.8578 17.25H17.1422C21.7594 17.25 25.5 20.9906 25.5 25.6078C25.5 26.3766 24.8766 27 24.1078 27H5.89219C5.12344 27 4.5 26.3766 4.5 25.6078Z" fill="#5E6278"/>
</svg>
]]>
 <g id="Notes">
  <rect height="2200" id="artboard" style="fill:white;opacity:1" width="3300" x="0" y="0"/>
  <line id="" style="fill:none;stroke:black;opacity:1;stroke-width:0.5;" x1="263" x2="3036" y1="292" y2="292"/>
  <text id="reftext1" style="stroke:none;fill:black;font-family:-apple-system,&quot;SF Pro Display&quot;,&quot;SF Pro Text&quot;,Helvetica,sans-serif;font-weight:bold;" transform="matrix(1 0 0 1 263 322)">Weight/Scale Variations</text>
  <text id="reftext2" style="stroke:none;fill:black;font-family:-apple-system,&quot;SF Pro Display&quot;,&quot;SF Pro Text&quot;,Helvetica,sans-serif;text-anchor:middle;" transform="matrix(1 0 0 1 559.711 322)">Ultralight</text>
  <text style="stroke:none;fill:black;font-family:-apple-system,&quot;SF Pro Display&quot;,&quot;SF Pro Text&quot;,Helvetica,sans-serif;text-anchor:middle;" transform="matrix(1 0 0 1 856.422 322)">Thin</text>
  <text style="stroke:none;fill:black;font-family:-apple-system,&quot;SF Pro Display&quot;,&quot;SF Pro Text&quot;,Helvetica,sans-serif;text-anchor:middle;" transform="matrix(1 0 0 1 1153.13 322)">Light</text>
  <text style="stroke:none;fill:black;font-family:-apple-system,&quot;SF Pro Display&quot;,&quot;SF Pro Text&quot;,Helvetica,sans-serif;text-anchor:middle;" transform="matrix(1 0 0 1 1449.84 322)">Regular</text>
  <text style="stroke:none;fill:black;font-family:-apple-system,&quot;SF Pro Display&quot;,&quot;SF Pro Text&quot;,Helvetica,sans-serif;text-anchor:middle;" transform="matrix(1 0 0 1 1746.56 322)">Medium</text>
  <text style="stroke:none;fill:black;font-family:-apple-system,&quot;SF Pro Display&quot;,&quot;SF Pro Text&quot;,Helvetica,sans-serif;text-anchor:middle;" transform="matrix(1 0 0 1 2043.27 322)">Semibold</text>
  <text style="stroke:none;fill:black;font-family:-apple-system,&quot;SF Pro Display&quot;,&quot;SF Pro Text&quot;,Helvetica,sans-serif;text-anchor:middle;" transform="matrix(1 0 0 1 2339.98 322)">Bold</text>
  <text style="stroke:none;fill:black;font-family:-apple-system,&quot;SF Pro Display&quot;,&quot;SF Pro Text&quot;,Helvetica,sans-serif;text-anchor:middle;" transform="matrix(1 0 0 1 2636.69 322)">Heavy</text>
  <text style="stroke:none;fill:black;font-family:-apple-system,&quot;SF Pro Display&quot;,&quot;SF Pro Text&quot;,Helvetica,sans-serif;text-anchor:middle;" transform="matrix(1 0 0 1 2933.4 322)">Black</text>
  <line id="" style="fill:none;stroke:black;opacity:1;stroke-width:0.5;" x1="263" x2="3036" y1="1903" y2="1903"/>
  <g id="" transform="matrix(1 0 0 1 263 1933)">
   <path d="M9.24805 0.830078C13.5547 0.830078 17.1387-2.74414 17.1387-7.05078C17.1387-11.3574 13.5449-14.9316 9.23828-14.9316C4.94141-14.9316 1.36719-11.3574 1.36719-7.05078C1.36719-2.74414 4.95117 0.830078 9.24805 0.830078ZM9.24805-0.654297C5.70312-0.654297 2.87109-3.49609 2.87109-7.05078C2.87109-10.6055 5.69336-13.4473 9.23828-13.4473C12.793-13.4473 15.6348-10.6055 15.6445-7.05078C15.6543-3.49609 12.8027-0.654297 9.24805-0.654297ZM6.39648-6.31836L8.50586-6.31836L8.50586-4.19922C8.50586-3.75977 8.79883-3.45703 9.22852-3.45703C9.67773-3.45703 9.9707-3.75977 9.9707-4.19922L9.9707-6.31836L12.0996-6.31836C12.5391-6.31836 12.8418-6.61133 12.8418-7.04102C12.8418-7.48047 12.5391-7.7832 12.0996-7.7832L9.9707-7.7832L9.9707-9.89258C9.9707-10.3418 9.67773-10.6445 9.22852-10.6445C8.79883-10.6445 8.50586-10.3418 8.50586-9.89258L8.50586-7.7832L6.39648-7.7832C5.94727-7.7832 5.64453-7.48047 5.64453-7.04102C5.64453-6.61133 5.94727-6.31836 6.39648-6.31836Z"/>
  </g>
  <g id="" transform="matrix(1 0 0 1 281.506 1933)">
   <path d="M11.709 2.91016C17.1582 2.91016 21.6699-1.61133 21.6699-7.05078C21.6699-12.5 17.1484-17.0117 11.6992-17.0117C6.25977-17.0117 1.74805-12.5 1.74805-7.05078C1.74805-1.61133 6.26953 2.91016 11.709 2.91016ZM11.709 1.25C7.09961 1.25 3.41797-2.44141 3.41797-7.05078C3.41797-11.6602 7.08984-15.3516 11.6992-15.3516C16.3086-15.3516 20-11.6602 20.0098-7.05078C20.0195-2.44141 16.3184 1.25 11.709 1.25ZM7.98828-6.23047L10.8789-6.23047L10.8789-3.32031C10.8789-2.83203 11.2109-2.5 11.6895-2.5C12.1777-2.5 12.5195-2.83203 12.5195-3.32031L12.5195-6.23047L15.4297-6.23047C15.918-6.23047 16.25-6.5625 16.25-7.04102C16.25-7.5293 15.918-7.87109 15.4297-7.87109L12.5195-7.87109L12.5195-10.7617C12.5195-11.2695 12.1777-11.6016 11.6895-11.6016C11.2109-11.6016 10.8789-11.2598 10.8789-10.7617L10.8789-7.87109L7.98828-7.87109C7.48047-7.87109 7.14844-7.5293 7.14844-7.04102C7.14844-6.5625 7.49023-6.23047 7.98828-6.23047Z"/>
  </g>
  <g id="" transform="matrix(1 0 0 1 304.924 1933)">
   <path d="M14.9707 5.66406C21.9336 5.66406 27.6953-0.0976562 27.6953-7.05078C27.6953-14.0137 21.9238-19.7754 14.9609-19.7754C8.00781-19.7754 2.25586-14.0137 2.25586-7.05078C2.25586-0.0976562 8.01758 5.66406 14.9707 5.66406ZM14.9707 3.84766C8.93555 3.84766 4.08203-1.01562 4.08203-7.05078C4.08203-13.0957 8.92578-17.9492 14.9609-17.9492C21.0059-17.9492 25.8594-13.0957 25.8691-7.05078C25.8789-1.01562 21.0156 3.84766 14.9707 3.84766ZM10.0586-6.14258L14.0625-6.14258L14.0625-2.12891C14.0625-1.5918 14.4336-1.2207 14.9512-1.2207C15.4883-1.2207 15.8594-1.5918 15.8594-2.12891L15.8594-6.14258L19.8828-6.14258C20.4102-6.14258 20.791-6.51367 20.791-7.03125C20.791-7.56836 20.4199-7.94922 19.8828-7.94922L15.8594-7.94922L15.8594-11.9531C15.8594-12.5098 15.4883-12.8809 14.9512-12.8809C14.4336-12.8809 14.0625-12.5 14.0625-11.9531L14.0625-7.94922L10.0586-7.94922C9.50195-7.94922 9.13086-7.56836 9.13086-7.03125C9.13086-6.51367 9.51172-6.14258 10.0586-6.14258Z"/>
  </g>
  <text style="stroke:none;fill:black;font-family:-apple-system,&quot;SF Pro Display&quot;,&quot;SF Pro Text&quot;,Helvetica,sans-serif;font-weight:bold;" transform="matrix(1 0 0 1 263 1953)">Design Variations</text>
  <text style="stroke:none;fill:black;font-family:-apple-system,&quot;SF Pro Display&quot;,&quot;SF Pro Text&quot;,Helvetica,sans-serif;" transform="matrix(1 0 0 1 263 1971)">Symbols are supported in up to nine weights and three scales.</text>
  <text style="stroke:none;fill:black;font-family:-apple-system,&quot;SF Pro Display&quot;,&quot;SF Pro Text&quot;,Helvetica,sans-serif;" transform="matrix(1 0 0 1 263 1989)">For optimal layout with text and other symbols, vertically align</text>
  <text style="stroke:none;fill:black;font-family:-apple-system,&quot;SF Pro Display&quot;,&quot;SF Pro Text&quot;,Helvetica,sans-serif;" transform="matrix(1 0 0 1 263 2007)">symbols with the adjacent text.</text>
  <line id="" style="fill:none;stroke:#00AEEF;stroke-width:0.5;opacity:1.0;" x1="776" x2="776" y1="1919" y2="1933"/>
  <g id="" transform="matrix(1 0 0 1 776 1933)">
   <path d="M3.31055 0.126953C3.82812 0.126953 4.08203-0.0683594 4.26758-0.605469L5.52734-4.0625L11.2891-4.0625L12.5488-0.605469C12.7344-0.0683594 12.9883 0.126953 13.4961 0.126953C14.0137 0.126953 14.3457-0.185547 14.3457-0.673828C14.3457-0.839844 14.3164-0.986328 14.2383-1.20117L9.6582-13.3887C9.43359-13.9941 9.0332-14.2871 8.4082-14.2871C7.80273-14.2871 7.39258-13.9941 7.17773-13.3984L2.59766-1.19141C2.51953-0.976562 2.49023-0.830078 2.49023-0.664062C2.49023-0.175781 2.80273 0.126953 3.31055 0.126953ZM6.00586-5.53711L8.37891-12.1094L8.42773-12.1094L10.8008-5.53711Z"/>
  </g>
  <line id="" style="fill:none;stroke:#00AEEF;stroke-width:0.5;opacity:1.0;" x1="792.836" x2="792.836" y1="1919" y2="1933"/>
  <text style="stroke:none;fill:black;font-family:-apple-system,&quot;SF Pro Display&quot;,&quot;SF Pro Text&quot;,Helvetica,sans-serif;font-weight:bold;" transform="matrix(1 0 0 1 776 1953)">Margins</text>
  <text style="stroke:none;fill:black;font-family:-apple-system,&quot;SF Pro Display&quot;,&quot;SF Pro Text&quot;,Helvetica,sans-serif;" transform="matrix(1 0 0 1 776 1971)">Leading and trailing margins on the left and right side of each symbol</text>
  <text style="stroke:none;fill:black;font-family:-apple-system,&quot;SF Pro Display&quot;,&quot;SF Pro Text&quot;,Helvetica,sans-serif;" transform="matrix(1 0 0 1 776 1989)">can be adjusted by modifying the x-location of the margin guidelines.</text>
  <text style="stroke:none;fill:black;font-family:-apple-system,&quot;SF Pro Display&quot;,&quot;SF Pro Text&quot;,Helvetica,sans-serif;" transform="matrix(1 0 0 1 776 2007)">Modifications are automatically applied proportionally to all</text>
  <text style="stroke:none;fill:black;font-family:-apple-system,&quot;SF Pro Display&quot;,&quot;SF Pro Text&quot;,Helvetica,sans-serif;" transform="matrix(1 0 0 1 776 2025)">scales and weights.</text>
  <g id="" transform="matrix(1 0 0 1 1289 1933)">
   <path d="M2.8418 1.86523L4.54102 3.57422C5.40039 4.44336 6.38672 4.38477 7.31445 3.35938L17.4902-7.85156C17.7539-7.76367 18.0273-7.7832 18.3398-7.8418L19.4043-8.03711L20.0684-7.36328L20.0293-6.80664C19.9902-6.30859 20.1172-5.92773 20.6055-5.44922L21.3672-4.70703C21.8457-4.22852 22.4609-4.19922 22.9297-4.66797L25.8398-7.58789C26.3086-8.05664 26.2891-8.65234 25.8105-9.13086L25.0391-9.89258C24.5605-10.3711 24.1895-10.5273 23.7109-10.4883L23.1348-10.4395L22.4902-11.0742L22.7344-12.1973C22.8613-12.7637 22.7051-13.2031 22.1191-13.7891L19.9219-15.9766C16.582-19.2969 12.1484-19.2188 9.25781-16.3281C8.83789-15.918 8.80859-15.3418 9.04297-14.9512C9.27734-14.5898 9.73633-14.3555 10.3809-14.5215C11.8457-14.8633 13.3691-14.9219 14.7949-13.9844L14.209-12.5293C14.0137-12.0508 13.9844-11.6504 14.1113-11.2891L3.04688-0.898438C2.06055 0.0195312 1.98242 0.996094 2.8418 1.86523ZM10.752-15.957C13.1836-17.7344 16.4746-17.4316 18.7012-15.2051L21.1328-12.793C21.3672-12.5586 21.4062-12.373 21.3379-12.0312L21.0156-10.5469L22.5195-9.0625L23.5059-9.12109C23.7598-9.13086 23.8379-9.11133 24.0332-8.91602L24.6094-8.33984L22.168-5.89844L21.5918-6.47461C21.3965-6.66992 21.3672-6.74805 21.377-7.01172L21.4453-7.98828L19.9512-9.47266L18.4277-9.21875C18.1055-9.15039 17.959-9.17969 17.7148-9.41406L15.7129-11.416C15.459-11.6504 15.4297-11.8164 15.5859-12.1875L16.4648-14.2773C14.9023-15.7324 12.8711-16.3574 10.8398-15.7617C10.6836-15.7227 10.625-15.8496 10.752-15.957ZM5.27344 2.30469L4.10156 1.14258C3.63281 0.683594 3.74023 0.341797 4.14062-0.0195312L14.9512-10.1953L16.416-8.71094L6.42578 2.27539C6.07422 2.67578 5.74219 2.77344 5.27344 2.30469Z"/>
  </g>
  <text style="stroke:none;fill:black;font-family:-apple-system,&quot;SF Pro Display&quot;,&quot;SF Pro Text&quot;,Helvetica,sans-serif;font-weight:bold;" transform="matrix(1 0 0 1 1289 1953)">Exporting</text>
  <text style="stroke:none;fill:black;font-family:-apple-system,&quot;SF Pro Display&quot;,&quot;SF Pro Text&quot;,Helvetica,sans-serif;" transform="matrix(1 0 0 1 1289 1971)">Symbols should be outlined when exporting to ensure the</text>
  <text style="stroke:none;fill:black;font-family:-apple-system,&quot;SF Pro Display&quot;,&quot;SF Pro Text&quot;,Helvetica,sans-serif;" transform="matrix(1 0 0 1 1289 1989)">design is preserved when submitting to Xcode.</text>
  <text id="template-version" style="stroke:none;fill:black;font-family:-apple-system,&quot;SF Pro Display&quot;,&quot;SF Pro Text&quot;,Helvetica,sans-serif;text-anchor:end;" transform="matrix(1 0 0 1 3036 1933)">Template v.2.0</text>
  <text style="stroke:none;fill:black;font-family:-apple-system,&quot;SF Pro Display&quot;,&quot;SF Pro Text&quot;,Helvetica,sans-serif;text-anchor:end;" transform="matrix(1 0 0 1 3036 1951)">Requires Xcode 12 or greater</text>
  <text style="stroke:none;fill:black;font-family:-apple-system,&quot;SF Pro Display&quot;,&quot;SF Pro Text&quot;,Helvetica,sans-serif;" transform="matrix(1 0 0 1 263 726)">Small</text>
  <text style="stroke:none;fill:black;font-family:-apple-system,&quot;SF Pro Display&quot;,&quot;SF Pro Text&quot;,Helvetica,sans-serif;" transform="matrix(1 0 0 1 263 1156)">Medium</text>
  <text style="stroke:none;fill:black;font-family:-apple-system,&quot;SF Pro Display&quot;,&quot;SF Pro Text&quot;,Helvetica,sans-serif;" transform="matrix(1 0 0 1 263 1586)">Large</text>
 </g>
 <g id="Guides">
  <g id="H-reference" style="fill:#27AAE1;stroke:none;" transform="matrix(1 0 0 1 339 696)">
   <path d="M0.976562 0L3.66211 0L12.9883-24.4629L45.752-24.4629L55.127 0L57.7637 0L30.6152-70.459L28.125-70.459ZM29.3457-67.1387L29.4434-67.1387L44.873-26.709L13.8672-26.709Z"/>
  </g>
  <line id="Baseline-S" style="fill:none;stroke:#27AAE1;opacity:1;stroke-width:0.5;" x1="263" x2="3036" y1="696" y2="696"/>
  <line id="Capline-S" style="fill:none;stroke:#27AAE1;opacity:1;stroke-width:0.5;" x1="263" x2="3036" y1="625.541" y2="625.541"/>
  <g id="H-reference" style="fill:#27AAE1;stroke:none;" transform="matrix(1 0 0 1 339 1126)">
   <path d="M0.976562 0L3.66211 0L12.9883-24.4629L45.752-24.4629L55.127 0L57.7637 0L30.6152-70.459L28.125-70.459ZM29.3457-67.1387L29.4434-67.1387L44.873-26.709L13.8672-26.709Z"/>
  </g>
  <line id="Baseline-M" style="fill:none;stroke:#27AAE1;opacity:1;stroke-width:0.5;" x1="263" x2="3036" y1="1126" y2="1126"/>
  <line id="Capline-M" style="fill:none;stroke:#27AAE1;opacity:1;stroke-width:0.5;" x1="263" x2="3036" y1="1055.54" y2="1055.54"/>
  <g id="H-reference" style="fill:#27AAE1;stroke:none;" transform="matrix(1 0 0 1 339 1556)">
   <path d="M0.976562 0L3.66211 0L12.9883-24.4629L45.752-24.4629L55.127 0L57.7637 0L30.6152-70.459L28.125-70.459ZM29.3457-67.1387L29.4434-67.1387L44.873-26.709L13.8672-26.709Z"/>
  </g>
  <line id="Baseline-L" style="fill:none;stroke:#27AAE1;opacity:1;stroke-width:0.5;" x1="263" x2="3036" y1="1556" y2="1556"/>
  <line id="Capline-L" style="fill:none;stroke:#27AAE1;opacity:1;stroke-width:0.5;" x1="263" x2="3036" y1="1485.54" y2="1485.54"/>
  <line id="left-margin" x1="1389.9668394639755" x2="1389.9668394639755" y1="1030.79" y2="1150.12" style="fill:none;stroke:#00AEEF;stroke-width:0.5;opacity:1.0;"/>
  <line id="right-margin" x1="1512.2931605360243" x2="1512.2931605360243" y1="1030.79" y2="1150.12" style="fill:none;stroke:#00AEEF;stroke-width:0.5;opacity:1.0;"/>
 </g>
 <g id="Symbols">
  <g id="Black-L" transform="matrix(1.0,0.0,0.0,1.0,2855.7795229085286,1441.8695424397786)">  <path stroke-linejoin="miter" stroke-dasharray="none" stroke-width="1px" stroke-linecap="butt" fill="#000000" fill-rule="nonzero" fill-opacity="1" stroke-opacity="1" stroke="none" stroke-miterlimit="4" d="M102.571,47.34C102.571,44.232,101.958,41.154,100.769,38.282C99.579,35.41,97.836,32.801,95.638,30.603C93.44,28.405,90.83,26.661,87.959,25.472C85.087,24.282,82.009,23.67,78.9,23.67C75.792,23.67,72.714,24.282,69.842,25.472C66.971,26.661,64.361,28.405,62.163,30.603C59.965,32.801,58.222,35.41,57.032,38.282C55.843,41.154,55.23,44.232,55.23,47.34C55.23,50.449,55.843,53.527,57.032,56.399C58.222,59.27,59.965,61.88,62.163,64.078C64.361,66.275,66.971,68.019,69.842,69.209C72.714,70.398,75.792,71.01,78.9,71.01C82.009,71.01,85.087,70.398,87.959,69.209C90.83,68.019,93.44,66.275,95.638,64.078C97.836,61.88,99.579,59.27,100.769,56.399C101.958,53.527,102.571,50.449,102.571,47.34ZM47.34,47.34C47.34,38.97,50.665,30.943,56.584,25.024C62.503,19.105,70.53,15.78,78.9,15.78C87.271,15.78,95.298,19.105,101.217,25.024C107.136,30.943,110.461,38.97,110.461,47.34C110.461,55.711,107.136,63.738,101.217,69.656C95.298,75.576,87.271,78.9,78.9,78.9C70.53,78.9,62.503,75.576,56.584,69.656C50.665,63.738,47.34,55.711,47.34,47.34ZM31.56,134.131L126.241,134.131C125.945,114.48,109.918,98.626,90.169,98.626L67.632,98.626C47.907,98.626,31.881,114.48,31.56,134.131ZM23.67,134.698C23.67,110.411,43.346,90.736,67.632,90.736L90.169,90.736C114.455,90.736,134.131,110.411,134.131,134.698C134.131,138.742,130.852,142.021,126.808,142.021L30.993,142.021C26.949,142.021,23.67,138.742,23.67,134.698ZM23.67,134.698"/>
</g>
  <g id="Heavy-L" transform="matrix(1.0,0.0,0.0,1.0,2559.0695229085286,1441.8695424397786)">  <path stroke-miterlimit="4" stroke="none" stroke-linecap="butt" stroke-dasharray="none" fill-opacity="1" stroke-width="1px" fill-rule="nonzero" stroke-linejoin="miter" fill="#000000" stroke-opacity="1" d="M102.571,47.34C102.571,44.232,101.958,41.154,100.769,38.282C99.579,35.41,97.836,32.801,95.638,30.603C93.44,28.405,90.83,26.661,87.959,25.472C85.087,24.282,82.009,23.67,78.9,23.67C75.792,23.67,72.714,24.282,69.842,25.472C66.971,26.661,64.361,28.405,62.163,30.603C59.965,32.801,58.222,35.41,57.032,38.282C55.843,41.154,55.23,44.232,55.23,47.34C55.23,50.449,55.843,53.527,57.032,56.399C58.222,59.27,59.965,61.88,62.163,64.078C64.361,66.275,66.971,68.019,69.842,69.209C72.714,70.398,75.792,71.01,78.9,71.01C82.009,71.01,85.087,70.398,87.959,69.209C90.83,68.019,93.44,66.275,95.638,64.078C97.836,61.88,99.579,59.27,100.769,56.399C101.958,53.527,102.571,50.449,102.571,47.34ZM47.34,47.34C47.34,38.97,50.665,30.943,56.584,25.024C62.503,19.105,70.53,15.78,78.9,15.78C87.271,15.78,95.298,19.105,101.217,25.024C107.136,30.943,110.461,38.97,110.461,47.34C110.461,55.711,107.136,63.738,101.217,69.656C95.298,75.576,87.271,78.9,78.9,78.9C70.53,78.9,62.503,75.576,56.584,69.656C50.665,63.738,47.34,55.711,47.34,47.34ZM31.56,134.131L126.241,134.131C125.945,114.48,109.918,98.626,90.169,98.626L67.632,98.626C47.907,98.626,31.881,114.48,31.56,134.131ZM23.67,134.698C23.67,110.411,43.346,90.736,67.632,90.736L90.169,90.736C114.455,90.736,134.131,110.411,134.131,134.698C134.131,138.742,130.852,142.021,126.808,142.021L30.993,142.021C26.949,142.021,23.67,138.742,23.67,134.698ZM23.67,134.698"/>
</g>
  <g id="Bold-L" transform="matrix(1.0,0.0,0.0,1.0,2262.3595229085286,1441.8695424397786)">  <path stroke-miterlimit="4" stroke-width="1px" fill-rule="nonzero" stroke-linecap="butt" fill="#000000" stroke-dasharray="none" stroke-linejoin="miter" stroke-opacity="1" fill-opacity="1" stroke="none" d="M102.571,47.34C102.571,44.232,101.958,41.154,100.769,38.282C99.579,35.41,97.836,32.801,95.638,30.603C93.44,28.405,90.83,26.661,87.959,25.472C85.087,24.282,82.009,23.67,78.9,23.67C75.792,23.67,72.714,24.282,69.842,25.472C66.971,26.661,64.361,28.405,62.163,30.603C59.965,32.801,58.222,35.41,57.032,38.282C55.843,41.154,55.23,44.232,55.23,47.34C55.23,50.449,55.843,53.527,57.032,56.399C58.222,59.27,59.965,61.88,62.163,64.078C64.361,66.275,66.971,68.019,69.842,69.209C72.714,70.398,75.792,71.01,78.9,71.01C82.009,71.01,85.087,70.398,87.959,69.209C90.83,68.019,93.44,66.275,95.638,64.078C97.836,61.88,99.579,59.27,100.769,56.399C101.958,53.527,102.571,50.449,102.571,47.34ZM47.34,47.34C47.34,38.97,50.665,30.943,56.584,25.024C62.503,19.105,70.53,15.78,78.9,15.78C87.271,15.78,95.298,19.105,101.217,25.024C107.136,30.943,110.461,38.97,110.461,47.34C110.461,55.711,107.136,63.738,101.217,69.656C95.298,75.576,87.271,78.9,78.9,78.9C70.53,78.9,62.503,75.576,56.584,69.656C50.665,63.738,47.34,55.711,47.34,47.34ZM31.56,134.131L126.241,134.131C125.945,114.48,109.918,98.626,90.169,98.626L67.632,98.626C47.907,98.626,31.881,114.48,31.56,134.131ZM23.67,134.698C23.67,110.411,43.346,90.736,67.632,90.736L90.169,90.736C114.455,90.736,134.131,110.411,134.131,134.698C134.131,138.742,130.852,142.021,126.808,142.021L30.993,142.021C26.949,142.021,23.67,138.742,23.67,134.698ZM23.67,134.698"/>
</g>
  <g id="Semibold-L" transform="matrix(1.0,0.0,0.0,1.0,1965.6495229085285,1441.8695424397786)">  <path stroke-dasharray="none" stroke-linejoin="miter" stroke-opacity="1" stroke-width="1px" fill-rule="nonzero" fill="#000000" stroke-linecap="butt" stroke="none" stroke-miterlimit="4" fill-opacity="1" d="M102.571,47.34C102.571,44.232,101.958,41.154,100.769,38.282C99.579,35.41,97.836,32.801,95.638,30.603C93.44,28.405,90.83,26.661,87.959,25.472C85.087,24.282,82.009,23.67,78.9,23.67C75.792,23.67,72.714,24.282,69.842,25.472C66.971,26.661,64.361,28.405,62.163,30.603C59.965,32.801,58.222,35.41,57.032,38.282C55.843,41.154,55.23,44.232,55.23,47.34C55.23,50.449,55.843,53.527,57.032,56.399C58.222,59.27,59.965,61.88,62.163,64.078C64.361,66.275,66.971,68.019,69.842,69.209C72.714,70.398,75.792,71.01,78.9,71.01C82.009,71.01,85.087,70.398,87.959,69.209C90.83,68.019,93.44,66.275,95.638,64.078C97.836,61.88,99.579,59.27,100.769,56.399C101.958,53.527,102.571,50.449,102.571,47.34ZM47.34,47.34C47.34,38.97,50.665,30.943,56.584,25.024C62.503,19.105,70.53,15.78,78.9,15.78C87.271,15.78,95.298,19.105,101.217,25.024C107.136,30.943,110.461,38.97,110.461,47.34C110.461,55.711,107.136,63.738,101.217,69.656C95.298,75.576,87.271,78.9,78.9,78.9C70.53,78.9,62.503,75.576,56.584,69.656C50.665,63.738,47.34,55.711,47.34,47.34ZM31.56,134.131L126.241,134.131C125.945,114.48,109.918,98.626,90.169,98.626L67.632,98.626C47.907,98.626,31.881,114.48,31.56,134.131ZM23.67,134.698C23.67,110.411,43.346,90.736,67.632,90.736L90.169,90.736C114.455,90.736,134.131,110.411,134.131,134.698C134.131,138.742,130.852,142.021,126.808,142.021L30.993,142.021C26.949,142.021,23.67,138.742,23.67,134.698ZM23.67,134.698"/>
</g>
  <g id="Medium-L" transform="matrix(1.0,0.0,0.0,1.0,1668.9395229085285,1441.8695424397786)">  <path stroke="none" stroke-miterlimit="4" stroke-dasharray="none" fill-rule="nonzero" stroke-linejoin="miter" stroke-linecap="butt" fill="#000000" fill-opacity="1" stroke-opacity="1" stroke-width="1px" d="M102.571,47.34C102.571,44.232,101.958,41.154,100.769,38.282C99.579,35.41,97.836,32.801,95.638,30.603C93.44,28.405,90.83,26.661,87.959,25.472C85.087,24.282,82.009,23.67,78.9,23.67C75.792,23.67,72.714,24.282,69.842,25.472C66.971,26.661,64.361,28.405,62.163,30.603C59.965,32.801,58.222,35.41,57.032,38.282C55.843,41.154,55.23,44.232,55.23,47.34C55.23,50.449,55.843,53.527,57.032,56.399C58.222,59.27,59.965,61.88,62.163,64.078C64.361,66.275,66.971,68.019,69.842,69.209C72.714,70.398,75.792,71.01,78.9,71.01C82.009,71.01,85.087,70.398,87.959,69.209C90.83,68.019,93.44,66.275,95.638,64.078C97.836,61.88,99.579,59.27,100.769,56.399C101.958,53.527,102.571,50.449,102.571,47.34ZM47.34,47.34C47.34,38.97,50.665,30.943,56.584,25.024C62.503,19.105,70.53,15.78,78.9,15.78C87.271,15.78,95.298,19.105,101.217,25.024C107.136,30.943,110.461,38.97,110.461,47.34C110.461,55.711,107.136,63.738,101.217,69.656C95.298,75.576,87.271,78.9,78.9,78.9C70.53,78.9,62.503,75.576,56.584,69.656C50.665,63.738,47.34,55.711,47.34,47.34ZM31.56,134.131L126.241,134.131C125.945,114.48,109.918,98.626,90.169,98.626L67.632,98.626C47.907,98.626,31.881,114.48,31.56,134.131ZM23.67,134.698C23.67,110.411,43.346,90.736,67.632,90.736L90.169,90.736C114.455,90.736,134.131,110.411,134.131,134.698C134.131,138.742,130.852,142.021,126.808,142.021L30.993,142.021C26.949,142.021,23.67,138.742,23.67,134.698ZM23.67,134.698"/>
</g>
  <g id="Regular-L" transform="matrix(1.0,0.0,0.0,1.0,1372.2295229085285,1441.8695424397786)">  <path stroke-opacity="1" stroke-miterlimit="4" fill-opacity="1" stroke-dasharray="none" fill-rule="nonzero" stroke-linejoin="miter" stroke-linecap="butt" stroke-width="1px" fill="#000000" stroke="none" d="M102.571,47.34C102.571,44.232,101.958,41.154,100.769,38.282C99.579,35.41,97.836,32.801,95.638,30.603C93.44,28.405,90.83,26.661,87.959,25.472C85.087,24.282,82.009,23.67,78.9,23.67C75.792,23.67,72.714,24.282,69.842,25.472C66.971,26.661,64.361,28.405,62.163,30.603C59.965,32.801,58.222,35.41,57.032,38.282C55.843,41.154,55.23,44.232,55.23,47.34C55.23,50.449,55.843,53.527,57.032,56.399C58.222,59.27,59.965,61.88,62.163,64.078C64.361,66.275,66.971,68.019,69.842,69.209C72.714,70.398,75.792,71.01,78.9,71.01C82.009,71.01,85.087,70.398,87.959,69.209C90.83,68.019,93.44,66.275,95.638,64.078C97.836,61.88,99.579,59.27,100.769,56.399C101.958,53.527,102.571,50.449,102.571,47.34ZM47.34,47.34C47.34,38.97,50.665,30.943,56.584,25.024C62.503,19.105,70.53,15.78,78.9,15.78C87.271,15.78,95.298,19.105,101.217,25.024C107.136,30.943,110.461,38.97,110.461,47.34C110.461,55.711,107.136,63.738,101.217,69.656C95.298,75.576,87.271,78.9,78.9,78.9C70.53,78.9,62.503,75.576,56.584,69.656C50.665,63.738,47.34,55.711,47.34,47.34ZM31.56,134.131L126.241,134.131C125.945,114.48,109.918,98.626,90.169,98.626L67.632,98.626C47.907,98.626,31.881,114.48,31.56,134.131ZM23.67,134.698C23.67,110.411,43.346,90.736,67.632,90.736L90.169,90.736C114.455,90.736,134.131,110.411,134.131,134.698C134.131,138.742,130.852,142.021,126.808,142.021L30.993,142.021C26.949,142.021,23.67,138.742,23.67,134.698ZM23.67,134.698"/>
</g>
  <g id="Light-L" transform="matrix(1.0,0.0,0.0,1.0,1075.5195229085286,1441.8695424397786)">  <path fill-opacity="1" stroke-opacity="1" stroke-linecap="butt" stroke-linejoin="miter" stroke="none" fill-rule="nonzero" stroke-width="1px" stroke-dasharray="none" fill="#000000" stroke-miterlimit="4" d="M102.571,47.34C102.571,44.232,101.958,41.154,100.769,38.282C99.579,35.41,97.836,32.801,95.638,30.603C93.44,28.405,90.83,26.661,87.959,25.472C85.087,24.282,82.009,23.67,78.9,23.67C75.792,23.67,72.714,24.282,69.842,25.472C66.971,26.661,64.361,28.405,62.163,30.603C59.965,32.801,58.222,35.41,57.032,38.282C55.843,41.154,55.23,44.232,55.23,47.34C55.23,50.449,55.843,53.527,57.032,56.399C58.222,59.27,59.965,61.88,62.163,64.078C64.361,66.275,66.971,68.019,69.842,69.209C72.714,70.398,75.792,71.01,78.9,71.01C82.009,71.01,85.087,70.398,87.959,69.209C90.83,68.019,93.44,66.275,95.638,64.078C97.836,61.88,99.579,59.27,100.769,56.399C101.958,53.527,102.571,50.449,102.571,47.34ZM47.34,47.34C47.34,38.97,50.665,30.943,56.584,25.024C62.503,19.105,70.53,15.78,78.9,15.78C87.271,15.78,95.298,19.105,101.217,25.024C107.136,30.943,110.461,38.97,110.461,47.34C110.461,55.711,107.136,63.738,101.217,69.656C95.298,75.576,87.271,78.9,78.9,78.9C70.53,78.9,62.503,75.576,56.584,69.656C50.665,63.738,47.34,55.711,47.34,47.34ZM31.56,134.131L126.241,134.131C125.945,114.48,109.918,98.626,90.169,98.626L67.632,98.626C47.907,98.626,31.881,114.48,31.56,134.131ZM23.67,134.698C23.67,110.411,43.346,90.736,67.632,90.736L90.169,90.736C114.455,90.736,134.131,110.411,134.131,134.698C134.131,138.742,130.852,142.021,126.808,142.021L30.993,142.021C26.949,142.021,23.67,138.742,23.67,134.698ZM23.67,134.698"/>
</g>
  <g id="Thin-L" transform="matrix(1.0,0.0,0.0,1.0,778.8095229085287,1441.8695424397786)">  <path fill-opacity="1" stroke-linecap="butt" stroke="none" stroke-width="1px" stroke-opacity="1" fill-rule="nonzero" fill="#000000" stroke-miterlimit="4" stroke-linejoin="miter" stroke-dasharray="none" d="M102.571,47.34C102.571,44.232,101.958,41.154,100.769,38.282C99.579,35.41,97.836,32.801,95.638,30.603C93.44,28.405,90.83,26.661,87.959,25.472C85.087,24.282,82.009,23.67,78.9,23.67C75.792,23.67,72.714,24.282,69.842,25.472C66.971,26.661,64.361,28.405,62.163,30.603C59.965,32.801,58.222,35.41,57.032,38.282C55.843,41.154,55.23,44.232,55.23,47.34C55.23,50.449,55.843,53.527,57.032,56.399C58.222,59.27,59.965,61.88,62.163,64.078C64.361,66.275,66.971,68.019,69.842,69.209C72.714,70.398,75.792,71.01,78.9,71.01C82.009,71.01,85.087,70.398,87.959,69.209C90.83,68.019,93.44,66.275,95.638,64.078C97.836,61.88,99.579,59.27,100.769,56.399C101.958,53.527,102.571,50.449,102.571,47.34ZM47.34,47.34C47.34,38.97,50.665,30.943,56.584,25.024C62.503,19.105,70.53,15.78,78.9,15.78C87.271,15.78,95.298,19.105,101.217,25.024C107.136,30.943,110.461,38.97,110.461,47.34C110.461,55.711,107.136,63.738,101.217,69.656C95.298,75.576,87.271,78.9,78.9,78.9C70.53,78.9,62.503,75.576,56.584,69.656C50.665,63.738,47.34,55.711,47.34,47.34ZM31.56,134.131L126.241,134.131C125.945,114.48,109.918,98.626,90.169,98.626L67.632,98.626C47.907,98.626,31.881,114.48,31.56,134.131ZM23.67,134.698C23.67,110.411,43.346,90.736,67.632,90.736L90.169,90.736C114.455,90.736,134.131,110.411,134.131,134.698C134.131,138.742,130.852,142.021,126.808,142.021L30.993,142.021C26.949,142.021,23.67,138.742,23.67,134.698ZM23.67,134.698"/>
</g>
  <g id="Ultralight-L" transform="matrix(1.0,0.0,0.0,1.0,482.0995229085287,1441.8695424397786)">  <path stroke="none" stroke-opacity="1" stroke-miterlimit="4" stroke-width="1px" fill-opacity="1" stroke-dasharray="none" fill-rule="nonzero" stroke-linecap="butt" stroke-linejoin="miter" fill="#000000" d="M102.571,47.34C102.571,44.232,101.958,41.154,100.769,38.282C99.579,35.41,97.836,32.801,95.638,30.603C93.44,28.405,90.83,26.661,87.959,25.472C85.087,24.282,82.009,23.67,78.9,23.67C75.792,23.67,72.714,24.282,69.842,25.472C66.971,26.661,64.361,28.405,62.163,30.603C59.965,32.801,58.222,35.41,57.032,38.282C55.843,41.154,55.23,44.232,55.23,47.34C55.23,50.449,55.843,53.527,57.032,56.399C58.222,59.27,59.965,61.88,62.163,64.078C64.361,66.275,66.971,68.019,69.842,69.209C72.714,70.398,75.792,71.01,78.9,71.01C82.009,71.01,85.087,70.398,87.959,69.209C90.83,68.019,93.44,66.275,95.638,64.078C97.836,61.88,99.579,59.27,100.769,56.399C101.958,53.527,102.571,50.449,102.571,47.34ZM47.34,47.34C47.34,38.97,50.665,30.943,56.584,25.024C62.503,19.105,70.53,15.78,78.9,15.78C87.271,15.78,95.298,19.105,101.217,25.024C107.136,30.943,110.461,38.97,110.461,47.34C110.461,55.711,107.136,63.738,101.217,69.656C95.298,75.576,87.271,78.9,78.9,78.9C70.53,78.9,62.503,75.576,56.584,69.656C50.665,63.738,47.34,55.711,47.34,47.34ZM31.56,134.131L126.241,134.131C125.945,114.48,109.918,98.626,90.169,98.626L67.632,98.626C47.907,98.626,31.881,114.48,31.56,134.131ZM23.67,134.698C23.67,110.411,43.346,90.736,67.632,90.736L90.169,90.736C114.455,90.736,134.131,110.411,134.131,134.698C134.131,138.742,130.852,142.021,126.808,142.021L30.993,142.021C26.949,142.021,23.67,138.742,23.67,134.698ZM23.67,134.698"/>
</g>
  <g id="Black-M" transform="matrix(1.0,0.0,0.0,1.0,2873.5168394639754,1029.6068589952256)">  <path stroke-linejoin="miter" stroke-dasharray="none" stroke-width="1px" stroke-linecap="butt" fill="#000000" fill-rule="nonzero" fill-opacity="1" stroke-opacity="1" stroke="none" stroke-miterlimit="4" d="M79.512,36.698C79.512,34.288,79.037,31.902,78.116,29.676C77.193,27.45,75.842,25.427,74.138,23.723C72.434,22.019,70.411,20.668,68.185,19.746C65.959,18.824,63.573,18.349,61.163,18.349C58.754,18.349,56.368,18.824,54.141,19.746C51.915,20.668,49.892,22.019,48.188,23.723C46.485,25.427,45.133,27.45,44.211,29.676C43.289,31.902,42.814,34.288,42.814,36.698C42.814,39.108,43.289,41.493,44.211,43.72C45.133,45.946,46.485,47.969,48.188,49.673C49.892,51.376,51.915,52.728,54.141,53.65C56.368,54.572,58.754,55.047,61.163,55.047C63.573,55.047,65.959,54.572,68.185,53.65C70.411,52.728,72.434,51.376,74.138,49.673C75.842,47.969,77.193,45.946,78.116,43.72C79.037,41.493,79.512,39.108,79.512,36.698ZM36.698,36.698C36.698,30.209,39.275,23.986,43.864,19.398C48.452,14.81,54.675,12.233,61.163,12.233C67.652,12.233,73.874,14.81,78.463,19.398C83.051,23.986,85.628,30.209,85.628,36.698C85.628,43.186,83.051,49.409,78.463,53.997C73.874,58.586,67.652,61.163,61.163,61.163C54.675,61.163,48.452,58.586,43.864,53.997C39.275,49.409,36.698,43.186,36.698,36.698ZM24.465,103.977L97.861,103.977C97.631,88.744,85.208,76.454,69.898,76.454L52.428,76.454C37.137,76.454,24.714,88.744,24.465,103.977ZM18.349,104.417C18.349,85.59,33.602,70.338,52.428,70.338L69.898,70.338C88.725,70.338,103.977,85.59,103.977,104.417C103.977,107.552,101.435,110.094,98.301,110.094L24.026,110.094C20.891,110.094,18.349,107.552,18.349,104.417ZM18.349,104.417"/>
</g>
  <g id="Heavy-M" transform="matrix(1.0,0.0,0.0,1.0,2576.8068394639754,1029.6068589952256)">  <path stroke-miterlimit="4" stroke="none" stroke-linecap="butt" stroke-dasharray="none" fill-opacity="1" stroke-width="1px" fill-rule="nonzero" stroke-linejoin="miter" fill="#000000" stroke-opacity="1" d="M79.512,36.698C79.512,34.288,79.037,31.902,78.116,29.676C77.193,27.45,75.842,25.427,74.138,23.723C72.434,22.019,70.411,20.668,68.185,19.746C65.959,18.824,63.573,18.349,61.163,18.349C58.754,18.349,56.368,18.824,54.141,19.746C51.915,20.668,49.892,22.019,48.188,23.723C46.485,25.427,45.133,27.45,44.211,29.676C43.289,31.902,42.814,34.288,42.814,36.698C42.814,39.108,43.289,41.493,44.211,43.72C45.133,45.946,46.485,47.969,48.188,49.673C49.892,51.376,51.915,52.728,54.141,53.65C56.368,54.572,58.754,55.047,61.163,55.047C63.573,55.047,65.959,54.572,68.185,53.65C70.411,52.728,72.434,51.376,74.138,49.673C75.842,47.969,77.193,45.946,78.116,43.72C79.037,41.493,79.512,39.108,79.512,36.698ZM36.698,36.698C36.698,30.209,39.275,23.986,43.864,19.398C48.452,14.81,54.675,12.233,61.163,12.233C67.652,12.233,73.874,14.81,78.463,19.398C83.051,23.986,85.628,30.209,85.628,36.698C85.628,43.186,83.051,49.409,78.463,53.997C73.874,58.586,67.652,61.163,61.163,61.163C54.675,61.163,48.452,58.586,43.864,53.997C39.275,49.409,36.698,43.186,36.698,36.698ZM24.465,103.977L97.861,103.977C97.631,88.744,85.208,76.454,69.898,76.454L52.428,76.454C37.137,76.454,24.714,88.744,24.465,103.977ZM18.349,104.417C18.349,85.59,33.602,70.338,52.428,70.338L69.898,70.338C88.725,70.338,103.977,85.59,103.977,104.417C103.977,107.552,101.435,110.094,98.301,110.094L24.026,110.094C20.891,110.094,18.349,107.552,18.349,104.417ZM18.349,104.417"/>
</g>
  <g id="Bold-M" transform="matrix(1.0,0.0,0.0,1.0,2280.0968394639754,1029.6068589952256)">  <path stroke-miterlimit="4" stroke-width="1px" fill-rule="nonzero" stroke-linecap="butt" fill="#000000" stroke-dasharray="none" stroke-linejoin="miter" stroke-opacity="1" fill-opacity="1" stroke="none" d="M79.512,36.698C79.512,34.288,79.037,31.902,78.116,29.676C77.193,27.45,75.842,25.427,74.138,23.723C72.434,22.019,70.411,20.668,68.185,19.746C65.959,18.824,63.573,18.349,61.163,18.349C58.754,18.349,56.368,18.824,54.141,19.746C51.915,20.668,49.892,22.019,48.188,23.723C46.485,25.427,45.133,27.45,44.211,29.676C43.289,31.902,42.814,34.288,42.814,36.698C42.814,39.108,43.289,41.493,44.211,43.72C45.133,45.946,46.485,47.969,48.188,49.673C49.892,51.376,51.915,52.728,54.141,53.65C56.368,54.572,58.754,55.047,61.163,55.047C63.573,55.047,65.959,54.572,68.185,53.65C70.411,52.728,72.434,51.376,74.138,49.673C75.842,47.969,77.193,45.946,78.116,43.72C79.037,41.493,79.512,39.108,79.512,36.698ZM36.698,36.698C36.698,30.209,39.275,23.986,43.864,19.398C48.452,14.81,54.675,12.233,61.163,12.233C67.652,12.233,73.874,14.81,78.463,19.398C83.051,23.986,85.628,30.209,85.628,36.698C85.628,43.186,83.051,49.409,78.463,53.997C73.874,58.586,67.652,61.163,61.163,61.163C54.675,61.163,48.452,58.586,43.864,53.997C39.275,49.409,36.698,43.186,36.698,36.698ZM24.465,103.977L97.861,103.977C97.631,88.744,85.208,76.454,69.898,76.454L52.428,76.454C37.137,76.454,24.714,88.744,24.465,103.977ZM18.349,104.417C18.349,85.59,33.602,70.338,52.428,70.338L69.898,70.338C88.725,70.338,103.977,85.59,103.977,104.417C103.977,107.552,101.435,110.094,98.301,110.094L24.026,110.094C20.891,110.094,18.349,107.552,18.349,104.417ZM18.349,104.417"/>
</g>
  <g id="Semibold-M" transform="matrix(1.0,0.0,0.0,1.0,1983.3868394639755,1029.6068589952256)">  <path stroke-dasharray="none" stroke-linejoin="miter" stroke-opacity="1" stroke-width="1px" fill-rule="nonzero" fill="#000000" stroke-linecap="butt" stroke="none" stroke-miterlimit="4" fill-opacity="1" d="M79.512,36.698C79.512,34.288,79.037,31.902,78.116,29.676C77.193,27.45,75.842,25.427,74.138,23.723C72.434,22.019,70.411,20.668,68.185,19.746C65.959,18.824,63.573,18.349,61.163,18.349C58.754,18.349,56.368,18.824,54.141,19.746C51.915,20.668,49.892,22.019,48.188,23.723C46.485,25.427,45.133,27.45,44.211,29.676C43.289,31.902,42.814,34.288,42.814,36.698C42.814,39.108,43.289,41.493,44.211,43.72C45.133,45.946,46.485,47.969,48.188,49.673C49.892,51.376,51.915,52.728,54.141,53.65C56.368,54.572,58.754,55.047,61.163,55.047C63.573,55.047,65.959,54.572,68.185,53.65C70.411,52.728,72.434,51.376,74.138,49.673C75.842,47.969,77.193,45.946,78.116,43.72C79.037,41.493,79.512,39.108,79.512,36.698ZM36.698,36.698C36.698,30.209,39.275,23.986,43.864,19.398C48.452,14.81,54.675,12.233,61.163,12.233C67.652,12.233,73.874,14.81,78.463,19.398C83.051,23.986,85.628,30.209,85.628,36.698C85.628,43.186,83.051,49.409,78.463,53.997C73.874,58.586,67.652,61.163,61.163,61.163C54.675,61.163,48.452,58.586,43.864,53.997C39.275,49.409,36.698,43.186,36.698,36.698ZM24.465,103.977L97.861,103.977C97.631,88.744,85.208,76.454,69.898,76.454L52.428,76.454C37.137,76.454,24.714,88.744,24.465,103.977ZM18.349,104.417C18.349,85.59,33.602,70.338,52.428,70.338L69.898,70.338C88.725,70.338,103.977,85.59,103.977,104.417C103.977,107.552,101.435,110.094,98.301,110.094L24.026,110.094C20.891,110.094,18.349,107.552,18.349,104.417ZM18.349,104.417"/>
</g>
  <g id="Medium-M" transform="matrix(1.0,0.0,0.0,1.0,1686.6768394639755,1029.6068589952256)">  <path stroke="none" stroke-miterlimit="4" stroke-dasharray="none" fill-rule="nonzero" stroke-linejoin="miter" stroke-linecap="butt" fill="#000000" fill-opacity="1" stroke-opacity="1" stroke-width="1px" d="M79.512,36.698C79.512,34.288,79.037,31.902,78.116,29.676C77.193,27.45,75.842,25.427,74.138,23.723C72.434,22.019,70.411,20.668,68.185,19.746C65.959,18.824,63.573,18.349,61.163,18.349C58.754,18.349,56.368,18.824,54.141,19.746C51.915,20.668,49.892,22.019,48.188,23.723C46.485,25.427,45.133,27.45,44.211,29.676C43.289,31.902,42.814,34.288,42.814,36.698C42.814,39.108,43.289,41.493,44.211,43.72C45.133,45.946,46.485,47.969,48.188,49.673C49.892,51.376,51.915,52.728,54.141,53.65C56.368,54.572,58.754,55.047,61.163,55.047C63.573,55.047,65.959,54.572,68.185,53.65C70.411,52.728,72.434,51.376,74.138,49.673C75.842,47.969,77.193,45.946,78.116,43.72C79.037,41.493,79.512,39.108,79.512,36.698ZM36.698,36.698C36.698,30.209,39.275,23.986,43.864,19.398C48.452,14.81,54.675,12.233,61.163,12.233C67.652,12.233,73.874,14.81,78.463,19.398C83.051,23.986,85.628,30.209,85.628,36.698C85.628,43.186,83.051,49.409,78.463,53.997C73.874,58.586,67.652,61.163,61.163,61.163C54.675,61.163,48.452,58.586,43.864,53.997C39.275,49.409,36.698,43.186,36.698,36.698ZM24.465,103.977L97.861,103.977C97.631,88.744,85.208,76.454,69.898,76.454L52.428,76.454C37.137,76.454,24.714,88.744,24.465,103.977ZM18.349,104.417C18.349,85.59,33.602,70.338,52.428,70.338L69.898,70.338C88.725,70.338,103.977,85.59,103.977,104.417C103.977,107.552,101.435,110.094,98.301,110.094L24.026,110.094C20.891,110.094,18.349,107.552,18.349,104.417ZM18.349,104.417"/>
</g>
  <g id="Regular-M" transform="matrix(1.0,0.0,0.0,1.0,1389.9668394639755,1029.6068589952256)">  <path stroke-opacity="1" stroke-miterlimit="4" fill-opacity="1" stroke-dasharray="none" fill-rule="nonzero" stroke-linejoin="miter" stroke-linecap="butt" stroke-width="1px" fill="#000000" stroke="none" d="M79.512,36.698C79.512,34.288,79.037,31.902,78.116,29.676C77.193,27.45,75.842,25.427,74.138,23.723C72.434,22.019,70.411,20.668,68.185,19.746C65.959,18.824,63.573,18.349,61.163,18.349C58.754,18.349,56.368,18.824,54.141,19.746C51.915,20.668,49.892,22.019,48.188,23.723C46.485,25.427,45.133,27.45,44.211,29.676C43.289,31.902,42.814,34.288,42.814,36.698C42.814,39.108,43.289,41.493,44.211,43.72C45.133,45.946,46.485,47.969,48.188,49.673C49.892,51.376,51.915,52.728,54.141,53.65C56.368,54.572,58.754,55.047,61.163,55.047C63.573,55.047,65.959,54.572,68.185,53.65C70.411,52.728,72.434,51.376,74.138,49.673C75.842,47.969,77.193,45.946,78.116,43.72C79.037,41.493,79.512,39.108,79.512,36.698ZM36.698,36.698C36.698,30.209,39.275,23.986,43.864,19.398C48.452,14.81,54.675,12.233,61.163,12.233C67.652,12.233,73.874,14.81,78.463,19.398C83.051,23.986,85.628,30.209,85.628,36.698C85.628,43.186,83.051,49.409,78.463,53.997C73.874,58.586,67.652,61.163,61.163,61.163C54.675,61.163,48.452,58.586,43.864,53.997C39.275,49.409,36.698,43.186,36.698,36.698ZM24.465,103.977L97.861,103.977C97.631,88.744,85.208,76.454,69.898,76.454L52.428,76.454C37.137,76.454,24.714,88.744,24.465,103.977ZM18.349,104.417C18.349,85.59,33.602,70.338,52.428,70.338L69.898,70.338C88.725,70.338,103.977,85.59,103.977,104.417C103.977,107.552,101.435,110.094,98.301,110.094L24.026,110.094C20.891,110.094,18.349,107.552,18.349,104.417ZM18.349,104.417"/>
</g>
  <g id="Light-M" transform="matrix(1.0,0.0,0.0,1.0,1093.2568394639757,1029.6068589952256)">  <path fill-opacity="1" stroke-opacity="1" stroke-linecap="butt" stroke-linejoin="miter" stroke="none" fill-rule="nonzero" stroke-width="1px" stroke-dasharray="none" fill="#000000" stroke-miterlimit="4" d="M79.512,36.698C79.512,34.288,79.037,31.902,78.116,29.676C77.193,27.45,75.842,25.427,74.138,23.723C72.434,22.019,70.411,20.668,68.185,19.746C65.959,18.824,63.573,18.349,61.163,18.349C58.754,18.349,56.368,18.824,54.141,19.746C51.915,20.668,49.892,22.019,48.188,23.723C46.485,25.427,45.133,27.45,44.211,29.676C43.289,31.902,42.814,34.288,42.814,36.698C42.814,39.108,43.289,41.493,44.211,43.72C45.133,45.946,46.485,47.969,48.188,49.673C49.892,51.376,51.915,52.728,54.141,53.65C56.368,54.572,58.754,55.047,61.163,55.047C63.573,55.047,65.959,54.572,68.185,53.65C70.411,52.728,72.434,51.376,74.138,49.673C75.842,47.969,77.193,45.946,78.116,43.72C79.037,41.493,79.512,39.108,79.512,36.698ZM36.698,36.698C36.698,30.209,39.275,23.986,43.864,19.398C48.452,14.81,54.675,12.233,61.163,12.233C67.652,12.233,73.874,14.81,78.463,19.398C83.051,23.986,85.628,30.209,85.628,36.698C85.628,43.186,83.051,49.409,78.463,53.997C73.874,58.586,67.652,61.163,61.163,61.163C54.675,61.163,48.452,58.586,43.864,53.997C39.275,49.409,36.698,43.186,36.698,36.698ZM24.465,103.977L97.861,103.977C97.631,88.744,85.208,76.454,69.898,76.454L52.428,76.454C37.137,76.454,24.714,88.744,24.465,103.977ZM18.349,104.417C18.349,85.59,33.602,70.338,52.428,70.338L69.898,70.338C88.725,70.338,103.977,85.59,103.977,104.417C103.977,107.552,101.435,110.094,98.301,110.094L24.026,110.094C20.891,110.094,18.349,107.552,18.349,104.417ZM18.349,104.417"/>
</g>
  <g id="Thin-M" transform="matrix(1.0,0.0,0.0,1.0,796.5468394639757,1029.6068589952256)">  <path fill-opacity="1" stroke-linecap="butt" stroke="none" stroke-width="1px" stroke-opacity="1" fill-rule="nonzero" fill="#000000" stroke-miterlimit="4" stroke-linejoin="miter" stroke-dasharray="none" d="M79.512,36.698C79.512,34.288,79.037,31.902,78.116,29.676C77.193,27.45,75.842,25.427,74.138,23.723C72.434,22.019,70.411,20.668,68.185,19.746C65.959,18.824,63.573,18.349,61.163,18.349C58.754,18.349,56.368,18.824,54.141,19.746C51.915,20.668,49.892,22.019,48.188,23.723C46.485,25.427,45.133,27.45,44.211,29.676C43.289,31.902,42.814,34.288,42.814,36.698C42.814,39.108,43.289,41.493,44.211,43.72C45.133,45.946,46.485,47.969,48.188,49.673C49.892,51.376,51.915,52.728,54.141,53.65C56.368,54.572,58.754,55.047,61.163,55.047C63.573,55.047,65.959,54.572,68.185,53.65C70.411,52.728,72.434,51.376,74.138,49.673C75.842,47.969,77.193,45.946,78.116,43.72C79.037,41.493,79.512,39.108,79.512,36.698ZM36.698,36.698C36.698,30.209,39.275,23.986,43.864,19.398C48.452,14.81,54.675,12.233,61.163,12.233C67.652,12.233,73.874,14.81,78.463,19.398C83.051,23.986,85.628,30.209,85.628,36.698C85.628,43.186,83.051,49.409,78.463,53.997C73.874,58.586,67.652,61.163,61.163,61.163C54.675,61.163,48.452,58.586,43.864,53.997C39.275,49.409,36.698,43.186,36.698,36.698ZM24.465,103.977L97.861,103.977C97.631,88.744,85.208,76.454,69.898,76.454L52.428,76.454C37.137,76.454,24.714,88.744,24.465,103.977ZM18.349,104.417C18.349,85.59,33.602,70.338,52.428,70.338L69.898,70.338C88.725,70.338,103.977,85.59,103.977,104.417C103.977,107.552,101.435,110.094,98.301,110.094L24.026,110.094C20.891,110.094,18.349,107.552,18.349,104.417ZM18.349,104.417"/>
</g>
  <g id="Ultralight-M" transform="matrix(1.0,0.0,0.0,1.0,499.8368394639757,1029.6068589952256)">  <path stroke="none" stroke-opacity="1" stroke-miterlimit="4" stroke-width="1px" fill-opacity="1" stroke-dasharray="none" fill-rule="nonzero" stroke-linecap="butt" stroke-linejoin="miter" fill="#000000" d="M79.512,36.698C79.512,34.288,79.037,31.902,78.116,29.676C77.193,27.45,75.842,25.427,74.138,23.723C72.434,22.019,70.411,20.668,68.185,19.746C65.959,18.824,63.573,18.349,61.163,18.349C58.754,18.349,56.368,18.824,54.141,19.746C51.915,20.668,49.892,22.019,48.188,23.723C46.485,25.427,45.133,27.45,44.211,29.676C43.289,31.902,42.814,34.288,42.814,36.698C42.814,39.108,43.289,41.493,44.211,43.72C45.133,45.946,46.485,47.969,48.188,49.673C49.892,51.376,51.915,52.728,54.141,53.65C56.368,54.572,58.754,55.047,61.163,55.047C63.573,55.047,65.959,54.572,68.185,53.65C70.411,52.728,72.434,51.376,74.138,49.673C75.842,47.969,77.193,45.946,78.116,43.72C79.037,41.493,79.512,39.108,79.512,36.698ZM36.698,36.698C36.698,30.209,39.275,23.986,43.864,19.398C48.452,14.81,54.675,12.233,61.163,12.233C67.652,12.233,73.874,14.81,78.463,19.398C83.051,23.986,85.628,30.209,85.628,36.698C85.628,43.186,83.051,49.409,78.463,53.997C73.874,58.586,67.652,61.163,61.163,61.163C54.675,61.163,48.452,58.586,43.864,53.997C39.275,49.409,36.698,43.186,36.698,36.698ZM24.465,103.977L97.861,103.977C97.631,88.744,85.208,76.454,69.898,76.454L52.428,76.454C37.137,76.454,24.714,88.744,24.465,103.977ZM18.349,104.417C18.349,85.59,33.602,70.338,52.428,70.338L69.898,70.338C88.725,70.338,103.977,85.59,103.977,104.417C103.977,107.552,101.435,110.094,98.301,110.094L24.026,110.094C20.891,110.094,18.349,107.552,18.349,104.417ZM18.349,104.417"/>
</g>
  <g id="Black-S" transform="matrix(1.0,0.0,0.0,1.0,2886.789245300293,612.879264831543)">  <path stroke-linejoin="miter" stroke-dasharray="none" stroke-width="1px" stroke-linecap="butt" fill="#000000" fill-rule="nonzero" fill-opacity="1" stroke-opacity="1" stroke="none" stroke-miterlimit="4" d="M62.258,28.734C62.258,26.848,61.886,24.979,61.164,23.236C60.442,21.493,59.384,19.909,58.05,18.575C56.716,17.241,55.132,16.183,53.389,15.461C51.646,14.739,49.777,14.367,47.891,14.367C46.004,14.367,44.136,14.739,42.393,15.461C40.65,16.183,39.066,17.241,37.732,18.575C36.398,19.909,35.339,21.493,34.617,23.236C33.895,24.979,33.524,26.848,33.524,28.734C33.524,30.621,33.895,32.489,34.617,34.233C35.339,35.976,36.398,37.559,37.732,38.894C39.066,40.228,40.65,41.286,42.393,42.008C44.136,42.73,46.004,43.102,47.891,43.102C49.777,43.102,51.646,42.73,53.389,42.008C55.132,41.286,56.716,40.228,58.05,38.894C59.384,37.559,60.442,35.976,61.164,34.233C61.886,32.489,62.258,30.621,62.258,28.734ZM28.734,28.734C28.734,23.654,30.753,18.781,34.345,15.189C37.938,11.596,42.81,9.578,47.891,9.578C52.971,9.578,57.844,11.596,61.436,15.189C65.029,18.781,67.047,23.654,67.047,28.734C67.047,33.815,65.029,38.687,61.436,42.28C57.844,45.873,52.971,47.891,47.891,47.891C42.81,47.891,37.938,45.873,34.345,42.28C30.753,38.687,28.734,33.815,28.734,28.734ZM19.156,81.414L76.625,81.414C76.445,69.487,66.718,59.863,54.73,59.863L41.051,59.863C29.079,59.863,19.351,69.487,19.156,81.414ZM14.367,81.758C14.367,67.017,26.31,55.074,41.051,55.074L54.73,55.074C69.472,55.074,81.414,67.017,81.414,81.758C81.414,84.213,79.424,86.203,76.969,86.203L18.812,86.203C16.358,86.203,14.367,84.213,14.367,81.758ZM14.367,81.758"/>
</g>
  <g id="Heavy-S" transform="matrix(1.0,0.0,0.0,1.0,2590.0792453002928,612.879264831543)">  <path stroke-miterlimit="4" stroke="none" stroke-linecap="butt" stroke-dasharray="none" fill-opacity="1" stroke-width="1px" fill-rule="nonzero" stroke-linejoin="miter" fill="#000000" stroke-opacity="1" d="M62.258,28.734C62.258,26.848,61.886,24.979,61.164,23.236C60.442,21.493,59.384,19.909,58.05,18.575C56.716,17.241,55.132,16.183,53.389,15.461C51.646,14.739,49.777,14.367,47.891,14.367C46.004,14.367,44.136,14.739,42.393,15.461C40.65,16.183,39.066,17.241,37.732,18.575C36.398,19.909,35.339,21.493,34.617,23.236C33.895,24.979,33.524,26.848,33.524,28.734C33.524,30.621,33.895,32.489,34.617,34.233C35.339,35.976,36.398,37.559,37.732,38.894C39.066,40.228,40.65,41.286,42.393,42.008C44.136,42.73,46.004,43.102,47.891,43.102C49.777,43.102,51.646,42.73,53.389,42.008C55.132,41.286,56.716,40.228,58.05,38.894C59.384,37.559,60.442,35.976,61.164,34.233C61.886,32.489,62.258,30.621,62.258,28.734ZM28.734,28.734C28.734,23.654,30.753,18.781,34.345,15.189C37.938,11.596,42.81,9.578,47.891,9.578C52.971,9.578,57.844,11.596,61.436,15.189C65.029,18.781,67.047,23.654,67.047,28.734C67.047,33.815,65.029,38.687,61.436,42.28C57.844,45.873,52.971,47.891,47.891,47.891C42.81,47.891,37.938,45.873,34.345,42.28C30.753,38.687,28.734,33.815,28.734,28.734ZM19.156,81.414L76.625,81.414C76.445,69.487,66.718,59.863,54.73,59.863L41.051,59.863C29.079,59.863,19.351,69.487,19.156,81.414ZM14.367,81.758C14.367,67.017,26.31,55.074,41.051,55.074L54.73,55.074C69.472,55.074,81.414,67.017,81.414,81.758C81.414,84.213,79.424,86.203,76.969,86.203L18.812,86.203C16.358,86.203,14.367,84.213,14.367,81.758ZM14.367,81.758"/>
</g>
  <g id="Bold-S" transform="matrix(1.0,0.0,0.0,1.0,2293.3692453002927,612.879264831543)">  <path stroke-miterlimit="4" stroke-width="1px" fill-rule="nonzero" stroke-linecap="butt" fill="#000000" stroke-dasharray="none" stroke-linejoin="miter" stroke-opacity="1" fill-opacity="1" stroke="none" d="M62.258,28.734C62.258,26.848,61.886,24.979,61.164,23.236C60.442,21.493,59.384,19.909,58.05,18.575C56.716,17.241,55.132,16.183,53.389,15.461C51.646,14.739,49.777,14.367,47.891,14.367C46.004,14.367,44.136,14.739,42.393,15.461C40.65,16.183,39.066,17.241,37.732,18.575C36.398,19.909,35.339,21.493,34.617,23.236C33.895,24.979,33.524,26.848,33.524,28.734C33.524,30.621,33.895,32.489,34.617,34.233C35.339,35.976,36.398,37.559,37.732,38.894C39.066,40.228,40.65,41.286,42.393,42.008C44.136,42.73,46.004,43.102,47.891,43.102C49.777,43.102,51.646,42.73,53.389,42.008C55.132,41.286,56.716,40.228,58.05,38.894C59.384,37.559,60.442,35.976,61.164,34.233C61.886,32.489,62.258,30.621,62.258,28.734ZM28.734,28.734C28.734,23.654,30.753,18.781,34.345,15.189C37.938,11.596,42.81,9.578,47.891,9.578C52.971,9.578,57.844,11.596,61.436,15.189C65.029,18.781,67.047,23.654,67.047,28.734C67.047,33.815,65.029,38.687,61.436,42.28C57.844,45.873,52.971,47.891,47.891,47.891C42.81,47.891,37.938,45.873,34.345,42.28C30.753,38.687,28.734,33.815,28.734,28.734ZM19.156,81.414L76.625,81.414C76.445,69.487,66.718,59.863,54.73,59.863L41.051,59.863C29.079,59.863,19.351,69.487,19.156,81.414ZM14.367,81.758C14.367,67.017,26.31,55.074,41.051,55.074L54.73,55.074C69.472,55.074,81.414,67.017,81.414,81.758C81.414,84.213,79.424,86.203,76.969,86.203L18.812,86.203C16.358,86.203,14.367,84.213,14.367,81.758ZM14.367,81.758"/>
</g>
  <g id="Semibold-S" transform="matrix(1.0,0.0,0.0,1.0,1996.659245300293,612.879264831543)">  <path stroke-dasharray="none" stroke-linejoin="miter" stroke-opacity="1" stroke-width="1px" fill-rule="nonzero" fill="#000000" stroke-linecap="butt" stroke="none" stroke-miterlimit="4" fill-opacity="1" d="M62.258,28.734C62.258,26.848,61.886,24.979,61.164,23.236C60.442,21.493,59.384,19.909,58.05,18.575C56.716,17.241,55.132,16.183,53.389,15.461C51.646,14.739,49.777,14.367,47.891,14.367C46.004,14.367,44.136,14.739,42.393,15.461C40.65,16.183,39.066,17.241,37.732,18.575C36.398,19.909,35.339,21.493,34.617,23.236C33.895,24.979,33.524,26.848,33.524,28.734C33.524,30.621,33.895,32.489,34.617,34.233C35.339,35.976,36.398,37.559,37.732,38.894C39.066,40.228,40.65,41.286,42.393,42.008C44.136,42.73,46.004,43.102,47.891,43.102C49.777,43.102,51.646,42.73,53.389,42.008C55.132,41.286,56.716,40.228,58.05,38.894C59.384,37.559,60.442,35.976,61.164,34.233C61.886,32.489,62.258,30.621,62.258,28.734ZM28.734,28.734C28.734,23.654,30.753,18.781,34.345,15.189C37.938,11.596,42.81,9.578,47.891,9.578C52.971,9.578,57.844,11.596,61.436,15.189C65.029,18.781,67.047,23.654,67.047,28.734C67.047,33.815,65.029,38.687,61.436,42.28C57.844,45.873,52.971,47.891,47.891,47.891C42.81,47.891,37.938,45.873,34.345,42.28C30.753,38.687,28.734,33.815,28.734,28.734ZM19.156,81.414L76.625,81.414C76.445,69.487,66.718,59.863,54.73,59.863L41.051,59.863C29.079,59.863,19.351,69.487,19.156,81.414ZM14.367,81.758C14.367,67.017,26.31,55.074,41.051,55.074L54.73,55.074C69.472,55.074,81.414,67.017,81.414,81.758C81.414,84.213,79.424,86.203,76.969,86.203L18.812,86.203C16.358,86.203,14.367,84.213,14.367,81.758ZM14.367,81.758"/>
</g>
  <g id="Medium-S" transform="matrix(1.0,0.0,0.0,1.0,1699.949245300293,612.879264831543)">  <path stroke="none" stroke-miterlimit="4" stroke-dasharray="none" fill-rule="nonzero" stroke-linejoin="miter" stroke-linecap="butt" fill="#000000" fill-opacity="1" stroke-opacity="1" stroke-width="1px" d="M62.258,28.734C62.258,26.848,61.886,24.979,61.164,23.236C60.442,21.493,59.384,19.909,58.05,18.575C56.716,17.241,55.132,16.183,53.389,15.461C51.646,14.739,49.777,14.367,47.891,14.367C46.004,14.367,44.136,14.739,42.393,15.461C40.65,16.183,39.066,17.241,37.732,18.575C36.398,19.909,35.339,21.493,34.617,23.236C33.895,24.979,33.524,26.848,33.524,28.734C33.524,30.621,33.895,32.489,34.617,34.233C35.339,35.976,36.398,37.559,37.732,38.894C39.066,40.228,40.65,41.286,42.393,42.008C44.136,42.73,46.004,43.102,47.891,43.102C49.777,43.102,51.646,42.73,53.389,42.008C55.132,41.286,56.716,40.228,58.05,38.894C59.384,37.559,60.442,35.976,61.164,34.233C61.886,32.489,62.258,30.621,62.258,28.734ZM28.734,28.734C28.734,23.654,30.753,18.781,34.345,15.189C37.938,11.596,42.81,9.578,47.891,9.578C52.971,9.578,57.844,11.596,61.436,15.189C65.029,18.781,67.047,23.654,67.047,28.734C67.047,33.815,65.029,38.687,61.436,42.28C57.844,45.873,52.971,47.891,47.891,47.891C42.81,47.891,37.938,45.873,34.345,42.28C30.753,38.687,28.734,33.815,28.734,28.734ZM19.156,81.414L76.625,81.414C76.445,69.487,66.718,59.863,54.73,59.863L41.051,59.863C29.079,59.863,19.351,69.487,19.156,81.414ZM14.367,81.758C14.367,67.017,26.31,55.074,41.051,55.074L54.73,55.074C69.472,55.074,81.414,67.017,81.414,81.758C81.414,84.213,79.424,86.203,76.969,86.203L18.812,86.203C16.358,86.203,14.367,84.213,14.367,81.758ZM14.367,81.758"/>
</g>
  <g id="Regular-S" transform="matrix(1.0,0.0,0.0,1.0,1403.2392453002929,612.879264831543)">  <path stroke-opacity="1" stroke-miterlimit="4" fill-opacity="1" stroke-dasharray="none" fill-rule="nonzero" stroke-linejoin="miter" stroke-linecap="butt" stroke-width="1px" fill="#000000" stroke="none" d="M62.258,28.734C62.258,26.848,61.886,24.979,61.164,23.236C60.442,21.493,59.384,19.909,58.05,18.575C56.716,17.241,55.132,16.183,53.389,15.461C51.646,14.739,49.777,14.367,47.891,14.367C46.004,14.367,44.136,14.739,42.393,15.461C40.65,16.183,39.066,17.241,37.732,18.575C36.398,19.909,35.339,21.493,34.617,23.236C33.895,24.979,33.524,26.848,33.524,28.734C33.524,30.621,33.895,32.489,34.617,34.233C35.339,35.976,36.398,37.559,37.732,38.894C39.066,40.228,40.65,41.286,42.393,42.008C44.136,42.73,46.004,43.102,47.891,43.102C49.777,43.102,51.646,42.73,53.389,42.008C55.132,41.286,56.716,40.228,58.05,38.894C59.384,37.559,60.442,35.976,61.164,34.233C61.886,32.489,62.258,30.621,62.258,28.734ZM28.734,28.734C28.734,23.654,30.753,18.781,34.345,15.189C37.938,11.596,42.81,9.578,47.891,9.578C52.971,9.578,57.844,11.596,61.436,15.189C65.029,18.781,67.047,23.654,67.047,28.734C67.047,33.815,65.029,38.687,61.436,42.28C57.844,45.873,52.971,47.891,47.891,47.891C42.81,47.891,37.938,45.873,34.345,42.28C30.753,38.687,28.734,33.815,28.734,28.734ZM19.156,81.414L76.625,81.414C76.445,69.487,66.718,59.863,54.73,59.863L41.051,59.863C29.079,59.863,19.351,69.487,19.156,81.414ZM14.367,81.758C14.367,67.017,26.31,55.074,41.051,55.074L54.73,55.074C69.472,55.074,81.414,67.017,81.414,81.758C81.414,84.213,79.424,86.203,76.969,86.203L18.812,86.203C16.358,86.203,14.367,84.213,14.367,81.758ZM14.367,81.758"/>
</g>
  <g id="Light-S" transform="matrix(1.0,0.0,0.0,1.0,1106.529245300293,612.879264831543)">  <path fill-opacity="1" stroke-opacity="1" stroke-linecap="butt" stroke-linejoin="miter" stroke="none" fill-rule="nonzero" stroke-width="1px" stroke-dasharray="none" fill="#000000" stroke-miterlimit="4" d="M62.258,28.734C62.258,26.848,61.886,24.979,61.164,23.236C60.442,21.493,59.384,19.909,58.05,18.575C56.716,17.241,55.132,16.183,53.389,15.461C51.646,14.739,49.777,14.367,47.891,14.367C46.004,14.367,44.136,14.739,42.393,15.461C40.65,16.183,39.066,17.241,37.732,18.575C36.398,19.909,35.339,21.493,34.617,23.236C33.895,24.979,33.524,26.848,33.524,28.734C33.524,30.621,33.895,32.489,34.617,34.233C35.339,35.976,36.398,37.559,37.732,38.894C39.066,40.228,40.65,41.286,42.393,42.008C44.136,42.73,46.004,43.102,47.891,43.102C49.777,43.102,51.646,42.73,53.389,42.008C55.132,41.286,56.716,40.228,58.05,38.894C59.384,37.559,60.442,35.976,61.164,34.233C61.886,32.489,62.258,30.621,62.258,28.734ZM28.734,28.734C28.734,23.654,30.753,18.781,34.345,15.189C37.938,11.596,42.81,9.578,47.891,9.578C52.971,9.578,57.844,11.596,61.436,15.189C65.029,18.781,67.047,23.654,67.047,28.734C67.047,33.815,65.029,38.687,61.436,42.28C57.844,45.873,52.971,47.891,47.891,47.891C42.81,47.891,37.938,45.873,34.345,42.28C30.753,38.687,28.734,33.815,28.734,28.734ZM19.156,81.414L76.625,81.414C76.445,69.487,66.718,59.863,54.73,59.863L41.051,59.863C29.079,59.863,19.351,69.487,19.156,81.414ZM14.367,81.758C14.367,67.017,26.31,55.074,41.051,55.074L54.73,55.074C69.472,55.074,81.414,67.017,81.414,81.758C81.414,84.213,79.424,86.203,76.969,86.203L18.812,86.203C16.358,86.203,14.367,84.213,14.367,81.758ZM14.367,81.758"/>
</g>
  <g id="Thin-S" transform="matrix(1.0,0.0,0.0,1.0,809.819245300293,612.879264831543)">  <path fill-opacity="1" stroke-linecap="butt" stroke="none" stroke-width="1px" stroke-opacity="1" fill-rule="nonzero" fill="#000000" stroke-miterlimit="4" stroke-linejoin="miter" stroke-dasharray="none" d="M62.258,28.734C62.258,26.848,61.886,24.979,61.164,23.236C60.442,21.493,59.384,19.909,58.05,18.575C56.716,17.241,55.132,16.183,53.389,15.461C51.646,14.739,49.777,14.367,47.891,14.367C46.004,14.367,44.136,14.739,42.393,15.461C40.65,16.183,39.066,17.241,37.732,18.575C36.398,19.909,35.339,21.493,34.617,23.236C33.895,24.979,33.524,26.848,33.524,28.734C33.524,30.621,33.895,32.489,34.617,34.233C35.339,35.976,36.398,37.559,37.732,38.894C39.066,40.228,40.65,41.286,42.393,42.008C44.136,42.73,46.004,43.102,47.891,43.102C49.777,43.102,51.646,42.73,53.389,42.008C55.132,41.286,56.716,40.228,58.05,38.894C59.384,37.559,60.442,35.976,61.164,34.233C61.886,32.489,62.258,30.621,62.258,28.734ZM28.734,28.734C28.734,23.654,30.753,18.781,34.345,15.189C37.938,11.596,42.81,9.578,47.891,9.578C52.971,9.578,57.844,11.596,61.436,15.189C65.029,18.781,67.047,23.654,67.047,28.734C67.047,33.815,65.029,38.687,61.436,42.28C57.844,45.873,52.971,47.891,47.891,47.891C42.81,47.891,37.938,45.873,34.345,42.28C30.753,38.687,28.734,33.815,28.734,28.734ZM19.156,81.414L76.625,81.414C76.445,69.487,66.718,59.863,54.73,59.863L41.051,59.863C29.079,59.863,19.351,69.487,19.156,81.414ZM14.367,81.758C14.367,67.017,26.31,55.074,41.051,55.074L54.73,55.074C69.472,55.074,81.414,67.017,81.414,81.758C81.414,84.213,79.424,86.203,76.969,86.203L18.812,86.203C16.358,86.203,14.367,84.213,14.367,81.758ZM14.367,81.758"/>
</g>
  <g id="Ultralight-S" transform="matrix(1.0,0.0,0.0,1.0,513.109245300293,612.879264831543)">  <path stroke="none" stroke-opacity="1" stroke-miterlimit="4" stroke-width="1px" fill-opacity="1" stroke-dasharray="none" fill-rule="nonzero" stroke-linecap="butt" stroke-linejoin="miter" fill="#000000" d="M62.258,28.734C62.258,26.848,61.886,24.979,61.164,23.236C60.442,21.493,59.384,19.909,58.05,18.575C56.716,17.241,55.132,16.183,53.389,15.461C51.646,14.739,49.777,14.367,47.891,14.367C46.004,14.367,44.136,14.739,42.393,15.461C40.65,16.183,39.066,17.241,37.732,18.575C36.398,19.909,35.339,21.493,34.617,23.236C33.895,24.979,33.524,26.848,33.524,28.734C33.524,30.621,33.895,32.489,34.617,34.233C35.339,35.976,36.398,37.559,37.732,38.894C39.066,40.228,40.65,41.286,42.393,42.008C44.136,42.73,46.004,43.102,47.891,43.102C49.777,43.102,51.646,42.73,53.389,42.008C55.132,41.286,56.716,40.228,58.05,38.894C59.384,37.559,60.442,35.976,61.164,34.233C61.886,32.489,62.258,30.621,62.258,28.734ZM28.734,28.734C28.734,23.654,30.753,18.781,34.345,15.189C37.938,11.596,42.81,9.578,47.891,9.578C52.971,9.578,57.844,11.596,61.436,15.189C65.029,18.781,67.047,23.654,67.047,28.734C67.047,33.815,65.029,38.687,61.436,42.28C57.844,45.873,52.971,47.891,47.891,47.891C42.81,47.891,37.938,45.873,34.345,42.28C30.753,38.687,28.734,33.815,28.734,28.734ZM19.156,81.414L76.625,81.414C76.445,69.487,66.718,59.863,54.73,59.863L41.051,59.863C29.079,59.863,19.351,69.487,19.156,81.414ZM14.367,81.758C14.367,67.017,26.31,55.074,41.051,55.074L54.73,55.074C69.472,55.074,81.414,67.017,81.414,81.758C81.414,84.213,79.424,86.203,76.969,86.203L18.812,86.203C16.358,86.203,14.367,84.213,14.367,81.758ZM14.367,81.758"/>
</g>
 </g>
</svg>
